<?xml version="1.0" standalone="no"?>
  <!DOCTYPE svg PUBLIC "-//W3C//DTD SVG 1.1//EN" "http://www.w3.org/Graphics/SVG/1.1/DTD/svg11.dtd" >
  <svg>
  <metadata>
  Created by font-carrier
  </metadata>
  <defs>
  <font id="JuraDemiBold" horiz-adv-x="986" vert-adv-y="986" >
    <font-face
      
      font-family="Jura"
      
      font-weight="400"
      
      font-stretch="normal"
      
      units-per-em="1024"
      
      ascent="879"
      
      descent="-257"
      
    />
      <missing-glyph />

      

      
      <glyph glyph-name="uni21" unicode="&#x21;" d="M89.50 65.50Q89.50 65.50 99.75 72.75Q110 80 130 80Q150 80 171 66Q192 52 192 30Q192 8 172-7Q152-22 131-22Q110-22 89.50-7.50Q69 7 69 29Q69 51 89.50 65.50M166 197Q166 154 130 154Q94 154 94 197L94 616Q94 639 105 649Q116 659 130 659Q144 659 155 649Q166 639 166 616L166 197Z"  horiz-adv-x="260" vert-adv-y="1024"  />

      
      <glyph glyph-name="uni22" unicode="&#x22;" d="M172 615Q172 638 183 648Q194 658 208 658Q222 658 233 648Q244 638 244 615L244 466Q244 423 208 423Q172 423 172 466L172 615M71 615Q71 638 82 648Q93 658 107 658Q142 658 142 615L142 466Q142 443 131 433Q120 423 106 423Q71 423 71 466L71 615Z"  horiz-adv-x="314" vert-adv-y="1024"  />

      
      <glyph glyph-name="uni23" unicode="&#x23;" d="M306 446L409 446L468 610Q480 640 505 640Q521 640 531 629Q541 618 541 607Q541 596 538 584L486 446L535 446Q558 446 568 435Q578 424 578 410Q578 396 568 385Q558 374 535 374L460 374L419 262L504 262Q547 262 547 226Q547 190 504 190L393 190L334 26Q320-4 300-4Q280-4 270.50 6Q261 16 261 28Q261 40 264 52L317 190L214 190L155 26Q141-4 122-4Q103-4 93 5.50Q83 15 83 27Q83 39 86 51L138 190L86 190Q63 190 53 201Q43 212 43 226Q43 240 53 251Q63 262 86 262L164 262L205 374L116 374Q74 374 74 411Q74 425 83.50 435.50Q93 446 116 446L231 446L290 610Q300 640 326 640Q342 640 352 630Q362 620 362 606Q362 592 359 585L306 446M281 374L240 262L342 262L383 374L281 374Z"  horiz-adv-x="622" vert-adv-y="1024"  />

      
      <glyph glyph-name="uni24" unicode="&#x24;" d="M171 84Q106 84 83.50 116.50Q61 149 61 203Q61 246 97 246Q133 246 133 205Q133 174 142.50 165Q152 156 178 156L284 156L284 291L201 291Q125 291 93 330Q61 369 61 428Q61 557 201 557L284 557L284 602Q284 643 318 643Q356 643 356 603L356 557L457 557Q522 557 544.50 525.50Q567 494 567 446Q567 398 531 398Q531 398 530 397Q495 397 495 439Q495 468 486 476.50Q477 485 450 485L356 485L356 363L430 363Q431 363 432 363Q567 363 567 224Q567 84 428 84L356 84L356 34Q356-7 317-7Q284-7 284 32L284 84L171 84M446 291L356 291L356 156L446 156Q473 156 484 170Q495 184 495 216Q495 248 481 269.50Q467 291 446 291M182 363L284 363L284 485L182 485Q156 485 144.50 474.50Q133 464 133 432Q133 400 147 381.50Q161 363 182 363Z"  horiz-adv-x="628" vert-adv-y="1024"  />

      
      <glyph glyph-name="uni25" unicode="&#x25;" d="M411 197Q411 197 408 194Q405 191 405 183Q405 175 411 169Q417 163 425 163Q433 163 439 169Q445 175 445 183Q445 203 425 203Q417 203 411 197M353 118Q353 118 337.50 131.50Q322 145 322 183Q322 221 353 248Q384 275 423.50 275Q463 275 490 248Q517 221 517 183Q517 145 490 118Q463 91 423.50 91Q384 91 353 118M171 476Q171 476 167.50 476Q164 476 158 471.50Q152 467 152 460Q152 453 158.50 447Q165 441 171.50 441Q178 441 185 447Q192 453 192 460Q192 467 185 471.50Q178 476 171 476M173 369Q173 369 153 369Q133 369 106 396Q79 423 79 460Q79 497 106 522.50Q133 548 173 548Q213 548 243.50 522.50Q274 497 274 460Q274 423 243.50 396Q213 369 173 369M464 514Q480 528 493 528Q506 528 517.50 518Q529 508 529 492.50Q529 477 514 462L133 115Q118 101 104 101Q90 101 78.50 111Q67 121 67 136.50Q67 152 83 168L464 514Z"  horiz-adv-x="597" vert-adv-y="1024"  />

      
      <glyph glyph-name="uni26" unicode="&#x26;" d="M357 86L167 305Q113 266 113 182Q113 132 139 100Q165 68 195.50 58Q226 48 260 48Q312 48 357 86M121 359Q66 418 66 476Q66 557 125.50 609.50Q185 662 254 662Q298 662 336 632.50Q374 603 391 572.50Q408 542 408 528Q408 514 398 503.50Q388 493 372.50 493Q357 493 344 508Q331 523 322 541.50Q313 560 295.50 575Q278 590 254 590Q210 590 175 559Q140 528 140 476Q140 444 176 403L402 142Q423 178 423 225.50Q423 273 460 273Q494 273 494 227Q494 148 451 84L493 38Q502 28 502 11Q502-6 491-14Q480-22 465-22Q450-22 432-2L403 31Q338-24 260-24Q185-24 118 21Q84 44 62.50 86Q41 128 41 182Q41 295 121 359Z"  horiz-adv-x="534" vert-adv-y="1024"  />

      
      <glyph glyph-name="uni27" unicode="&#x27;" d="M71 615Q71 638 82 648Q93 658 107 658Q142 658 142 615L142 466Q142 443 131 433Q120 423 106 423Q71 423 71 466L71 615Z"  horiz-adv-x="212" vert-adv-y="1024"  />

      
      <glyph glyph-name="uni28" unicode="&#x28;" d="M223 15L223-57Q136-57 114-32Q84 2 78.50 44.50Q73 87 73 133L73 503Q73 598 93 636Q104 656 114 668Q126 680 146 686Q171 693 212 693Q217 693 223 693L223 621Q191 621 179 620Q167 619 157 605.50Q147 592 146 572Q145 552 145 503L145 133Q145 50 156 30Q159 24 170 20Q181 15 212 15Q217 15 223 15Z"  horiz-adv-x="271" vert-adv-y="1024"  />

      
      <glyph glyph-name="uni29" unicode="&#x29;" d="M48 15Q51 15 55 15Q108 15 115 30Q124 47 125 73.50Q126 100 126 133L126 503Q126 552 125 572Q124 592 114 605.50Q104 619 92 620Q80 621 48 621L48 693Q134 693 156 668Q186 634 192 591.50Q198 549 198 503L198 133Q198 38 178 0Q167-20 156.50-32Q146-44 126-50Q101-57 59-57Q54-57 48-57L48 15Z"  horiz-adv-x="271" vert-adv-y="1024"  />

      
      <glyph glyph-name="uni2a" unicode="&#x2a;" d="M243 374Q243 351 232 341Q221 331 207 331Q193 331 182 341Q171 351 171 374L171 428Q106 395 98 394Q84 394 74 405Q64 416 64 433Q64 450 86 463L135 492L87 519Q64 531 64 553Q64 569 75 578.50Q86 588 93 588L102 588Q106 588 109 586.50Q112 585 115.50 583.50Q119 582 122 580.50Q125 579 130.50 576Q136 573 141 570.50Q146 568 154.50 563Q163 558 171 554L171 608Q171 651 207 651Q243 651 243 608L243 554Q308 587 316 588Q331 588 341 577Q351 566 351 550Q351 534 328 519L280 492L328 463Q351 448 351 429Q351 420 342 407Q333 394 316 394Q314 394 312 394Q310 394 308 394.50Q306 395 304 396Q302 397 298.50 398.50Q295 400 292 401.50Q289 403 283.50 406Q278 409 273 411.50Q268 414 259.50 419Q251 424 243 428L243 374Z"  horiz-adv-x="415" vert-adv-y="1024"  />

      
      <glyph glyph-name="uni2b" unicode="&#x2b;" d="M229 194L75 194Q34 194 34 231Q34 244 43.50 255.50Q53 267 75 267L229 267L229 440Q229 483 265 483Q301 483 301 440L301 267L453 267Q497 267 497 229Q497 213 484.50 203.50Q472 194 453 194L301 194L301 20Q301-22 265-22Q229-22 229 20L229 194Z"  horiz-adv-x="531" vert-adv-y="1024"  />

      
      <glyph glyph-name="uni2c" unicode="&#x2c;" d="M113-65Q100-95 79-95Q47-95 47-60Q47-60 50-42L74 45Q83 76 109 76Q132 76 146 65.50Q160 55 160 43.50Q160 32 153 18L113-65Z"  horiz-adv-x="226" vert-adv-y="1024"  />

      
      <glyph glyph-name="uni2d" unicode="&#x2d;" d="M359 267Q403 267 403 229Q403 213 390.50 203.50Q378 194 359 194L114 194Q73 194 73 231Q73 244 82.50 255.50Q92 267 114 267L359 267Z"  horiz-adv-x="476" vert-adv-y="1024"  />

      
      <glyph glyph-name="uni2e" unicode="&#x2e;" d="M186 29Q186 29 186 18Q186 7 165.50-7.50Q145-22 124-22Q103-22 83.50-7.50Q64 7 64 29Q64 51 84.50 65.50Q105 80 125 80Q145 80 165.50 65.50Q186 51 186 29Z"  horiz-adv-x="250" vert-adv-y="1024"  />

      
      <glyph glyph-name="uni2f" unicode="&#x2f;" d="M113 6Q101-23 77-23Q66-23 54-15.50Q42-8 42 8L42 16Q42 25 52 53L262 631Q275 660 297 660Q309 660 321.50 652Q334 644 334 629Q334 614 325 590L113 6Z"  horiz-adv-x="375" vert-adv-y="1024"  />

      
      <glyph glyph-name="uni30" unicode="&#x30;" d="M116 491L116 144Q116 117 147.50 92Q179 67 227 67L365 67Q413 67 444.50 92Q476 117 476 144L476 491Q476 518 444.50 543Q413 568 365 568L227 568Q179 568 147.50 543Q116 518 116 491M548 158Q548 86 493.50 40.50Q439-5 354-5L238-5Q153-5 98.50 40.50Q44 86 44 158L44 478Q44 550 98.50 595.50Q153 641 238 641L354 641Q439 641 493.50 595.50Q548 550 548 478L548 158Z"  horiz-adv-x="592" vert-adv-y="1024"  />

      
      <glyph glyph-name="uni31" unicode="&#x31;" d="M269 569L261 562Q244 546 226 546Q208 546 199.50 556Q191 566 191 580Q191 594 209 610L270 670Q288 685 302 685Q316 685 328.50 675.50Q341 666 341 647L341 33Q341-7 305-7Q269-7 269 33L269 569Z"  horiz-adv-x="592" vert-adv-y="1024"  />

      
      <glyph glyph-name="uni32" unicode="&#x32;" d="M548 456Q548 406 505.50 366Q463 326 401.50 296.50Q340 267 277.50 237Q215 207 168.50 163.50Q122 120 117 67L503 67Q548 67 548 31Q548-5 503-5L45-5L45 52Q45 122 89.50 176.50Q134 231 197 264Q260 297 323.50 324.50Q387 352 431.50 384Q476 416 476 454Q476 529 443 549Q410 569 314 569L161 569Q135 569 126 559Q117 549 117 519Q117 474 81 474Q45 474 45 519Q45 585 71 613Q97 641 154 641L314 641Q435 641 491.50 603Q548 565 548 456Z"  horiz-adv-x="592" vert-adv-y="1024"  />

      
      <glyph glyph-name="uni33" unicode="&#x33;" d="M342 569L250 569Q199 569 157.50 553Q116 537 116 517Q116 474 80 474Q44 474 44 522Q44 570 98 605.50Q152 641 243 641L329 641Q449 641 498.50 596.50Q548 552 548 447Q548 414 512 380Q476 346 435 326Q475 305 511.50 264Q548 223 548 189Q548 84 498.50 39.50Q449-5 329-5L243-5Q152-5 98 31Q44 66 44 114Q44 162 80 162Q116 162 116 119Q116 99 157 83Q198 67 250 67L342 67Q420 67 448.50 93.50Q477 120 477 168Q477 216 413.50 252.50Q350 289 294 289Q238 290 238 326Q238 362 297 362Q356 362 416.50 392Q477 422 477 470Q477 518 448.50 543.50Q420 569 342 569Z"  horiz-adv-x="592" vert-adv-y="1024"  />

      
      <glyph glyph-name="uni34" unicode="&#x34;" d="M508 160L462 160L462 32Q462-7 426-7Q409-7 397.50 3Q386 13 386 32L386 160L42 160L42 235L378 641L462 641L462 232L508 232Q550 232 550 196Q550 160 508 160M386 232L386 550L124 232L386 232Z"  horiz-adv-x="592" vert-adv-y="1024"  />

      
      <glyph glyph-name="uni35" unicode="&#x35;" d="M49 105Q49 120 60 130.50Q71 141 81 141Q91 141 119 121.50Q147 102 193 82.50Q239 63 291 63Q381 63 426 107.50Q471 152 471 229.50Q471 307 422.50 342Q374 377 319 377L55 377L64 508Q69 582 98 611.50Q127 641 190 641L459 641Q501 641 501 604Q501 590 491.50 579.50Q482 569 459 569L182 569Q161 569 151 559.50Q141 550 138 523L132 449L310 449Q403 449 473 390.50Q543 332 543 226Q543 120 473.50 55.50Q404-9 291-9Q219-9 134 28Q49 65 49 105Z"  horiz-adv-x="592" vert-adv-y="1024"  />

      
      <glyph glyph-name="uni36" unicode="&#x36;" d="M296-9Q296-9 240-9Q184-9 114 53Q44 115 44 206.50Q44 298 66.50 372.50Q89 447 122 495Q155 543 192.50 578Q230 613 259 628.50Q288 644 304 644Q347 644 347 611Q347 590 317 575Q267 553 221.50 509Q176 465 149 401Q211 438 296 438Q408 438 478 375.50Q548 313 548 214.50Q548 116 478 53.50Q408-9 296-9M162.50 325Q162.50 325 139.25 304.50Q116 284 116 214Q116 144 163 103.50Q210 63 296 63Q382 63 429 103.50Q476 144 476 214Q476 284 429.50 325Q383 366 296 366Q209 366 162.50 325Z"  horiz-adv-x="592" vert-adv-y="1024"  />

      
      <glyph glyph-name="uni37" unicode="&#x37;" d="M268-10Q253-10 239-2Q225 6 225 20Q225 34 232 47L453 574L171 574Q144 574 134.50 563.50Q125 553 125 524Q125 479 89 479Q53 479 53 524Q53 589 79.50 617.50Q106 646 163 646L503 646Q539 646 539 613Q539 600 535 590L307 22Q294-10 268-10Z"  horiz-adv-x="592" vert-adv-y="1024"  />

      
      <glyph glyph-name="uni38" unicode="&#x38;" d="M279 292Q182 292 149 272.50Q116 253 116 179.50Q116 106 148.50 86.50Q181 67 279 67L314 67Q411 67 443.50 86.50Q476 106 476 179.50Q476 253 443.50 272.50Q411 292 314 292L279 292M486 28Q454 8 414 1.50Q374-5 314-5L279-5Q157-5 100.50 32Q44 69 44 175Q44 281 100 326Q44 366 44 468Q44 554 86 598Q118 630 201 638Q231 640 279 641L314 641Q465 640 506 598Q548 555 548 459.50Q548 364 493 326Q548 280 548 173Q548 66 486 28M466 401.50Q466 401.50 468 407.25Q470 413 473 428.50Q476 444 476 468Q476 492 473.50 509Q471 526 461.50 538Q452 550 443 556Q434 562 411 565Q380 569 314 569L277 569Q179 569 166.50 563Q154 557 142 550Q130 543 126 531.50Q122 520 119 504Q116 488 116 466Q116 444 119 428.50Q122 413 126 402Q130 391 141.50 384Q153 377 162.50 373Q172 369 193 367Q225 364 279 364L314 364Q414 364 427 370.50Q440 377 451 383.50Q462 390 466 401.50Z"  horiz-adv-x="592" vert-adv-y="1024"  />

      
      <glyph glyph-name="uni39" unicode="&#x39;" d="M44 466Q44 544 96 584Q146 622 208 632Q260 641 305 641Q310 641 314 641Q548 641 548 466Q548 361 515 269.50Q482 178 428 116Q374 54 304 19Q234-16 160-16Q119-16 119 21Q119 35 128.50 46Q138 57 166 57Q194 57 235.50 72Q277 87 320.50 116Q364 145 401.50 197Q439 249 457 315Q406 292 314 292Q44 292 44 466M314 569Q116 569 116 466Q116 374 256 366Q280 364 314 364Q405 364 440.50 390Q476 416 476 466Q476 516 439.50 542.50Q403 569 314 569Z"  horiz-adv-x="592" vert-adv-y="1024"  />

      
      <glyph glyph-name="uni3a" unicode="&#x3a;" d="M195 80Q195 80 195 69Q195 58 174.50 43.50Q154 29 133 29Q112 29 92.50 43.50Q73 58 73 80Q73 102 93.50 116.50Q114 131 134 131Q154 131 174.50 116.50Q195 102 195 80M195 433Q195 433 195 422Q195 411 174.50 396.50Q154 382 133 382Q112 382 92.50 396.50Q73 411 73 433Q73 455 93.50 469.50Q114 484 134 484Q154 484 174.50 469.50Q195 455 195 433Z"  horiz-adv-x="268" vert-adv-y="1024"  />

      
      <glyph glyph-name="uni3b" unicode="&#x3b;" d="M146-14Q133-44 112-44Q80-44 80-9Q80-9 83 9L107 96Q116 127 142 127Q165 127 179 116.50Q193 106 193 94.50Q193 83 186 69L146-14M195 433Q195 433 195 422Q195 411 174.50 396.50Q154 382 133 382Q112 382 92.50 396.50Q73 411 73 433Q73 455 93.50 469.50Q114 484 134 484Q154 484 174.50 469.50Q195 455 195 433Z"  horiz-adv-x="271" vert-adv-y="1024"  />

      
      <glyph glyph-name="uni3c" unicode="&#x3c;" d="M55 298Q33 312 33 332.50Q33 353 55 366L420 576Q432 584 446 584Q460 584 470 575Q480 566 480 552.50Q480 539 471.50 529Q463 519 455 515L140 333L455 149Q480 134 480 116Q480 100 469 89.50Q458 79 445 79Q432 79 419 88L55 298Z"  horiz-adv-x="548" vert-adv-y="1024"  />

      
      <glyph glyph-name="uni3d" unicode="&#x3d;" d="M365 420Q409 420 409 382Q409 366 396.50 356.50Q384 347 365 347L120 347Q79 347 79 384Q79 397 88.50 408.50Q98 420 120 420L365 420M365 317Q409 317 409 279Q409 263 396.50 253.50Q384 244 365 244L120 244Q79 244 79 281Q79 294 88.50 305.50Q98 317 120 317L365 317Z"  horiz-adv-x="488" vert-adv-y="1024"  />

      
      <glyph glyph-name="uni3e" unicode="&#x3e;" d="M493 298L129 88Q116 79 103 79Q90 79 82 87Q68 100 68 117Q68 134 93 149L408 333L93 515Q85 519 76.50 529Q68 539 68 552.50Q68 566 78 575Q88 584 102 584Q116 584 128 576L493 366Q515 353 515 332.50Q515 312 493 298Z"  horiz-adv-x="548" vert-adv-y="1024"  />

      
      <glyph glyph-name="uni3f" unicode="&#x3f;" d="M321 29Q321 29 321 18Q321 7 300.50-7.50Q280-22 259-22Q238-22 218.50-7.50Q199 7 199 29Q199 51 219.50 65.50Q240 80 260 80Q280 80 300.50 65.50Q321 51 321 29M224 194L224 346L389 391Q411 397 426 422.50Q441 448 441 485Q441 522 421 554.50Q401 587 354 587L261 587Q171 587 140.50 567Q110 547 110 471Q110 448 98.50 438Q87 428 73.50 428Q60 428 48.50 438Q37 448 37 471Q37 583 92 621Q147 659 261 659L337 659Q385 659 421 643.50Q457 628 476 602Q513 551 513 482.50Q513 414 482.50 374.50Q452 335 378 314L296 291L296 194Q296 171 285 161Q274 151 260.50 151Q247 151 235.50 161Q224 171 224 194Z"  horiz-adv-x="553" vert-adv-y="1024"  />

      
      <glyph glyph-name="uni40" unicode="&#x40;" d="M69 395Q69 514 129.50 582.50Q190 651 292 651L321 651Q423 651 483.50 582.50Q544 514 544 395Q544 350 541 322.50Q538 295 525 263.50Q512 232 488 215Q432 175 310 175Q232 175 203 212Q174 249 174 331.50Q174 414 203 451Q232 488 310.50 488Q389 488 418 451Q447 414 447 332Q447 289 441 267Q459 276 465.50 303Q472 330 472 406Q472 482 434 530.50Q396 579 321 579L292 579Q216 579 178.50 531Q141 483 141 395L141 241Q141 153 178.50 105Q216 57 292 57L426 57Q453 57 462.50 68Q472 79 472 109Q472 152 508 152Q544 152 544 102Q544 52 521 18.50Q498-15 433-15L292-15Q190-15 129.50 53.50Q69 122 69 241L69 395M246 332Q246 332 246 305Q246 278 257 262.50Q268 247 310.50 247Q353 247 364 262.50Q375 278 375 331.50Q375 385 364 400.50Q353 416 310.50 416Q268 416 257 401Q246 386 246 332Z"  horiz-adv-x="612" vert-adv-y="1024"  />

      
      <glyph glyph-name="uni41" unicode="&#x41;" d="M346 636L583 37Q586 28 586 14Q586 0 573.50-8Q561-16 550-16Q524-16 513 12L444 189L166 189L97 12Q85-16 60-16Q49-16 36.50-8Q24 0 24 14Q24 28 27 37L264 636L346 636M195 261L415 261L304 532L195 261Z"  horiz-adv-x="610" vert-adv-y="1024"  />

      
      <glyph glyph-name="uni42" unicode="&#x42;" d="M354 312L156 312L156 72L336 72Q446 72 481 91.50Q516 111 516 184L516 200Q516 273 483.50 292.50Q451 312 354 312M84 44L84 592Q84 636 118 636L306 636Q428 636 487 601.50Q546 567 546 475Q546 403 506 366Q588 325 588 203L588 184Q588 75 529 37.50Q470 0 336 0L118 0Q84 0 84 44M306 384Q403 384 438.50 401Q474 418 474 472Q474 526 438.50 542.50Q403 559 306 559L156 559L156 384L306 384Z"  horiz-adv-x="644" vert-adv-y="1024"  />

      
      <glyph glyph-name="uni43" unicode="&#x43;" d="M465 0L324 0Q189 0 130 37.50Q71 75 71 184L71 452Q71 561 128 598.50Q185 636 306 636L465 636Q530 636 552.50 602.50Q575 569 575 519Q575 469 539 469Q525 469 514 479Q503 490 503 516Q503 542 494 553Q485 564 458 564L306 564Q209 564 176 544Q143 524 143 450L143 186Q143 111 178 91.50Q213 72 324 72L458 72Q485 72 494 83Q503 94 503 120Q503 146 514 156.50Q525 167 539 167Q575 166 575 116Q575 66 552.50 33Q530 0 465 0Z"  horiz-adv-x="631" vert-adv-y="1024"  />

      
      <glyph glyph-name="uni44" unicode="&#x44;" d="M588 452L588 184Q588 75 529 37.50Q470 0 336 0L118 0Q84 0 84 44L84 592Q84 636 118 636L354 636Q475 636 531.50 598Q588 560 588 452M516 186L516 450Q516 524 483.50 544Q451 564 354 564L156 564L156 72L336 72Q447 72 481.50 91.50Q516 111 516 186Z"  horiz-adv-x="659" vert-adv-y="1024"  />

      
      <glyph glyph-name="uni45" unicode="&#x45;" d="M156 322L156 72L544 72Q588 72 588 34Q588 0 544 0L118 0Q84 0 84 44L84 592Q84 636 118 636L544 636Q588 636 588 598Q588 564 544 564L156 564L156 394L421 394Q471 394 471 356Q471 322 421 322L156 322Z"  horiz-adv-x="636" vert-adv-y="1024"  />

      
      <glyph glyph-name="uni46" unicode="&#x46;" d="M156 35Q156-7 120-7Q84-7 84 36L84 592Q84 636 118 636L544 636Q588 636 588 598Q588 564 544 564L156 564L156 394L421 394Q471 394 471 356Q471 322 421 322L156 322L156 35Z"  horiz-adv-x="615" vert-adv-y="1024"  />

      
      <glyph glyph-name="uni47" unicode="&#x47;" d="M503 236L376 236Q326 236 326 272Q326 308 376 308L575 308L575 115Q575 63 552.50 31.50Q530 0 465 0L306 0Q184 0 127.50 37Q71 74 71 181L71 455Q71 564 130 600Q189 636 324 636L465 636Q530 636 552.50 603Q575 570 575 520Q575 470 539 470L538 469Q503 469 503 513Q503 543 494 553.50Q485 564 458 564L324 564Q214 564 178.50 544.50Q143 525 143 452L143 184Q143 111 175.50 91.50Q208 72 306 72L458 72Q485 72 494 81.50Q503 91 503 120L503 236Z"  horiz-adv-x="645" vert-adv-y="1024"  />

      
      <glyph glyph-name="uni48" unicode="&#x48;" d="M156 35Q156-7 120-7Q84-7 84 35L84 600Q84 643 118 643Q156 643 156 600L156 379L516 379L516 600Q516 643 552 643Q588 643 588 600L588 35Q588-7 552-7Q516-7 516 35L516 307L156 307L156 35Z"  horiz-adv-x="672" vert-adv-y="1024"  />

      
      <glyph glyph-name="uni49" unicode="&#x49;" d="M156 33Q156-7 120-7Q84-7 84 33L84 602Q84 643 120 643Q156 643 156 602L156 33Z"  horiz-adv-x="240" vert-adv-y="1024"  />

      
      <glyph glyph-name="uni4a" unicode="&#x4a;" d="M106 182Q106 105 139 84.50Q172 64 271.50 64Q371 64 404.50 84Q438 104 438 176L438 603Q438 624 449 633.50Q460 643 474 643Q510 643 510 602L510 173Q510 66 453 29Q396-8 272-8Q210-8 169.50-1Q129 6 96 26Q33 64 33 182Q33 225 71 225Q87 225 96.50 213Q106 201 106 182Z"  horiz-adv-x="591" vert-adv-y="1024"  />

      
      <glyph glyph-name="uni4b" unicode="&#x4b;" d="M541 55Q554 40 554 26.50Q554 13 542 3Q530-7 515.50-7Q501-7 485 12L199 316L156 264L156 35Q156-7 120-7Q84-7 84 33L84 602Q84 643 120 643Q134 643 145 633Q156 623 156 600L156 346L419 624Q436 643 450.50 643Q465 643 476 633.50Q487 624 487 609.50Q487 595 475 581L251 354L541 55Z"  horiz-adv-x="560" vert-adv-y="1024"  />

      
      <glyph glyph-name="uni4c" unicode="&#x4c;" d="M118 0Q84 0 84 43L84 603Q84 624 95 633.50Q106 643 120 643Q134 643 145 633.50Q156 624 156 603L156 72L489 72Q532 72 532 36Q532 0 489 0L118 0Z"  horiz-adv-x="554" vert-adv-y="1024"  />

      
      <glyph glyph-name="uni4d" unicode="&#x4d;" d="M374 291Q362 279 346.50 279Q331 279 319 291L156 523L156 38Q156-7 120-7Q84-7 84 35L84 600Q84 643 118 643Q140 643 156 620L346 354L537 620Q553 643 574 643Q609 643 609 600L609 35Q609-7 573-7Q537-7 537 38L537 523L374 291Z"  horiz-adv-x="693" vert-adv-y="1024"  />

      
      <glyph glyph-name="uni4e" unicode="&#x4e;" d="M553-7Q530-7 525 0L156 517L156 32Q156-7 120-7Q84-7 84 35L84 600Q84 643 118 643Q140 643 156 620L516 118L516 597Q516 643 552 643Q588 643 588 600L588 35Q588-7 553-7Z"  horiz-adv-x="672" vert-adv-y="1024"  />

      
      <glyph glyph-name="uni4f" unicode="&#x4f;" d="M568 230Q568 119 498.50 55Q429-9 315.50-9Q202-9 133 54.50Q64 118 64 230L64 406Q64 518 133 581.50Q202 645 315.50 645Q429 645 498.50 581Q568 517 568 406L568 230M450.50 528.50Q450.50 528.50 427.75 550.75Q405 573 316 573Q227 573 181.50 528.50Q136 484 136 403L136 233Q136 151 182 107Q228 63 316 63Q404 63 450 107Q496 151 496 233L496 403Q496 484 450.50 528.50Z"  horiz-adv-x="632" vert-adv-y="1024"  />

      
      <glyph glyph-name="uni50" unicode="&#x50;" d="M156 33Q156-7 120-7Q84-7 84 33L84 597Q84 641 118 641L309 641Q429 641 487.50 607Q546 573 546 489Q546 405 496.50 363.50Q447 322 357 322L156 322L156 33M309 394Q410 394 442 412Q474 428 474 482Q474 536 439.50 552.50Q405 569 309 569L156 569L156 394L309 394Z"  horiz-adv-x="580" vert-adv-y="1024"  />

      
      <glyph glyph-name="uni51" unicode="&#x51;" d="M450.50 528.50Q450.50 528.50 427.75 550.75Q405 573 316 573Q227 573 181.50 528.50Q136 484 136 403L136 233Q136 151 182 107Q228 63 316 63Q376 63 416 83L367 124Q349 135 349 151Q349 167 360 178Q370 189 388 189Q406 189 424 172L470 130Q496 172 496 233L496 403Q496 484 450.50 528.50M316-9Q202-9 133 54.50Q64 118 64 230L64 406Q64 518 133 581.50Q202 645 316 645Q430 645 499 581Q568 517 568 406L568 230Q568 138 523 79L551 53Q565 38 565 24Q565 10 555-1Q545-12 528-12Q511-12 499-1L470 28Q408-9 316-9Z"  horiz-adv-x="632" vert-adv-y="1024"  />

      
      <glyph glyph-name="uni52" unicode="&#x52;" d="M438 336Q469 298 498 224.50Q527 151 540.50 97.50Q554 44 554 30Q554 16 544 4Q532-8 516-7.50Q500-7 492 5Q484 18 482.50 34Q481 50 467.50 100Q454 150 419.50 221Q385 292 342 322L156 322L156 33Q156-7 120-7Q84-7 84 33L84 602Q84 646 118 646L306 646Q428 646 487 611.50Q546 577 546 485Q546 367 438 336M156 569L156 394L306 394Q404 394 439 411Q474 428 474 482Q474 536 438 552.50Q402 569 306 569L156 569Z"  horiz-adv-x="609" vert-adv-y="1024"  />

      
      <glyph glyph-name="uni53" unicode="&#x53;" d="M238 572Q180 572 156.50 541Q133 510 133 475.50Q133 441 149 415Q165 389 185 385L460 336Q532 323 564.50 274Q597 225 597 157.50Q597 90 553 41Q509-8 408-8L312-8Q180-8 120.50 30Q61 68 61 182Q61 225 99 225Q115 225 124.50 213Q134 201 134 182Q134 105 168.50 84.50Q203 64 312 64L430 64Q482 64 503.50 95.50Q525 127 525 167.50Q525 208 507 235Q489 262 473 265L200 316Q125 331 93 369.50Q61 408 61 478Q61 542 102 590Q149 644 268 644L344 644Q411 644 453.50 637Q496 630 531 610Q597 573 597 456Q597 433 585.50 423Q574 413 559 413Q544 413 534 425Q524 437 524 456Q524 533 490 552.50Q456 572 344 572L238 572Z"  horiz-adv-x="658" vert-adv-y="1024"  />

      
      <glyph glyph-name="uni54" unicode="&#x54;" d="M450 636Q493 636 493 600Q493 564 450 564L302 564L302 33Q302 12 288.50 2.50Q275-7 259-7Q243-7 231 2Q219 11 219 33L219 564L69 564Q46 564 36 575Q26 586 26 600Q26 614 36 625Q46 636 69 636L450 636Z"  horiz-adv-x="520" vert-adv-y="1024"  />

      
      <glyph glyph-name="uni55" unicode="&#x55;" d="M509 603Q509 643 545 643Q581 643 581 602L581 230Q581 119 511.50 55Q442-9 328-9Q214-9 145.50 54.50Q77 118 77 230L77 602Q77 643 113 643Q127 643 138 633.50Q149 624 149 603L149 233Q149 151 195 107Q241 63 329 63Q417 63 463 107Q509 151 509 233L509 603Z"  horiz-adv-x="658" vert-adv-y="1024"  />

      
      <glyph glyph-name="uni56" unicode="&#x56;" d="M513 624Q525 652 550 652Q561 652 573.50 644Q586 636 586 622Q586 608 583 599L346 0L264 0L27 599Q24 608 24 622Q24 636 36.50 644Q49 652 60 652Q86 652 97 624L306 104L513 624Z"  horiz-adv-x="610" vert-adv-y="1024"  />

      
      <glyph glyph-name="uni57" unicode="&#x57;" d="M694 96L856 621Q864 649 896 649Q928 649 928 618Q928 612 924 600L730 0L656 0L477 531L299 0L226 0L31 604Q27 616 27 624Q27 653 58 653Q90 653 99 625L263 96L436 620Q448 652 478 652Q508 652 520 619L694 96Z"  horiz-adv-x="955" vert-adv-y="1024"  />

      
      <glyph glyph-name="uni58" unicode="&#x58;" d="M497 621Q513 643 527.50 643Q542 643 554 634.50Q566 626 566 610.50Q566 595 556 582L351 317L556 53Q566 41 566 25.50Q566 10 554.50 1.50Q543-7 528-7Q513-7 497 13L302 270L108 13Q93-7 77-7Q61-7 50 2Q39 11 39 25.50Q39 40 49 53L254 317L49 582Q39 594 39 611Q39 623 46 630Q58 644 74 644Q74 644 76 644Q94 644 108 621L302 365L497 621Z"  horiz-adv-x="605" vert-adv-y="1024"  />

      
      <glyph glyph-name="uni59" unicode="&#x59;" d="M243 306L28 583Q18 600 18 612Q18 624 29 633.50Q40 643 55 643Q70 643 86 621L281 365L475 621Q493 643 507 643Q521 643 532.50 633.50Q544 624 544 612Q544 600 534 583L320 306L320 32Q320-7 282-7Q244-7 243 32L243 306Z"  horiz-adv-x="563" vert-adv-y="1024"  />

      
      <glyph glyph-name="uni5a" unicode="&#x5a;" d="M50 0L50 64L461 564L95 564Q49 564 49 600Q49 636 95 636L553 636L553 569L144 72L508 72Q553 72 553 36Q553 0 508 0L50 0Z"  horiz-adv-x="602" vert-adv-y="1024"  />

      
      <glyph glyph-name="uni5b" unicode="&#x5b;" d="M153 15L231 15L231-57L81-57L81 693L231 693L231 621L153 621L153 15Z"  horiz-adv-x="279" vert-adv-y="1024"  />

      
      <glyph glyph-name="uni5c" unicode="&#x5c;" d="M262 6L50 590Q41 612 41 628Q41 644 53.50 652Q66 660 78 660Q100 660 113 631L323 53Q334 24 334 8Q334-8 321.50-15.50Q309-23 298-23Q274-23 262 6Z"  horiz-adv-x="375" vert-adv-y="1024"  />

      
      <glyph glyph-name="uni5d" unicode="&#x5d;" d="M126 15L126 621L48 621L48 693L198 693L198-57L48-57L48 15L126 15Z"  horiz-adv-x="279" vert-adv-y="1024"  />

      
      <glyph glyph-name="uni5e" unicode="&#x5e;" d="M103 350Q90 350 80 359.50Q70 369 70 381Q70 393 72 399L186 651L258 651L371 399Q373 392 373 380Q373 368 364 359Q356 350 336 350Q316 350 301 377L222 557L141 377Q129 350 103 350Z"  horiz-adv-x="443" vert-adv-y="1024"  />

      
      <glyph glyph-name="uni5f" unicode="&#x5f;" d="M447 15Q490 15 490-21Q490-57 447-57L28-57Q-15-57-15-21Q-15 15 28 15L447 15Z"  horiz-adv-x="475" vert-adv-y="1024"  />

      
      <glyph glyph-name="uni60" unicode="&#x60;" d="M183 559Q194 544 194 530Q194 516 183 505.50Q172 495 158 495Q144 495 126 514L30 629Q19 641 19 657Q19 673 29.50 683Q40 693 55 693Q70 693 87 674L183 559Z"  horiz-adv-x="212" vert-adv-y="1024"  />

      
      <glyph glyph-name="uni61" unicode="&#x61;" d="M314 305L451 305L451 347Q451 372 442 380.50Q433 389 406 389L265 389Q187 389 160 380.50Q133 372 133 350Q133 305 97 305Q61 305 61 350Q61 413 111.50 437Q162 461 258 461L413 461Q477 461 500 431Q523 401 523 331L523 35Q523-7 487-7Q451-7 451 38L451 50Q391 0 271 0L178 0Q127 0 94 35Q61 70 61 129Q61 231 121.50 268Q182 305 314 305M451 233L314 233Q202 233 167.50 214.50Q133 196 133 124Q133 103 148 87.50Q163 72 178 72L271 72Q390 72 424 129Q451 172 451 229Q451 231 451 233Z"  horiz-adv-x="594" vert-adv-y="1024"  />

      
      <glyph glyph-name="uni62" unicode="&#x62;" d="M147 411Q209 461 328 461L357 461Q491 461 550 424.50Q609 388 609 283L609 178Q609 73 550 36.50Q491 0 357 0L328 0Q209 0 147 50L147 38Q147-7 111-7Q75-7 75 35L75 597Q75 643 109 643Q147 643 147 597L147 411M328 389Q226 389 186.50 346.50Q147 304 147 232L147 228Q147 157 187 114.50Q227 72 328 72L357 72Q468 72 502.50 90.50Q537 109 537 181L537 280Q537 352 502.50 370.50Q468 389 357 389L328 389Z"  horiz-adv-x="670" vert-adv-y="1024"  />

      
      <glyph glyph-name="uni63" unicode="&#x63;" d="M455 0L314 0Q179 0 120 36.50Q61 73 61 178L61 283Q61 388 120 424.50Q179 461 314 461L455 461Q520 461 542.50 427.50Q565 394 565 344Q565 294 529 294Q515 294 504 304Q493 314 493 340Q493 366 484 377.50Q475 389 448 389L314 389Q202 389 167.50 370.50Q133 352 133 280L133 181Q133 109 167.50 90.50Q202 72 314 72L448 72Q475 72 484 83Q493 94 493 120Q493 146 504 156.50Q515 167 529 167Q565 166 565 116Q565 66 542.50 33Q520 0 455 0Z"  horiz-adv-x="624" vert-adv-y="1024"  />

      
      <glyph glyph-name="uni64" unicode="&#x64;" d="M133 181Q133 109 167.50 90.50Q202 72 313 72L342 72Q444 72 483.50 114.50Q523 157 523 229L523 389L305 389Q200 389 166.50 370.50Q133 352 133 280L133 181M61 283Q61 388 119 424.50Q177 461 305 461L523 461L523 598Q523 643 561 643Q595 643 595 598L595 35Q595-7 559-7Q523-7 523 38L523 50Q461 0 342 0L313 0Q179 0 120 36.50Q61 73 61 178L61 283Z"  horiz-adv-x="670" vert-adv-y="1024"  />

      
      <glyph glyph-name="uni65" unicode="&#x65;" d="M595 283L595 235L133 235L133 181Q133 109 167.50 90.50Q202 72 314 72L468 72Q495 72 504 83Q513 94 513 120Q513 146 524 156.50Q535 167 549 167Q585 166 585 116Q585 66 562.50 33Q540 0 475 0L314 0Q179 0 120 36.50Q61 73 61 178L61 283Q61 388 120 424.50Q179 461 314 461L343 461Q477 461 536 424.50Q595 388 595 283M343 389L314 389Q206 389 171 374Q136 359 133 307L523 307Q519 360 483 374.50Q447 389 343 389Z"  horiz-adv-x="651" vert-adv-y="1024"  />

      
      <glyph glyph-name="uni66" unicode="&#x66;" d="M303 564Q218 564 186 546Q154 528 152 461L280 461Q326 461 326 423Q326 389 280 389L152 389L152 36Q152-7 114-7Q80-7 80 36L80 394Q49 400 49 428Q49 456 80 460Q84 564 139 600Q194 636 303 636Q349 636 349 598Q349 564 303 564Z"  horiz-adv-x="345" vert-adv-y="1024"  />

      
      <glyph glyph-name="uni67" unicode="&#x67;" d="M595-77Q595-146 573.50-175.50Q552-205 494-205L171-205Q106-205 83.50-171.50Q61-138 61-88Q61-38 97-38Q133-38 133-81Q133-111 142-122Q151-133 178-133L487-133Q510-133 516.50-125.50Q523-118 523-93L523 0L311 0Q179 0 120 36.50Q61 73 61 178L61 283Q61 388 120 424.50Q179 461 313 461L342 461Q461 461 523 411L523 423Q523 468 559 468Q595 468 595 426L595-77M311 72L523 72L523 233Q523 304 483 346.50Q443 389 342 389L313 389Q202 389 167.50 370.50Q133 352 133 280L133 181Q133 109 167.50 90.50Q202 72 311 72Z"  horiz-adv-x="670" vert-adv-y="1024"  />

      
      <glyph glyph-name="uni68" unicode="&#x68;" d="M328 389Q227 389 187 345.50Q147 302 147 229L147 35Q147-7 111-7Q75-7 75 35L75 597Q75 643 109 643Q147 643 147 597L147 411Q209 461 328 461L357 461Q491 461 550 424.50Q609 388 609 283L609 35Q609-7 573-7Q537-7 537 35L537 280Q537 352 502.50 370.50Q468 389 357 389L328 389Z"  horiz-adv-x="679" vert-adv-y="1024"  />

      
      <glyph glyph-name="uni69" unicode="&#x69;" d="M73 440Q73 463 84 473Q95 483 109 483Q123 483 134 473Q145 463 145 440L145 20Q145-22 108-22Q94-22 83.50-12.50Q73-3 73 20L73 440M149.50 564.50Q149.50 564.50 139.25 557.25Q129 550 109 550Q89 550 68.50 564.50Q48 579 48 601Q48 623 67.50 637.50Q87 652 108 652Q129 652 149.50 637.50Q170 623 170 601Q170 579 149.50 564.50Z"  horiz-adv-x="218" vert-adv-y="1024"  />

      
      <glyph glyph-name="uni6a" unicode="&#x6a;" d="M151.50 564.50Q151.50 564.50 141.25 557.25Q131 550 111 550Q91 550 70.50 564.50Q50 579 50 601Q50 623 69.50 637.50Q89 652 110 652Q131 652 151.50 637.50Q172 623 172 601Q172 579 151.50 564.50M147 0Q147-105 92.50-140Q38-175-76-175Q-122-175-122-139Q-122-103-76-103Q14-103 44.50-85Q75-67 75 0L75 422Q75 468 111 468Q147 468 147 422L147 0Z"  horiz-adv-x="222" vert-adv-y="1024"  />

      
      <glyph glyph-name="uni6b" unicode="&#x6b;" d="M468 57Q482 47 482 31Q482 15 472 4.50Q462-6 447.50-6Q433-6 417 8L166 231L147 212L147 35Q147-7 111-7Q75-7 75 32L75 600Q75 623 86 633Q97 643 111 643Q125 643 136 633Q147 623 147 600L147 282L343 452Q359 466 373.50 466Q388 466 399 456Q410 446 410 430.50Q410 415 394 403L219 263L468 57Z"  horiz-adv-x="496" vert-adv-y="1024"  />

      
      <glyph glyph-name="uni6c" unicode="&#x6c;" d="M208 0L201 0Q138 0 114.50 31Q91 62 91 133L91 598Q91 643 127 643Q163 643 163 598L163 118Q163 91 172 81.50Q181 72 208 72Q253 72 253 36Q253 0 208 0Z"  horiz-adv-x="294" vert-adv-y="1024"  />

      
      <glyph glyph-name="uni6d" unicode="&#x6d;" d="M399 280Q399 351 373.50 370Q348 389 279 389Q210 389 178 348.50Q146 308 146 229L146 35Q146-7 110-7Q74-7 74 35L74 425Q74 468 108 468Q146 468 146 422L146 414Q193 461 265 461Q337 461 382 446Q427 431 450 390Q507 461 604 461Q701 461 750 424Q799 387 799 283L799 35Q799-7 763-7Q727-7 727 35L727 280Q727 352 702.50 370.50Q678 389 610 389Q474 389 473 229L473 35Q473-7 436-7Q399-7 399 35L399 280Z"  horiz-adv-x="869" vert-adv-y="1024"  />

      
      <glyph glyph-name="uni6e" unicode="&#x6e;" d="M327 389Q226 389 186 345.50Q146 302 146 229L146 35Q146-7 110-7Q74-7 74 35L74 425Q74 468 108 468Q146 468 146 422L146 411Q208 461 327 461L356 461Q490 461 549 424.50Q608 388 608 283L608 35Q608-7 572-7Q536-7 536 35L536 280Q536 352 501.50 370.50Q467 389 356 389L327 389Z"  horiz-adv-x="678" vert-adv-y="1024"  />

      
      <glyph glyph-name="uni6f" unicode="&#x6f;" d="M343 0L314 0Q179 0 120 36.50Q61 73 61 178L61 283Q61 388 120 424.50Q179 461 314 461L343 461Q477 461 536 424.50Q595 388 595 283L595 178Q595 73 536 36.50Q477 0 343 0M314 72L343 72Q454 72 488.50 90.50Q523 109 523 181L523 280Q523 352 488.50 370.50Q454 389 343 389L314 389Q202 389 167.50 370.50Q133 352 133 280L133 181Q133 109 167.50 90.50Q202 72 314 72Z"  horiz-adv-x="656" vert-adv-y="1024"  />

      
      <glyph glyph-name="uni70" unicode="&#x70;" d="M537 280Q537 352 502.50 370.50Q468 389 357 389L328 389Q226 389 186.50 346.50Q147 304 147 232L147 72L360 72Q469 72 503 90.50Q537 109 537 181L537 280M609 178Q609 73 550.50 36.50Q492 0 360 0L147 0L147-137Q147-182 109-182Q75-182 75-137L75 426Q75 468 111 468Q147 468 147 423L147 411Q209 461 328 461L357 461Q491 461 550 424.50Q609 388 609 283L609 178Z"  horiz-adv-x="670" vert-adv-y="1024"  />

      
      <glyph glyph-name="uni71" unicode="&#x71;" d="M133 280L133 181Q133 109 167.50 90.50Q202 72 311 72L523 72L523 232Q523 389 343 389L314 389Q202 389 167.50 370.50Q133 352 133 280M61 178L61 283Q61 388 120 424.50Q179 461 314 461L343 461Q463 461 523 411L523 423Q523 468 559 468Q595 468 595 426L595-137Q595-182 561-182Q547-182 535-172Q523-162 523-137L523 0L311 0Q179 0 120 36.50Q61 73 61 178Z"  horiz-adv-x="670" vert-adv-y="1024"  />

      
      <glyph glyph-name="uni72" unicode="&#x72;" d="M297 389Q223 389 184.50 348Q146 307 146 229L146 35Q146-7 110-7Q74-7 74 35L74 425Q74 468 108 468Q146 468 146 422L146 411Q206 461 297 461L343 461Q388 461 388 425Q388 389 343 389L297 389Z"  horiz-adv-x="406" vert-adv-y="1024"  />

      
      <glyph glyph-name="uni73" unicode="&#x73;" d="M170 0Q105 0 82.50 33Q60 66 60 116Q60 166 96 166Q96 166 97 167Q132 167 132 124Q132 94 141 83Q150 72 177 72L445 72Q494 72 494 132Q494 161 480.50 180.50Q467 200 445 200L199 200Q127 200 93.50 237Q60 274 60 335Q60 396 97 428.50Q134 461 229 461L454 461Q519 461 541.50 427.50Q564 394 564 344Q564 294 528 294Q514 294 503 304Q492 314 492 340Q492 366 483 377.50Q474 389 447 389L181 389Q132 389 132 334Q132 304 146 288Q160 272 181 272L428 272Q502 272 534 232Q566 192 566 130Q566 68 528.50 34Q491 0 398 0L170 0Z"  horiz-adv-x="625" vert-adv-y="1024"  />

      
      <glyph glyph-name="uni74" unicode="&#x74;" d="M152 181Q152 110 183 91Q214 72 303 72Q348 72 348 38Q348 0 303 0Q190 0 135 37.50Q80 75 80 178L80 394Q49 399 49 427Q49 455 80 460L80 555Q80 601 114 601Q152 601 152 555L152 461L280 461Q326 461 326 423Q326 389 280 389L152 389L152 181Z"  horiz-adv-x="373" vert-adv-y="1024"  />

      
      <glyph glyph-name="uni75" unicode="&#x75;" d="M351 72Q454 72 493 116.50Q532 161 532 232L532 426Q532 468 568 468Q604 468 604 426L604 36Q604-7 570-7Q532-7 532 39L532 50Q470 0 351 0L322 0Q188 0 129 36.50Q70 73 70 178L70 426Q70 468 106 468Q142 468 142 426L142 181Q142 109 176.50 90.50Q211 72 322 72L351 72Z"  horiz-adv-x="678" vert-adv-y="1024"  />

      
      <glyph glyph-name="uni76" unicode="&#x76;" d="M214 0L34 432Q30 442 30 454Q30 466 40.50 474.50Q51 483 64 483Q88 483 102 455L264 76L432 456Q444 483 470 483Q504 483 504 450Q504 441 500 432L309 0L214 0Z"  horiz-adv-x="533" vert-adv-y="1024"  />

      
      <glyph glyph-name="uni77" unicode="&#x77;" d="M799 424L642 0L547 0L418 354L277 0L184 0L36 424Q32 436 32 442Q32 473 66 473Q93 473 104 445L234 68L378 440Q388 467 418 467Q448 467 458 440L596 68L731 445Q742 473 769 473Q803 473 803 442Q803 436 799 424Z"  horiz-adv-x="834" vert-adv-y="1024"  />

      
      <glyph glyph-name="uni78" unicode="&#x78;" d="M503 50Q515 38 515 22.50Q515 7 503.50-2Q492-11 476-11Q460-11 448 1L280 186L111 1Q99-11 82.50-11Q66-11 54.50-2Q43 7 43 22.50Q43 38 55 50L226 230L55 411Q43 424 43 439Q43 454 54 463Q65 472 82 472Q99 472 111 460L280 275L448 460Q460 472 476.50 472Q493 472 504 463Q515 454 515 439Q515 424 503 411L332 230L503 50Z"  horiz-adv-x="558" vert-adv-y="1024"  />

      
      <glyph glyph-name="uni79" unicode="&#x79;" d="M604-77Q604-146 582.50-175.50Q561-205 503-205L180-205Q115-205 92.50-171.50Q70-138 70-88Q70-38 106-38Q142-38 142-81Q142-111 151-122Q160-133 187-133L496-133Q519-133 525.50-125.50Q532-118 532-93L532 50Q470 0 351 0L322 0Q188 0 129 36.50Q70 73 70 178L70 426Q70 468 106 468Q142 468 142 426L142 181Q142 109 176.50 90.50Q211 72 322 72L351 72Q532 72 532 232L532 426Q532 468 568 468Q604 468 604 426L604-77Z"  horiz-adv-x="679" vert-adv-y="1024"  />

      
      <glyph glyph-name="uni7a" unicode="&#x7a;" d="M162 72L424 72Q454 72 462 87Q470 102 470 144Q470 186 505 186L506 186Q542 186 542 139Q542 65 518.50 32.50Q495 0 432 0L60 0L60 74L422 389L177 389Q149 389 140.50 375.50Q132 362 132 319Q132 276 96 276Q60 276 60 322Q60 397 83 429Q106 461 170 461L521 461L521 384L162 72Z"  horiz-adv-x="594" vert-adv-y="1024"  />

      
      <glyph glyph-name="uni7b" unicode="&#x7b;" d="M40 327Q65 340 89 361.50Q113 383 113 399Q113 415 99 461.50Q85 508 85 541.50Q85 575 93.50 606.50Q102 638 113.50 655Q125 672 147.50 681Q170 690 187.50 691.50Q205 693 235 693L235 621Q180 621 168.50 608Q157 595 157 528Q157 521 171 474Q185 427 185 400Q185 360 123 317Q185 278 185 236Q185 209 171 163Q157 117 157 108Q157 41 168.50 28Q180 15 235 15L235-57Q152-56 128-34Q98-6 91.50 31.50Q85 69 85 98.50Q85 128 99 174.50Q113 221 113 237Q113 253 89.50 273Q66 293 40 307L40 327Z"  horiz-adv-x="287" vert-adv-y="1024"  />

      
      <glyph glyph-name="uni7c" unicode="&#x7c;" d="M153 33Q153-7 117-7Q81-7 81 33L81 602Q81 643 117 643Q153 643 153 602L153 33Z"  horiz-adv-x="235" vert-adv-y="1024"  />

      
      <glyph glyph-name="uni7d" unicode="&#x7d;" d="M247 327L247 307Q221 293 197.50 273Q174 253 174 237Q174 221 188 174.50Q202 128 202 98.50Q202 69 197 40Q192 11 181-6.50Q170-24 158.50-34.50Q147-45 127-50Q99-57 52-57L52 15Q107 15 118.50 28Q130 41 130 108Q130 117 116 163Q102 209 102 236Q102 278 164 317Q102 360 102 400Q102 427 116 474Q130 521 130 528Q130 595 118.50 608Q107 621 52 621L52 693Q82 693 99.50 691.50Q117 690 139.50 681Q162 672 174 655Q202 613 202 528Q202 508 188 461.50Q174 415 174 399Q174 383 198 361.50Q222 340 247 327Z"  horiz-adv-x="287" vert-adv-y="1024"  />

      
      <glyph glyph-name="uni7e" unicode="&#x7e;" d="M171 205Q167 207 165 207Q163 207 160 204L131 178Q120 167 106 167Q92 167 80 176.50Q68 186 68 203Q68 220 86 235L131 273Q144 284 156 284Q168 284 180 279L267 246Q270 244 272 244Q274 244 277 247L307 273Q318 284 332 284Q346 284 358 274Q370 266 369.50 248Q369 230 351 216L307 178Q292 167 281 167Q270 167 257 172L171 205Z"  horiz-adv-x="438" vert-adv-y="1024"  />

      
      <glyph glyph-name="unia1" unicode="&#xa1;" d="M88 282Q88 305 99 315Q110 325 124 325Q138 325 149 315Q160 305 160 282L160-138Q160-180 123-180Q109-180 98.50-170.50Q88-161 88-138L88 282M164 413.50Q164 413.50 153.50 406.25Q143 399 123 399Q103 399 82.50 413.50Q62 428 62 450Q62 472 82.50 486.50Q103 501 124 501Q145 501 165 486.50Q185 472 185 450Q185 428 164 413.50Z"  horiz-adv-x="247" vert-adv-y="1024"  />

      
      <glyph glyph-name="unia2" unicode="&#xa2;" d="M218 108Q133 115 91 158Q49 201 49 298L49 340Q49 436 92 479Q135 522 218 529L218 615Q218 658 254 658Q290 658 290 615L290 530L332 530Q397 530 419 497Q441 464 441 414Q441 364 405 363Q369 363 369 407Q369 438 360 448Q351 458 325 458L290 458L290 180L323 180Q351 180 360 190.50Q369 201 369 231Q369 275 405 275Q441 275 441 225Q441 175 418 141.50Q395 108 330 108L290 108L290 20Q290-22 253-22Q239-22 228.50-12.50Q218-3 218 20L218 108M218 181L218 457Q165 452 143 428Q121 404 121 340L121 298Q121 233 142 209.50Q163 186 218 181Z"  horiz-adv-x="498" vert-adv-y="1024"  />

      
      <glyph glyph-name="unia3" unicode="&#xa3;" d="M104 468Q114 586 173 625Q223 658 298.50 658Q374 658 417.50 624.50Q461 591 461 501Q461 478 449.50 468Q438 458 424 458Q389 458 389 501Q389 555 368 570.50Q347 586 292 586Q237 586 210 563.50Q183 541 176 468L168 379L191 379Q214 379 223.50 367.50Q233 356 233 342Q233 328 223.50 317.50Q214 307 191 307L163 307L139 57L420 57Q463 57 463 21Q463-15 420-15L97-15Q65-15 65 25Q65 31 66 34L104 468Z"  horiz-adv-x="520" vert-adv-y="1024"  />

      
      <glyph glyph-name="unia4" unicode="&#xa4;" d="M260.50 325Q260.50 325 241.25 325Q222 325 194 297Q166 269 166 230.50Q166 192 194 164Q222 136 260.50 136Q299 136 327 164Q355 192 355 230.50Q355 269 327 297Q299 325 260.50 325M85 354Q71 370 71 384Q71 398 82.50 408.50Q94 419 107 419Q120 419 136 405L177 364Q216 389 261 389Q306 389 344 365L384 405Q399 419 413 419Q427 419 438.50 409.50Q450 400 450 384Q450 368 432 352L395 314Q419 276 419 230.50Q419 185 395 147L434 108Q450 91 450 77.50Q450 64 439 52.50Q428 41 413.50 41Q399 41 382 59L344 96Q306 72 261 72Q216 72 177 97L138 59Q122 41 107 41Q92 41 81.50 50.50Q71 60 71 76Q71 92 85 107L126 148Q102 182 102 230.50Q102 279 126 313L85 354Z"  horiz-adv-x="521" vert-adv-y="1024"  />

      
      <glyph glyph-name="unia5" unicode="&#xa5;" d="M32 625Q32 625 32 631.50Q32 638 43 648Q54 658 69 658Q84 658 100 636L280 381L459 636Q473 658 489 658Q505 658 516.50 648Q528 638 528 624Q528 610 518 595L316 304L316 287L400 287Q423 287 433 275.50Q443 264 443 250.50Q443 237 433 226Q423 215 400 215L316 215L316 198L400 198Q423 198 433 186.50Q443 175 443 161Q443 126 400 126L316 126L316 20Q316-22 280-22Q266-22 255.50-12.50Q245-3 245 20L245 126L155 126Q113 126 113 162Q113 198 155 198L245 198L245 215L155 215Q132 215 122.50 226.50Q113 238 113 252Q113 287 155 287L245 287L245 304L42 595Q32 612 32 625Z"  horiz-adv-x="560" vert-adv-y="1024"  />

      
      <glyph glyph-name="unia6" unicode="&#xa6;" d="M80 235Q80 258 91.50 268Q103 278 118 278Q133 278 142 266Q151 254 151 235L151 22Q151-22 114-22Q101-22 90.50-12Q80-2 80 22L80 235M151 401Q151 378 139.50 368Q128 358 113 358Q98 358 89 370Q80 382 80 401L80 616Q80 658 116 658Q130 658 140.50 648.50Q151 639 151 616L151 401Z"  horiz-adv-x="231" vert-adv-y="1024"  />

      
      <glyph glyph-name="unia7" unicode="&#xa7;" d="M349-15L165-15Q111-15 92.50 12.50Q74 40 74 86Q74 104 84 115Q94 126 110 126Q126 126 136 115Q146 104 146 85Q146 66 150.50 61.50Q155 57 176 57L360 57Q379 57 385.50 65.50Q392 74 392 99Q392 155 361 159L186 184Q74 198 74 306Q74 371 111 400Q74 432 74 495Q74 609 189 609L374 609Q427 609 445.50 581.50Q464 554 464 511Q464 468 428 468Q412 468 402 479Q392 490 392 509Q392 528 387.50 532.50Q383 537 362 537L178 537Q159 537 152.50 528Q146 519 146 495Q146 439 177 435L352 410Q464 396 464 289Q464 221 427 194Q464 162 464 99Q464-15 349-15M227.50 358Q227.50 358 198.25 358Q169 358 157.50 350Q146 342 146 307.50Q146 273 193.50 254.50Q241 236 305 236Q369 236 380.50 244Q392 252 392 288.50Q392 325 339 341.50Q286 358 227.50 358Z"  horiz-adv-x="539" vert-adv-y="1024"  />

      
      <glyph glyph-name="unia8" unicode="&#xa8;" d="M172 630Q172 630 172 619Q172 608 151.50 593.50Q131 579 110 579Q89 579 69.50 593.50Q50 608 50 630Q50 652 70.50 666.50Q91 681 111 681Q131 681 151.50 666.50Q172 652 172 630M342 630Q342 630 342 619Q342 608 321.50 593.50Q301 579 280 579Q259 579 239.50 593.50Q220 608 220 630Q220 652 240.50 666.50Q261 681 281 681Q301 681 321.50 666.50Q342 652 342 630Z"  horiz-adv-x="392" vert-adv-y="1024"  />

      
      <glyph glyph-name="unia9" unicode="&#xa9;" d="M301 144L330 144Q417 144 448.50 165Q480 186 480 262L480 373Q480 449 448.50 470Q417 491 330 491L301 491Q212 491 181 470Q150 449 150 373L150 262Q150 186 181 165Q212 144 301 144M78 373Q78 485 133 524Q188 563 301 563L330 563Q442 563 497 524Q552 485 552 373L552 262Q552 150 497 111Q442 72 330 72L301 72Q188 72 133 111Q78 150 78 262L78 373M425 369.50Q425 369.50 425 360.25Q425 351 415.50 343.50Q406 336 393 336Q368 336 366 359L365 369Q364 370 358 370L310 370Q289 370 277 361Q265 352 265 337L265 298Q265 283 277 274Q289 265 310 265L358 265Q365 265 365 266Q368 288 376 293.50Q384 299 395 299Q406 299 415.50 292Q425 285 425 266Q425 247 410.50 225.50Q396 204 360 204L310 204Q266 204 235.50 228.50Q205 253 205 298L205 337Q205 382 235.50 406.50Q266 431 310 431L360 431Q394 431 409.50 409.50Q425 388 425 369.50Z"  horiz-adv-x="630" vert-adv-y="1024"  />

      
      <glyph glyph-name="uniaa" unicode="&#xaa;" d="M245 404Q245 411 243.50 413Q242 415 235 415L156 415Q149 415 147 414Q147 403 137.50 396Q128 389 116.50 389Q105 389 95.50 396.50Q86 404 86 416Q86 445 104 460.50Q122 476 153 476L238 476Q272 476 289 454.50Q306 433 306 397L306 258Q306 244 296 237.50Q286 231 271 231Q256 231 247 248Q227 234 193 234L156 234Q125 234 105.50 258Q86 282 86 311Q86 361 115 380.50Q144 400 198 400L245 400L245 404M293 214Q310 214 320.50 204.50Q331 195 331 180.50Q331 166 320.50 157.50Q310 149 293 149L97 149Q78 149 69.50 159.50Q61 170 61 182.50Q61 195 71 204.50Q81 214 97 214L293 214M198 339Q165 339 156 333.50Q147 328 147 312Q147 296 156 295L193 295Q237 295 244 339L198 339Z"  horiz-adv-x="392" vert-adv-y="1024"  />

      
      <glyph glyph-name="uniab" unicode="&#xab;" d="M237 535Q247 545 263.50 545Q280 545 288 536.50Q296 528 296 511.50Q296 495 280 477L131 333L280 188Q296 172 296 154Q296 120 266 120Q246 120 237 129L55 298Q33 316 33 332Q33 348 55 366L237 535M391 535Q401 545 417.50 545Q434 545 442 536.50Q450 528 450 511.50Q450 495 434 477L285 333L434 188Q450 172 450 154Q450 120 420 120Q400 120 391 129L209 298Q187 316 187 332Q187 348 209 366L391 535Z"  horiz-adv-x="516" vert-adv-y="1024"  />

      
      <glyph glyph-name="uniac" unicode="&#xac;" d="M389 141L389 194L120 194Q79 194 79 231Q79 244 88.50 255.50Q98 267 120 267L418 267Q462 267 462 225L462 141Q462 98 424 98Q408 98 398.50 110Q389 122 389 141Z"  horiz-adv-x="543" vert-adv-y="1024"  />

      
      <glyph glyph-name="uniad" unicode="&#xad;" d="M359 267Q403 267 403 229Q403 213 390.50 203.50Q378 194 359 194L114 194Q73 194 73 231Q73 244 82.50 255.50Q92 267 114 267L359 267Z"  horiz-adv-x="476" vert-adv-y="1024"  />

      
      <glyph glyph-name="uniae" unicode="&#xae;" d="M301 144L330 144Q417 144 448.50 165Q480 186 480 262L480 373Q480 449 448.50 470Q417 491 330 491L301 491Q212 491 181 470Q150 449 150 373L150 262Q150 186 181 165Q212 144 301 144M78 373Q78 485 133 524Q188 563 301 563L330 563Q442 563 497 524Q552 485 552 373L552 262Q552 150 497 111Q442 72 330 72L301 72Q188 72 133 111Q78 150 78 262L78 373M407 193Q380 193 375 214Q372 225 356.50 250Q341 275 320 288L262 288L262 217Q262 207 253.50 200Q245 193 232 193Q219 193 210 200Q201 207 201 217L201 411Q201 423 211 429.50Q221 436 230 436L314 436Q433 436 433 361Q433 318 392 297Q436 246 436 217Q436 207 427 200Q418 193 407 193M314 349Q362 349 367 352.50Q372 356 372 361Q372 370 361.50 372.50Q351 375 314 375L262 375L262 349L314 349Z"  horiz-adv-x="630" vert-adv-y="1024"  />

      
      <glyph glyph-name="uniaf" unicode="&#xaf;" d="M336 736Q380 736 380 698Q380 682 367.50 672.50Q355 663 336 663L91 663Q50 663 50 700Q50 713 59.50 724.50Q69 736 91 736L336 736Z"  horiz-adv-x="429" vert-adv-y="1024"  />

      
      <glyph glyph-name="unib0" unicode="&#xb0;" d="M212.50 622Q212.50 622 194.75 622Q177 622 151 596Q125 570 125 534.50Q125 499 151 473Q177 447 212.50 447Q248 447 274 473Q300 499 300 534.50Q300 570 274 596Q248 622 212.50 622M371 534.50Q371 534.50 371 501.75Q371 469 324.50 422.50Q278 376 212.50 376Q147 376 100.50 422.50Q54 469 54 534.50Q54 600 100.50 646.50Q147 693 212.50 693Q278 693 324.50 646.50Q371 600 371 534.50Z"  horiz-adv-x="424" vert-adv-y="1024"  />

      
      <glyph glyph-name="unib1" unicode="&#xb1;" d="M103-10Q87-10 74.50-1Q62 8 62 28Q62 63 103 63L481 63Q525 63 525 25Q525 9 512.50-0.50Q500-10 481-10L103-10M257 255L103 255Q83 255 72.50 266Q62 277 62 293Q62 328 103 328L257 328L257 440Q257 483 293 483Q329 483 329 440L329 328L481 328Q501 328 513 318Q525 308 525 292Q525 276 512.50 265.50Q500 255 481 255L329 255L329 143Q329 101 293 101Q257 101 257 143L257 255Z"  horiz-adv-x="587" vert-adv-y="1024"  />

      
      <glyph glyph-name="unib2" unicode="&#xb2;" d="M268 446L50 446L50 483Q50 520 70 550Q90 580 118 598Q146 616 174 630Q202 644 222 657Q242 670 242 682Q242 707 229.50 713Q217 719 170 719L144 719Q116 719 116 704Q116 689 106.50 679.50Q97 670 84.50 670Q72 670 61 679Q50 688 50 703Q50 738 77.50 760Q105 782 140 782L170 782Q236 782 270.50 763Q305 744 305 682Q305 681 305 680Q305 628 222 586Q133 543 120 509L268 509Q281 508 293 499Q305 490 305 478Q305 466 293 456Q281 446 268 446Z"  horiz-adv-x="355" vert-adv-y="1024"  />

      
      <glyph glyph-name="unib3" unicode="&#xb3;" d="M218 689.50Q218 689.50 218 698.75Q218 708 205.50 713.50Q193 719 168 719Q144 719 130 716Q104 710 103 701Q103 688 93.50 680.50Q84 673 69.50 673Q55 673 46 681.50Q37 690 37 703Q37 732 69 757Q101 782 149 782Q226 782 252 760Q280 736 280 684Q280 644 233 618Q280 585 280 540Q280 476 238 460Q205 446 153 446Q101 446 69 471Q37 496 37 525Q37 538 46 546.50Q55 555 69.50 555Q84 555 92 547Q102 537 103 525Q111 509 159 509Q167 509 173 509Q185 509 192 510Q218 514 218 541Q218 557 192 571.50Q166 586 145 586Q124 586 116 596.50Q108 607 108 619Q108 631 117.50 640Q127 649 146.50 649Q166 649 192 660Q218 671 218 689.50Z"  horiz-adv-x="325" vert-adv-y="1024"  />

      
      <glyph glyph-name="unib4" unicode="&#xb4;" d="M87 514Q70 495 56 495Q42 495 30.50 505Q19 515 19 529.50Q19 544 30 559L126 674Q143 693 158 693Q173 693 183.50 683Q194 673 194 657Q194 641 183 629L87 514Z"  horiz-adv-x="212" vert-adv-y="1024"  />

      
      <glyph glyph-name="unib5" unicode="&#xb5;" d="M449 438Q449 483 485 483Q521 483 521 438L521 24Q521-22 485-22Q449-22 449 24L449 35Q389-15 298-15Q207-15 147 35L147-159Q147-205 109-205Q75-205 75-159L75 438Q75 483 111 483Q147 483 147 438L147 228Q147 145 185.50 101Q224 57 298 57Q372 57 410.50 101Q449 145 449 228L449 438Z"  horiz-adv-x="594" vert-adv-y="1024"  />

      
      <glyph glyph-name="unib6" unicode="&#xb6;" d="M345 579L314 579L314 20Q314-3 303.50-12.50Q293-22 279-22Q242-22 242 20L242 322L215 322Q131 322 83 364.50Q35 407 35 493Q35 579 91.50 615Q148 651 257 651L417 651L417 20Q417-3 406.50-12.50Q396-22 382-22Q345-22 345 20L345 579Z"  horiz-adv-x="506" vert-adv-y="1024"  />

      
      <glyph glyph-name="unib7" unicode="&#xb7;" d="M187 387Q187 387 187 376Q187 365 166.50 350.50Q146 336 125 336Q104 336 84.50 350.50Q65 365 65 387Q65 409 85.50 423.50Q106 438 126 438Q146 438 166.50 423.50Q187 409 187 387Z"  horiz-adv-x="252" vert-adv-y="1024"  />

      
      <glyph glyph-name="unib8" unicode="&#xb8;" d="M153 5Q154-16 188-36Q200-44 211-60.50Q222-77 222-99Q222-142 190-166Q158-190 116-190Q73-190 50-171Q27-152 27-134Q27-116 35-109Q43-102 54-102Q65-102 87-112.50Q109-123 119.50-123Q130-123 137-121Q144-120 146-114Q150-106 150-98Q150-95 133-83.50Q116-72 98.50-49Q81-26 81 5L81 10L153 10L153 5Z"  horiz-adv-x="242" vert-adv-y="1024"  />

      
      <glyph glyph-name="unib9" unicode="&#xb9;" d="M59 679Q43 663 28 663Q13 663 5 672Q-3 682-3 694Q-3 706 12 721L61 772Q76 785 88 785Q100 785 111.50 776.50Q123 768 123 751L123 480Q123 443 91 443Q59 443 59 480L59 679Z"  horiz-adv-x="182" vert-adv-y="1024"  />

      
      <glyph glyph-name="uniba" unicode="&#xba;" d="M191 295L200 295Q231 295 238 300.50Q245 306 245 333L245 377Q245 404 238 409.50Q231 415 200 415L191 415Q161 415 154 409.50Q147 404 147 377L147 333Q147 306 154 300.50Q161 295 191 295M86 377Q86 434 110.50 455Q135 476 191 476L200 476Q257 476 281.50 455Q306 434 306 377L306 333Q306 276 281.50 255Q257 234 200 234L191 234Q135 234 110.50 255Q86 276 86 333L86 377M293 214Q310 214 320 204Q330 194 330.50 180Q331 166 320.50 157.50Q310 149 293 149L97 149Q78 149 69.50 159.50Q61 170 61 182Q61 194 71 204Q81 214 97 214L293 214Z"  horiz-adv-x="392" vert-adv-y="1024"  />

      
      <glyph glyph-name="unibb" unicode="&#xbb;" d="M66 511.50Q66 511.50 66 519.75Q66 528 74 536.50Q82 545 98.50 545Q115 545 125 535L307 366Q329 348 329 332Q329 316 307 298L125 129Q116 120 99 120Q66 120 66 150Q66 172 82 188L231 333L82 477Q66 495 66 511.50M220 511.50Q220 511.50 220 519.75Q220 528 228 536.50Q236 545 252.50 545Q269 545 279 535L461 366Q483 348 483 332Q483 316 461 298L279 129Q270 120 253 120Q220 120 220 150Q220 172 236 188L385 333L236 477Q220 495 220 511.50Z"  horiz-adv-x="516" vert-adv-y="1024"  />

      
      <glyph glyph-name="unibc" unicode="&#xbc;" d="M489 18Q489-19 457-19Q425-19 425 18L425 85L293 85L293 151L419 320L489 320L489 148L523 148Q559 148 559 116Q559 85 525 85Q524 85 523 85L489 85L489 18M425 148L425 226L367 148L425 148M150 545Q134 529 119 529Q104 529 96 538Q88 548 88 560Q88 572 103 587L152 638Q167 651 179 651Q191 651 202.50 642.50Q214 634 214 617L214 346Q214 309 182 309Q150 309 150 346L150 545M103 77Q88 63 74 63Q60 63 51 70Q42 77 42 93Q42 109 56 124L467 535Q482 549 496 549Q510 549 519 542Q528 535 528 519Q528 503 514 488L103 77Z"  horiz-adv-x="602" vert-adv-y="1024"  />

      
      <glyph glyph-name="unibd" unicode="&#xbd;" d="M541-16L323-16L323 21Q323 58 343 88Q363 118 391 136Q419 154 447 168Q475 182 495 195Q515 208 515 220Q515 245 502.50 251Q490 257 443 257L417 257Q389 257 389 242Q389 227 379.50 217.50Q370 208 357.50 208Q345 208 334 217Q323 226 323 241Q323 276 350.50 298Q378 320 413 320L443 320Q509 320 543.50 301Q578 282 578 220Q578 219 578 218Q578 166 495 124Q406 81 393 47L541 47Q554 46 566 37Q578 28 578 16Q578 4 566-6Q554-16 541-16M158 545Q142 529 127 529Q112 529 104 538Q96 548 96 560Q96 572 111 587L160 638Q175 651 187 651Q199 651 210.50 642.50Q222 634 222 617L222 346Q222 309 190 309Q158 309 158 346L158 545M100 77Q85 63 71 63Q57 63 48 70Q39 77 39 93Q39 109 53 124L464 535Q479 549 493 549Q507 549 516 542Q525 535 525 519Q525 503 511 488L100 77Z"  horiz-adv-x="631" vert-adv-y="1024"  />

      
      <glyph glyph-name="unibe" unicode="&#xbe;" d="M535 18Q535-19 503-19Q471-19 471 18L471 85L339 85L339 151L465 320L535 320L535 148L569 148Q605 148 605 116Q605 85 571 85Q570 85 569 85L535 85L535 18M471 148L471 226L413 148L471 148M243 558.50Q243 558.50 243 567.75Q243 577 230.50 582.50Q218 588 193 588Q169 588 155 585Q129 579 128 570Q128 557 118.50 549.50Q109 542 94.50 542Q80 542 71 550.50Q62 559 62 572Q62 601 94 626Q126 651 174 651Q251 651 277 629Q305 605 305 553Q305 513 258 487Q305 454 305 409Q305 345 263 329Q230 315 178 315Q126 315 94 340Q62 365 62 394Q62 407 71 415.50Q80 424 94.50 424Q109 424 117 416Q127 406 128 394Q136 378 184 378Q192 378 198 378Q210 378 217 379Q243 383 243 410Q243 426 217 440.50Q191 455 170 455Q149 455 141 465.50Q133 476 133 488Q133 500 142.50 509Q152 518 171.50 518Q191 518 217 529Q243 540 243 558.50M154 77Q139 63 125 63Q111 63 102 70Q93 77 93 93Q93 109 107 124L518 535Q533 549 547 549Q561 549 570 542Q579 535 579 519Q579 503 565 488L154 77Z"  horiz-adv-x="650" vert-adv-y="1024"  />

      
      <glyph glyph-name="unibf" unicode="&#xbf;" d="M228 449.50Q228 449.50 228 460.75Q228 472 248 486.50Q268 501 289 501Q310 501 330.50 486.50Q351 472 351 450Q351 428 330.50 413.50Q310 399 290 399Q270 399 249 413Q228 427 228 449.50M325 285L325 133L160 88Q138 82 123 56Q108 30 108-6.50Q108-43 129-75.50Q150-108 195-108L289-108Q379-108 409-88Q439-68 439 8Q439 27 449 39Q459 51 474 51Q489 51 500.50 41Q512 31 512 8Q512-108 450-146Q418-166 381-173Q344-180 289-180L213-180Q120-180 78-128.50Q36-77 36-6Q36 65 67 104.50Q98 144 172 165L253 188L253 285Q253 328 289 328Q325 328 325 285Z"  horiz-adv-x="545" vert-adv-y="1024"  />

      
      <glyph glyph-name="unic0" unicode="&#xc0;" d="M325 733Q339 718 339 704Q339 690 329 679Q318 668 302 668Q286 668 271 685L202 753Q187 770 187 784Q187 798 198.50 808.50Q210 819 224 819Q238 819 255 803L325 733M346 636L583 37Q586 28 586 14Q586 0 573.50-8Q561-16 550-16Q524-16 513 12L444 189L166 189L97 12Q85-16 60-16Q49-16 36.50-8Q24 0 24 14Q24 28 27 37L264 636L346 636M195 261L415 261L304 532L195 261Z"  horiz-adv-x="610" vert-adv-y="1024"  />

      
      <glyph glyph-name="unic1" unicode="&#xc1;" d="M335 803Q352 819 366 819Q380 819 391.50 808Q403 797 403 783.50Q403 770 388 753L319 685Q304 668 287.50 668Q271 668 261 679Q251 690 251 703.50Q251 717 265 733L335 803M346 636L583 37Q586 28 586 14Q586 0 573.50-8Q561-16 550-16Q524-16 513 12L444 189L166 189L97 12Q85-16 60-16Q49-16 36.50-8Q24 0 24 14Q24 28 27 37L264 636L346 636M195 261L415 261L304 532L195 261Z"  horiz-adv-x="610" vert-adv-y="1024"  />

      
      <glyph glyph-name="unic2" unicode="&#xc2;" d="M162 703L271 819L338 819L449 703Q457 693 457 679Q457 651 424 651Q409 651 405 655Q401 659 389 669L305 738L222 669Q220 668 216 664Q212 659 209 657Q201 651 187 651Q154 651 154 679Q154 693 162 703M346 636L583 37Q586 28 586 14Q586 0 573.50-8Q561-16 550-16Q524-16 513 12L444 189L166 189L97 12Q85-16 60-16Q49-16 36.50-8Q24 0 24 14Q24 28 27 37L264 636L346 636M195 261L415 261L304 532L195 261Z"  horiz-adv-x="610" vert-adv-y="1024"  />

      
      <glyph glyph-name="unic3" unicode="&#xc3;" d="M346 636L583 37Q586 28 586 14Q586 0 573.50-8Q561-16 550-16Q524-16 513 12L444 189L166 189L97 12Q85-16 60-16Q49-16 36.50-8Q24 0 24 14Q24 28 27 37L264 636L346 636M195 261L415 261L304 532L195 261Z"  horiz-adv-x="610" vert-adv-y="1024"  />

      
      <glyph glyph-name="unic4" unicode="&#xc4;" d="M281 757Q281 757 281 746Q281 735 260.50 720.50Q240 706 219 706Q198 706 178.50 720.50Q159 735 159 757Q159 779 179.50 793.50Q200 808 220 808Q240 808 260.50 793.50Q281 779 281 757M451 757Q451 757 451 746Q451 735 430.50 720.50Q410 706 389 706Q368 706 348.50 720.50Q329 735 329 757Q329 779 349.50 793.50Q370 808 390 808Q410 808 430.50 793.50Q451 779 451 757M346 636L583 37Q586 28 586 14Q586 0 573.50-8Q561-16 550-16Q524-16 513 12L444 189L166 189L97 12Q85-16 60-16Q49-16 36.50-8Q24 0 24 14Q24 28 27 37L264 636L346 636M195 261L415 261L304 532L195 261Z"  horiz-adv-x="610" vert-adv-y="1024"  />

      
      <glyph glyph-name="unic5" unicode="&#xc5;" d="M282 755.50Q282 755.50 277 750.75Q272 746 272 732Q272 718 282 708.50Q292 699 305 699Q318 699 328 708.50Q338 718 338 732Q338 746 328 755.50Q318 765 305 765Q292 765 282 755.50M243.50 793.50Q243.50 793.50 256.25 806.25Q269 819 305 819Q341 819 366.50 793.50Q392 768 392 732Q392 696 366.50 670.50Q341 645 305 645Q269 645 243.50 670.50Q218 696 218 732Q218 768 243.50 793.50M346 636L583 37Q586 28 586 14Q586 0 573.50-8Q561-16 550-16Q524-16 513 12L444 189L166 189L97 12Q85-16 60-16Q49-16 36.50-8Q24 0 24 14Q24 28 27 37L264 636L346 636M195 261L415 261L304 532L195 261Z"  horiz-adv-x="610" vert-adv-y="1024"  />

      
      <glyph glyph-name="unic6" unicode="&#xc6;" d="M482 317L482 72L813 72Q857 72 857 34Q857 0 813 0L442 0Q408 0 408 44L408 184L201 184L81 11Q63-16 40-16Q31-16 20.50-9Q10-2 10 12Q10 26 20 39L414 627Q424 641 442 641L813 641Q857 641 857 603Q857 569 813 569L482 569L482 389L692 389Q740 389 740 351Q740 317 692 317L482 317M408 494L249 256L408 256L408 494Z"  horiz-adv-x="904" vert-adv-y="1024"  />

      
      <glyph glyph-name="unic7" unicode="&#xc7;" d="M297 0Q178 2 124.50 41Q71 80 71 184L71 452Q71 561 128 598.50Q185 636 306 636L465 636Q530 636 552.50 602.50Q575 569 575 519Q575 469 539 469Q525 469 514 479Q503 489 503 515.50Q503 542 494 553Q485 564 458 564L306 564Q209 564 176 544Q143 524 143 450L143 186Q143 111 178 91.50Q213 72 324 72L458 72Q485 72 494 83Q503 94 503 120.50Q503 147 514 157Q525 167 539 167Q575 167 575 116.50Q575 66 552.50 33Q530 0 465 0L369 0Q371-13 388.50-25Q406-37 422-54.50Q438-72 438-99Q438-142 406-166Q374-190 332-190Q289-190 266-171Q243-152 243-134Q243-116 251-109Q259-102 270-102Q281-102 303-112.50Q325-123 335.50-123Q346-123 353-121Q360-120 362-114Q366-106 366-98Q366-94 349.50-83.50Q333-73 315.50-51Q298-29 297 0Z"  horiz-adv-x="631" vert-adv-y="1024"  />

      
      <glyph glyph-name="unic8" unicode="&#xc8;" d="M352 733Q366 718 366 704Q366 690 356 679Q345 668 329 668Q313 668 298 685L229 753Q214 770 214 784Q214 798 225.50 808.50Q237 819 251 819Q265 819 282 803L352 733M156 322L156 72L544 72Q588 72 588 34Q588 0 544 0L118 0Q84 0 84 44L84 592Q84 636 118 636L544 636Q588 636 588 598Q588 564 544 564L156 564L156 394L421 394Q471 394 471 356Q471 322 421 322L156 322Z"  horiz-adv-x="636" vert-adv-y="1024"  />

      
      <glyph glyph-name="unic9" unicode="&#xc9;" d="M349 803Q366 819 380 819Q394 819 405.50 808Q417 797 417 783.50Q417 770 402 753L333 685Q318 668 301.50 668Q285 668 275 679Q265 690 265 703.50Q265 717 279 733L349 803M156 322L156 72L544 72Q588 72 588 34Q588 0 544 0L118 0Q84 0 84 44L84 592Q84 636 118 636L544 636Q588 636 588 598Q588 564 544 564L156 564L156 394L421 394Q471 394 471 356Q471 322 421 322L156 322Z"  horiz-adv-x="636" vert-adv-y="1024"  />

      
      <glyph glyph-name="unica" unicode="&#xca;" d="M188 703L297 819L364 819L475 703Q483 693 483 679Q483 651 450 651Q435 651 431 655Q427 659 415 669L331 738L248 669Q246 668 242 664Q238 659 235 657Q227 651 213 651Q180 651 180 679Q180 693 188 703M156 322L156 72L544 72Q588 72 588 34Q588 0 544 0L118 0Q84 0 84 44L84 592Q84 636 118 636L544 636Q588 636 588 598Q588 564 544 564L156 564L156 394L421 394Q471 394 471 356Q471 322 421 322L156 322Z"  horiz-adv-x="636" vert-adv-y="1024"  />

      
      <glyph glyph-name="unicb" unicode="&#xcb;" d="M307 757Q307 757 307 746Q307 735 286.50 720.50Q266 706 245 706Q224 706 204.50 720.50Q185 735 185 757Q185 779 205.50 793.50Q226 808 246 808Q266 808 286.50 793.50Q307 779 307 757M477 757Q477 757 477 746Q477 735 456.50 720.50Q436 706 415 706Q394 706 374.50 720.50Q355 735 355 757Q355 779 375.50 793.50Q396 808 416 808Q436 808 456.50 793.50Q477 779 477 757M156 322L156 72L544 72Q588 72 588 34Q588 0 544 0L118 0Q84 0 84 44L84 592Q84 636 118 636L544 636Q588 636 588 598Q588 564 544 564L156 564L156 394L421 394Q471 394 471 356Q471 322 421 322L156 322Z"  horiz-adv-x="636" vert-adv-y="1024"  />

      
      <glyph glyph-name="unicc" unicode="&#xcc;" d="M142 733Q156 718 156 704Q156 690 146 679Q135 668 119 668Q103 668 88 685L19 753Q4 770 4 784Q4 798 15.50 808.50Q27 819 41 819Q55 819 72 803L142 733M156 33Q156-7 120-7Q84-7 84 33L84 602Q84 643 120 643Q156 643 156 602L156 33Z"  horiz-adv-x="240" vert-adv-y="1024"  />

      
      <glyph glyph-name="unicd" unicode="&#xcd;" d="M169 803Q186 819 200 819Q214 819 225.50 808Q237 797 237 783.50Q237 770 222 753L153 685Q138 668 121.50 668Q105 668 95 679Q85 690 85 703.50Q85 717 99 733L169 803M156 33Q156-7 120-7Q84-7 84 33L84 602Q84 643 120 643Q156 643 156 602L156 33Z"  horiz-adv-x="240" vert-adv-y="1024"  />

      
      <glyph glyph-name="unice" unicode="&#xce;" d="M-22 703L87 819L154 819L265 703Q273 693 273 679Q273 651 240 651Q225 651 221 655Q217 659 205 669L121 738L38 669Q36 668 32 664Q28 659 25 657Q17 651 3 651Q-30 651-30 679Q-30 693-22 703M156 33Q156-7 120-7Q84-7 84 33L84 602Q84 643 120 643Q156 643 156 602L156 33Z"  horiz-adv-x="240" vert-adv-y="1024"  />

      
      <glyph glyph-name="unicf" unicode="&#xcf;" d="M96 757Q96 757 96 746Q96 735 75.50 720.50Q55 706 34 706Q13 706-6.50 720.50Q-26 735-26 757Q-26 779-5.50 793.50Q15 808 35 808Q55 808 75.50 793.50Q96 779 96 757M266 757Q266 757 266 746Q266 735 245.50 720.50Q225 706 204 706Q183 706 163.50 720.50Q144 735 144 757Q144 779 164.50 793.50Q185 808 205 808Q225 808 245.50 793.50Q266 779 266 757M156 33Q156-7 120-7Q84-7 84 33L84 602Q84 643 120 643Q156 643 156 602L156 33Z"  horiz-adv-x="240" vert-adv-y="1024"  />

      
      <glyph glyph-name="unid0" unicode="&#xd0;" d="M516 186L516 450Q516 524 483.50 544Q451 564 354 564L156 564L156 361L240 361Q284 361 284 324Q284 308 272 298Q260 288 240 288L156 288L156 72L336 72Q447 72 481.50 91.50Q516 111 516 186M588 452L588 184Q588 75 529 37.50Q470 0 336 0L118 0Q84 0 84 44L84 288Q42 288 42 326Q42 340 51.50 350.50Q61 361 84 361L84 592Q84 636 118 636L354 636Q475 636 531.50 598Q588 560 588 452Z"  horiz-adv-x="659" vert-adv-y="1024"  />

      
      <glyph glyph-name="unid1" unicode="&#xd1;" d="M553-7Q530-7 525 0L156 517L156 32Q156-7 120-7Q84-7 84 35L84 600Q84 643 118 643Q140 643 156 620L516 118L516 597Q516 643 552 643Q588 643 588 600L588 35Q588-7 553-7Z"  horiz-adv-x="672" vert-adv-y="1024"  />

      
      <glyph glyph-name="unid2" unicode="&#xd2;" d="M337 733Q351 718 351 704Q351 690 341 679Q330 668 314 668Q298 668 283 685L214 753Q199 770 199 784Q199 798 210.50 808.50Q222 819 236 819Q250 819 267 803L337 733M568 230Q568 119 498.50 55Q429-9 315.50-9Q202-9 133 54.50Q64 118 64 230L64 406Q64 518 133 581.50Q202 645 315.50 645Q429 645 498.50 581Q568 517 568 406L568 230M450.50 528.50Q450.50 528.50 427.75 550.75Q405 573 316 573Q227 573 181.50 528.50Q136 484 136 403L136 233Q136 151 182 107Q228 63 316 63Q404 63 450 107Q496 151 496 233L496 403Q496 484 450.50 528.50Z"  horiz-adv-x="632" vert-adv-y="1024"  />

      
      <glyph glyph-name="unid3" unicode="&#xd3;" d="M364 803Q381 819 395 819Q409 819 420.50 808Q432 797 432 783.50Q432 770 417 753L348 685Q333 668 316.50 668Q300 668 290 679Q280 690 280 703.50Q280 717 294 733L364 803M568 230Q568 119 498.50 55Q429-9 315.50-9Q202-9 133 54.50Q64 118 64 230L64 406Q64 518 133 581.50Q202 645 315.50 645Q429 645 498.50 581Q568 517 568 406L568 230M450.50 528.50Q450.50 528.50 427.75 550.75Q405 573 316 573Q227 573 181.50 528.50Q136 484 136 403L136 233Q136 151 182 107Q228 63 316 63Q404 63 450 107Q496 151 496 233L496 403Q496 484 450.50 528.50Z"  horiz-adv-x="632" vert-adv-y="1024"  />

      
      <glyph glyph-name="unid4" unicode="&#xd4;" d="M173 703L282 819L349 819L460 703Q468 693 468 679Q468 651 435 651Q420 651 416 655Q412 659 400 669L316 738L233 669Q231 668 227 664Q223 659 220 657Q212 651 198 651Q165 651 165 679Q165 693 173 703M568 230Q568 119 498.50 55Q429-9 315.50-9Q202-9 133 54.50Q64 118 64 230L64 406Q64 518 133 581.50Q202 645 315.50 645Q429 645 498.50 581Q568 517 568 406L568 230M450.50 528.50Q450.50 528.50 427.75 550.75Q405 573 316 573Q227 573 181.50 528.50Q136 484 136 403L136 233Q136 151 182 107Q228 63 316 63Q404 63 450 107Q496 151 496 233L496 403Q496 484 450.50 528.50Z"  horiz-adv-x="632" vert-adv-y="1024"  />

      
      <glyph glyph-name="unid5" unicode="&#xd5;" d="M568 230Q568 119 498.50 55Q429-9 315.50-9Q202-9 133 54.50Q64 118 64 230L64 406Q64 518 133 581.50Q202 645 315.50 645Q429 645 498.50 581Q568 517 568 406L568 230M450.50 528.50Q450.50 528.50 427.75 550.75Q405 573 316 573Q227 573 181.50 528.50Q136 484 136 403L136 233Q136 151 182 107Q228 63 316 63Q404 63 450 107Q496 151 496 233L496 403Q496 484 450.50 528.50Z"  horiz-adv-x="632" vert-adv-y="1024"  />

      
      <glyph glyph-name="unid6" unicode="&#xd6;" d="M292 757Q292 757 292 746Q292 735 271.50 720.50Q251 706 230 706Q209 706 189.50 720.50Q170 735 170 757Q170 779 190.50 793.50Q211 808 231 808Q251 808 271.50 793.50Q292 779 292 757M462 757Q462 757 462 746Q462 735 441.50 720.50Q421 706 400 706Q379 706 359.50 720.50Q340 735 340 757Q340 779 360.50 793.50Q381 808 401 808Q421 808 441.50 793.50Q462 779 462 757M568 230Q568 119 498.50 55Q429-9 315.50-9Q202-9 133 54.50Q64 118 64 230L64 406Q64 518 133 581.50Q202 645 315.50 645Q429 645 498.50 581Q568 517 568 406L568 230M450.50 528.50Q450.50 528.50 427.75 550.75Q405 573 316 573Q227 573 181.50 528.50Q136 484 136 403L136 233Q136 151 182 107Q228 63 316 63Q404 63 450 107Q496 151 496 233L496 403Q496 484 450.50 528.50Z"  horiz-adv-x="632" vert-adv-y="1024"  />

      
      <glyph glyph-name="unid7" unicode="&#xd7;" d="M84 351Q69 364 69 380Q69 396 80 406.50Q91 417 105.50 417Q120 417 135 402L255 282L376 403Q391 417 406 417Q421 417 431 405.50Q441 394 441 379.50Q441 365 427 351L306 230L427 109Q441 97 441 81.50Q441 66 429.50 54Q418 42 406 42Q394 42 376 58L255 179L134 58Q121 45 105.50 45Q90 45 79.50 55.50Q69 66 69 81Q69 96 83 109L204 230L84 351Z"  horiz-adv-x="510" vert-adv-y="1024"  />

      
      <glyph glyph-name="unid8" unicode="&#xd8;" d="M438 539Q393 573 310 573Q227 573 181.50 528.50Q136 484 136 403L136 233Q136 188 149 156L438 539M505 627Q519 646 534.50 646Q550 646 561.50 635.50Q573 625 573 611.50Q573 598 562 584L531 543Q568 486 568 406L568 230Q568 119 498.50 55Q429-9 324-9Q219-9 152 39L127 6Q113-12 98-12Q83-12 71-2Q59 8 59 23Q59 38 69 50L101 93Q64 150 64 230L64 406Q64 518 133 581.50Q202 645 308.50 645Q415 645 481 596L505 627M483 479L195 96Q238 63 321 63Q404 63 450 107Q496 151 496 233L496 403Q496 447 483 479Z"  horiz-adv-x="632" vert-adv-y="1024"  />

      
      <glyph glyph-name="unid9" unicode="&#xd9;" d="M377 685Q388 670 388 656Q388 642 377 631.50Q366 621 352 621Q338 621 320 640L224 755Q213 767 213 783Q213 799 223.50 809Q234 819 249 819Q264 819 281 800L377 685M509 603Q509 643 545 643Q581 643 581 602L581 230Q581 119 511.50 55Q442-9 328-9Q214-9 145.50 54.50Q77 118 77 230L77 602Q77 643 113 643Q127 643 138 633.50Q149 624 149 603L149 233Q149 151 195 107Q241 63 329 63Q417 63 463 107Q509 151 509 233L509 603Z"  horiz-adv-x="658" vert-adv-y="1024"  />

      
      <glyph glyph-name="unida" unicode="&#xda;" d="M362 640Q345 621 331 621Q317 621 305.50 631Q294 641 294 655.50Q294 670 305 685L401 800Q418 819 433 819Q448 819 458.50 809Q469 799 469 783Q469 767 458 755L362 640M509 603Q509 643 545 643Q581 643 581 602L581 230Q581 119 511.50 55Q442-9 328-9Q214-9 145.50 54.50Q77 118 77 230L77 602Q77 643 113 643Q127 643 138 633.50Q149 624 149 603L149 233Q149 151 195 107Q241 63 329 63Q417 63 463 107Q509 151 509 233L509 603Z"  horiz-adv-x="658" vert-adv-y="1024"  />

      
      <glyph glyph-name="unidb" unicode="&#xdb;" d="M186 703L295 819L362 819L473 703Q481 693 481 679Q481 651 448 651Q433 651 429 655Q425 659 413 669L329 738L246 669Q244 668 240 664Q236 659 233 657Q225 651 211 651Q178 651 178 679Q178 693 186 703M509 603Q509 643 545 643Q581 643 581 602L581 230Q581 119 511.50 55Q442-9 328-9Q214-9 145.50 54.50Q77 118 77 230L77 602Q77 643 113 643Q127 643 138 633.50Q149 624 149 603L149 233Q149 151 195 107Q241 63 329 63Q417 63 463 107Q509 151 509 233L509 603Z"  horiz-adv-x="658" vert-adv-y="1024"  />

      
      <glyph glyph-name="unidc" unicode="&#xdc;" d="M306 757Q306 757 306 746Q306 735 285.50 720.50Q265 706 244 706Q223 706 203.50 720.50Q184 735 184 757Q184 779 204.50 793.50Q225 808 245 808Q265 808 285.50 793.50Q306 779 306 757M476 757Q476 757 476 746Q476 735 455.50 720.50Q435 706 414 706Q393 706 373.50 720.50Q354 735 354 757Q354 779 374.50 793.50Q395 808 415 808Q435 808 455.50 793.50Q476 779 476 757M509 603Q509 643 545 643Q581 643 581 602L581 230Q581 119 511.50 55Q442-9 328-9Q214-9 145.50 54.50Q77 118 77 230L77 602Q77 643 113 643Q127 643 138 633.50Q149 624 149 603L149 233Q149 151 195 107Q241 63 329 63Q417 63 463 107Q509 151 509 233L509 603Z"  horiz-adv-x="658" vert-adv-y="1024"  />

      
      <glyph glyph-name="unidd" unicode="&#xdd;" d="M314 640Q297 621 283 621Q269 621 257.50 631Q246 641 246 655.50Q246 670 257 685L353 800Q370 819 385 819Q400 819 410.50 809Q421 799 421 783Q421 767 410 755L314 640M243 306L28 583Q18 600 18 612Q18 624 29 633.50Q40 643 55 643Q70 643 86 621L281 365L475 621Q493 643 507 643Q521 643 532.50 633.50Q544 624 544 612Q544 600 534 583L320 306L320 32Q320-7 282-7Q244-7 243 32L243 306Z"  horiz-adv-x="563" vert-adv-y="1024"  />

      
      <glyph glyph-name="unide" unicode="&#xde;" d="M156 476L335 476Q426 476 475.50 435Q525 394 525 316Q525 238 475 196.50Q425 155 333 155L156 155L156 35Q156-7 120-7Q84-7 84 35L84 573Q84 596 95 606Q106 616 120 616Q134 616 145 606Q156 596 156 573L156 476M284 404L156 404L156 218L283 218Q384 218 418 236Q452 254 452 311Q452 368 417 386Q382 404 284 404Z"  horiz-adv-x="560" vert-adv-y="1024"  />

      
      <glyph glyph-name="unidf" unicode="&#xdf;" d="M165 341L165 408Q241 408 283 431Q325 454 325 512Q325 536 304 550Q283 564 233 564Q183 564 159 545.50Q135 527 135 461L135 39Q135-7 97-7Q63-7 63 37L63 394Q32 399 32 427Q32 455 63 460Q68 562 116 599Q164 636 242 636Q320 636 359 598.50Q398 561 398 510Q398 430 335 381Q466 336 466 198Q466 68 408 20Q360-20 303.50-20Q247-20 199.50 11.50Q152 43 152 101Q152 147 194 147Q236 147 236 103Q236 52 310 52Q394 52 394 201Q394 341 165 341Z"  horiz-adv-x="506" vert-adv-y="1024"  />

      
      <glyph glyph-name="unie0" unicode="&#xe0;" d="M340 556Q351 541 351 527Q351 513 340 502.50Q329 492 315 492Q301 492 283 511L187 626Q176 638 176 654Q176 670 186.50 680Q197 690 212 690Q227 690 244 671L340 556M314 305L451 305L451 347Q451 372 442 380.50Q433 389 406 389L265 389Q187 389 160 380.50Q133 372 133 350Q133 305 97 305Q61 305 61 350Q61 413 111.50 437Q162 461 258 461L413 461Q477 461 500 431Q523 401 523 331L523 35Q523-7 487-7Q451-7 451 38L451 50Q391 0 271 0L178 0Q127 0 94 35Q61 70 61 129Q61 231 121.50 268Q182 305 314 305M451 233L314 233Q202 233 167.50 214.50Q133 196 133 124Q133 103 148 87.50Q163 72 178 72L271 72Q390 72 424 129Q451 172 451 229Q451 231 451 233Z"  horiz-adv-x="594" vert-adv-y="1024"  />

      
      <glyph glyph-name="unie1" unicode="&#xe1;" d="M325 514Q308 495 294 495Q280 495 268.50 505Q257 515 257 529.50Q257 544 268 559L364 674Q381 693 396 693Q411 693 421.50 683Q432 673 432 657Q432 641 421 629L325 514M314 305L451 305L451 347Q451 372 442 380.50Q433 389 406 389L265 389Q187 389 160 380.50Q133 372 133 350Q133 305 97 305Q61 305 61 350Q61 413 111.50 437Q162 461 258 461L413 461Q477 461 500 431Q523 401 523 331L523 35Q523-7 487-7Q451-7 451 38L451 50Q391 0 271 0L178 0Q127 0 94 35Q61 70 61 129Q61 231 121.50 268Q182 305 314 305M451 233L314 233Q202 233 167.50 214.50Q133 196 133 124Q133 103 148 87.50Q163 72 178 72L271 72Q390 72 424 129Q451 172 451 229Q451 231 451 233Z"  horiz-adv-x="594" vert-adv-y="1024"  />

      
      <glyph glyph-name="unie2" unicode="&#xe2;" d="M149 574L258 690L325 690L436 574Q444 564 444 550Q444 522 411 522Q396 522 392 526Q388 530 376 540L292 609L209 540Q207 539 203 535Q199 530 196 528Q188 522 174 522Q141 522 141 550Q141 564 149 574M314 305L451 305L451 347Q451 372 442 380.50Q433 389 406 389L265 389Q187 389 160 380.50Q133 372 133 350Q133 305 97 305Q61 305 61 350Q61 413 111.50 437Q162 461 258 461L413 461Q477 461 500 431Q523 401 523 331L523 35Q523-7 487-7Q451-7 451 38L451 50Q391 0 271 0L178 0Q127 0 94 35Q61 70 61 129Q61 231 121.50 268Q182 305 314 305M451 233L314 233Q202 233 167.50 214.50Q133 196 133 124Q133 103 148 87.50Q163 72 178 72L271 72Q390 72 424 129Q451 172 451 229Q451 231 451 233Z"  horiz-adv-x="594" vert-adv-y="1024"  />

      
      <glyph glyph-name="unie3" unicode="&#xe3;" d="M314 305L451 305L451 347Q451 372 442 380.50Q433 389 406 389L265 389Q187 389 160 380.50Q133 372 133 350Q133 305 97 305Q61 305 61 350Q61 413 111.50 437Q162 461 258 461L413 461Q477 461 500 431Q523 401 523 331L523 35Q523-7 487-7Q451-7 451 38L451 50Q391 0 271 0L178 0Q127 0 94 35Q61 70 61 129Q61 231 121.50 268Q182 305 314 305M451 233L314 233Q202 233 167.50 214.50Q133 196 133 124Q133 103 148 87.50Q163 72 178 72L271 72Q390 72 424 129Q451 172 451 229Q451 231 451 233Z"  horiz-adv-x="594" vert-adv-y="1024"  />

      
      <glyph glyph-name="unie4" unicode="&#xe4;" d="M311 573Q311 573 311 562Q311 551 290.50 536.50Q270 522 249 522Q228 522 208.50 536.50Q189 551 189 573Q189 595 209.50 609.50Q230 624 250 624Q270 624 290.50 609.50Q311 595 311 573M481 573Q481 573 481 562Q481 551 460.50 536.50Q440 522 419 522Q398 522 378.50 536.50Q359 551 359 573Q359 595 379.50 609.50Q400 624 420 624Q440 624 460.50 609.50Q481 595 481 573M314 305L451 305L451 347Q451 372 442 380.50Q433 389 406 389L265 389Q187 389 160 380.50Q133 372 133 350Q133 305 97 305Q61 305 61 350Q61 413 111.50 437Q162 461 258 461L413 461Q477 461 500 431Q523 401 523 331L523 35Q523-7 487-7Q451-7 451 38L451 50Q391 0 271 0L178 0Q127 0 94 35Q61 70 61 129Q61 231 121.50 268Q182 305 314 305M451 233L314 233Q202 233 167.50 214.50Q133 196 133 124Q133 103 148 87.50Q163 72 178 72L271 72Q390 72 424 129Q451 172 451 229Q451 231 451 233Z"  horiz-adv-x="594" vert-adv-y="1024"  />

      
      <glyph glyph-name="unie5" unicode="&#xe5;" d="M270 617.50Q270 617.50 265 612.75Q260 608 260 594Q260 580 270 570.50Q280 561 293 561Q306 561 316 570.50Q326 580 326 594Q326 608 316 617.50Q306 627 293 627Q280 627 270 617.50M231.50 655.50Q231.50 655.50 244.25 668.25Q257 681 293 681Q329 681 354.50 655.50Q380 630 380 594Q380 558 354.50 532.50Q329 507 293 507Q257 507 231.50 532.50Q206 558 206 594Q206 630 231.50 655.50M314 305L451 305L451 347Q451 372 442 380.50Q433 389 406 389L265 389Q187 389 160 380.50Q133 372 133 350Q133 305 97 305Q61 305 61 350Q61 413 111.50 437Q162 461 258 461L413 461Q477 461 500 431Q523 401 523 331L523 35Q523-7 487-7Q451-7 451 38L451 50Q391 0 271 0L178 0Q127 0 94 35Q61 70 61 129Q61 231 121.50 268Q182 305 314 305M451 233L314 233Q202 233 167.50 214.50Q133 196 133 124Q133 103 148 87.50Q163 72 178 72L271 72Q390 72 424 129Q451 172 451 229Q451 231 451 233Z"  horiz-adv-x="594" vert-adv-y="1024"  />

      
      <glyph glyph-name="unie6" unicode="&#xe6;" d="M295 233Q198 233 166 214Q134 195 134 124Q134 103 149 87.50Q164 72 179 72L272 72Q440 72 440 228L436 233L295 233M694 389L686 389Q589 389 553 373Q517 357 513 305L854 305Q850 357 816.50 373Q783 389 694 389M926 283L926 233L513 233L517 181Q517 110 550.50 91Q584 72 686 72L809 72Q836 72 845 83Q854 94 854 120Q854 146 865 156.50Q876 167 890 167Q926 166 926 116Q926 66 903.50 33Q881 0 816 0L686 0Q603 0 550 15Q497 30 469 71Q436 37 378.50 18.50Q321 0 272 0L179 0Q128 0 95 35Q62 70 62 129Q62 231 119.50 268Q177 305 295 305L435 305L435 347Q435 371 425.50 380Q416 389 387 389L246 389Q134 389 134 339Q134 294 98 294Q62 294 62 339Q62 402 111 431.50Q160 461 239 461L394 461Q468 461 494 421Q547 461 686 461L694 461Q813 461 869.50 424.50Q926 388 926 283Z"  horiz-adv-x="986" vert-adv-y="1024"  />

      
      <glyph glyph-name="unie7" unicode="&#xe7;" d="M277 1Q163 5 112 42.50Q61 80 61 178L61 283Q61 388 120 424.50Q179 461 314 461L455 461Q520 461 542.50 427.50Q565 394 565 344Q565 294 529 294Q515 294 504 304Q493 314 493 340.50Q493 367 484 378Q475 389 448 389L314 389Q202 389 167.50 370.50Q133 352 133 280L133 181Q133 109 167.50 90.50Q202 72 314 72L448 72Q475 72 484 83Q493 94 493 120.50Q493 147 504 157Q515 167 529 167Q565 167 565 116.50Q565 66 542.50 33Q520 0 455 0L349 0Q351-13 368.50-25Q386-37 402-54.50Q418-72 418-99Q418-142 386-166Q354-190 312-190Q269-190 246-171Q223-152 223-134Q223-116 231-109Q239-102 250-102Q261-102 283-112.50Q305-123 315.50-123Q326-123 333-121Q340-120 342-114Q346-106 346-100Q346-94 329.50-83Q313-72 295.50-50Q278-28 277 1Z"  horiz-adv-x="624" vert-adv-y="1024"  />

      
      <glyph glyph-name="unie8" unicode="&#xe8;" d="M374 559Q385 544 385 530Q385 516 374 505.50Q363 495 349 495Q335 495 317 514L221 629Q210 641 210 657Q210 673 220.50 683Q231 693 246 693Q261 693 278 674L374 559M595 283L595 235L133 235L133 181Q133 109 167.50 90.50Q202 72 314 72L468 72Q495 72 504 83Q513 94 513 120Q513 146 524 156.50Q535 167 549 167Q585 166 585 116Q585 66 562.50 33Q540 0 475 0L314 0Q179 0 120 36.50Q61 73 61 178L61 283Q61 388 120 424.50Q179 461 314 461L343 461Q477 461 536 424.50Q595 388 595 283M343 389L314 389Q206 389 171 374Q136 359 133 307L523 307Q519 360 483 374.50Q447 389 343 389Z"  horiz-adv-x="651" vert-adv-y="1024"  />

      
      <glyph glyph-name="unie9" unicode="&#xe9;" d="M362 514Q345 495 331 495Q317 495 305.50 505Q294 515 294 529.50Q294 544 305 559L401 674Q418 693 433 693Q448 693 458.50 683Q469 673 469 657Q469 641 458 629L362 514M595 283L595 235L133 235L133 181Q133 109 167.50 90.50Q202 72 314 72L468 72Q495 72 504 83Q513 94 513 120Q513 146 524 156.50Q535 167 549 167Q585 166 585 116Q585 66 562.50 33Q540 0 475 0L314 0Q179 0 120 36.50Q61 73 61 178L61 283Q61 388 120 424.50Q179 461 314 461L343 461Q477 461 536 424.50Q595 388 595 283M343 389L314 389Q206 389 171 374Q136 359 133 307L523 307Q519 360 483 374.50Q447 389 343 389Z"  horiz-adv-x="651" vert-adv-y="1024"  />

      
      <glyph glyph-name="uniea" unicode="&#xea;" d="M185 574L294 690L361 690L472 574Q480 564 480 550Q480 522 447 522Q432 522 428 526Q424 530 412 540L328 609L245 540Q243 539 239 535Q235 530 232 528Q224 522 210 522Q177 522 177 550Q177 564 185 574M595 283L595 235L133 235L133 181Q133 109 167.50 90.50Q202 72 314 72L468 72Q495 72 504 83Q513 94 513 120Q513 146 524 156.50Q535 167 549 167Q585 166 585 116Q585 66 562.50 33Q540 0 475 0L314 0Q179 0 120 36.50Q61 73 61 178L61 283Q61 388 120 424.50Q179 461 314 461L343 461Q477 461 536 424.50Q595 388 595 283M343 389L314 389Q206 389 171 374Q136 359 133 307L523 307Q519 360 483 374.50Q447 389 343 389Z"  horiz-adv-x="651" vert-adv-y="1024"  />

      
      <glyph glyph-name="unieb" unicode="&#xeb;" d="M304 573Q304 573 304 562Q304 551 283.50 536.50Q263 522 242 522Q221 522 201.50 536.50Q182 551 182 573Q182 595 202.50 609.50Q223 624 243 624Q263 624 283.50 609.50Q304 595 304 573M474 573Q474 573 474 562Q474 551 453.50 536.50Q433 522 412 522Q391 522 371.50 536.50Q352 551 352 573Q352 595 372.50 609.50Q393 624 413 624Q433 624 453.50 609.50Q474 595 474 573M595 283L595 235L133 235L133 181Q133 109 167.50 90.50Q202 72 314 72L468 72Q495 72 504 83Q513 94 513 120Q513 146 524 156.50Q535 167 549 167Q585 166 585 116Q585 66 562.50 33Q540 0 475 0L314 0Q179 0 120 36.50Q61 73 61 178L61 283Q61 388 120 424.50Q179 461 314 461L343 461Q477 461 536 424.50Q595 388 595 283M343 389L314 389Q206 389 171 374Q136 359 133 307L523 307Q519 360 483 374.50Q447 389 343 389Z"  horiz-adv-x="651" vert-adv-y="1024"  />

      
      <glyph glyph-name="uniec" unicode="&#xec;" d="M134 567Q145 552 145 538Q145 524 134 513.50Q123 503 109 503Q95 503 77 522L-19 637Q-30 649-30 665Q-30 681-19.50 691Q-9 701 6 701Q21 701 38 682L134 567M73 440Q73 463 84 473Q95 483 109 483Q123 483 134 473Q145 463 145 440L145 20Q145-22 108-22Q94-22 83.50-12.50Q73-3 73 20L73 440Z"  horiz-adv-x="218" vert-adv-y="1024"  />

      
      <glyph glyph-name="unied" unicode="&#xed;" d="M141 518Q124 499 110 499Q96 499 84.50 509Q73 519 73 533.50Q73 548 84 563L180 678Q197 697 212 697Q227 697 237.50 687Q248 677 248 661Q248 645 237 633L141 518M73 440Q73 463 84 473Q95 483 109 483Q123 483 134 473Q145 463 145 440L145 20Q145-22 108-22Q94-22 83.50-12.50Q73-3 73 20L73 440Z"  horiz-adv-x="218" vert-adv-y="1024"  />

      
      <glyph glyph-name="uniee" unicode="&#xee;" d="M-34 581L75 697L142 697L253 581Q261 571 261 557Q261 529 228 529Q213 529 209 533Q205 537 193 547L109 616L26 547Q24 546 20 542Q16 537 13 535Q5 529-9 529Q-42 529-42 557Q-42 571-34 581M73 440Q73 463 84 473Q95 483 109 483Q123 483 134 473Q145 463 145 440L145 20Q145-22 108-22Q94-22 83.50-12.50Q73-3 73 20L73 440Z"  horiz-adv-x="218" vert-adv-y="1024"  />

      
      <glyph glyph-name="unief" unicode="&#xef;" d="M85 595Q85 595 85 584Q85 573 64.50 558.50Q44 544 23 544Q2 544-17.50 558.50Q-37 573-37 595Q-37 617-16.50 631.50Q4 646 24 646Q44 646 64.50 631.50Q85 617 85 595M255 595Q255 595 255 584Q255 573 234.50 558.50Q214 544 193 544Q172 544 152.50 558.50Q133 573 133 595Q133 617 153.50 631.50Q174 646 194 646Q214 646 234.50 631.50Q255 617 255 595M73 440Q73 463 84 473Q95 483 109 483Q123 483 134 473Q145 463 145 440L145 20Q145-22 108-22Q94-22 83.50-12.50Q73-3 73 20L73 440Z"  horiz-adv-x="218" vert-adv-y="1024"  />

      
      <glyph glyph-name="unif0" unicode="&#xf0;" d="M240 554Q201 563 161 563Q121 563 121 598Q121 618 133.50 627Q146 636 162 636Q236 636 305 612L336 640Q354 654 369.50 654Q385 654 397.50 644.50Q410 635 410 619.50Q410 604 393 587L380 577Q550 471 550 224Q550 125 488 54.50Q426-16 310-16Q194-16 120 47Q46 110 46 220.50Q46 331 119.50 393.50Q193 456 316 456Q375 456 423 435Q387 488 322 524L272 481Q258 467 242 467Q226 467 212 477Q198 487 198 501.50Q198 516 216 534L240 554M310 56Q310 56 353.50 56Q397 56 437.50 107.50Q478 159 478 224.50Q478 290 438.50 337Q399 384 312 384Q225 384 171.50 339Q118 294 118 220.50Q118 147 170.50 101.50Q223 56 310 56Z"  horiz-adv-x="605" vert-adv-y="1024"  />

      
      <glyph glyph-name="unif1" unicode="&#xf1;" d="M327 389Q226 389 186 345.50Q146 302 146 229L146 35Q146-7 110-7Q74-7 74 35L74 425Q74 468 108 468Q146 468 146 422L146 411Q208 461 327 461L356 461Q490 461 549 424.50Q608 388 608 283L608 35Q608-7 572-7Q536-7 536 35L536 280Q536 352 501.50 370.50Q467 389 356 389L327 389Z"  horiz-adv-x="678" vert-adv-y="1024"  />

      
      <glyph glyph-name="unif2" unicode="&#xf2;" d="M376 559Q387 544 387 530Q387 516 376 505.50Q365 495 351 495Q337 495 319 514L223 629Q212 641 212 657Q212 673 222.50 683Q233 693 248 693Q263 693 280 674L376 559M343 0L314 0Q179 0 120 36.50Q61 73 61 178L61 283Q61 388 120 424.50Q179 461 314 461L343 461Q477 461 536 424.50Q595 388 595 283L595 178Q595 73 536 36.50Q477 0 343 0M314 72L343 72Q454 72 488.50 90.50Q523 109 523 181L523 280Q523 352 488.50 370.50Q454 389 343 389L314 389Q202 389 167.50 370.50Q133 352 133 280L133 181Q133 109 167.50 90.50Q202 72 314 72Z"  horiz-adv-x="656" vert-adv-y="1024"  />

      
      <glyph glyph-name="unif3" unicode="&#xf3;" d="M360 514Q343 495 329 495Q315 495 303.50 505Q292 515 292 529.50Q292 544 303 559L399 674Q416 693 431 693Q446 693 456.50 683Q467 673 467 657Q467 641 456 629L360 514M343 0L314 0Q179 0 120 36.50Q61 73 61 178L61 283Q61 388 120 424.50Q179 461 314 461L343 461Q477 461 536 424.50Q595 388 595 283L595 178Q595 73 536 36.50Q477 0 343 0M314 72L343 72Q454 72 488.50 90.50Q523 109 523 181L523 280Q523 352 488.50 370.50Q454 389 343 389L314 389Q202 389 167.50 370.50Q133 352 133 280L133 181Q133 109 167.50 90.50Q202 72 314 72Z"  horiz-adv-x="656" vert-adv-y="1024"  />

      
      <glyph glyph-name="unif4" unicode="&#xf4;" d="M185 574L294 690L361 690L472 574Q480 564 480 550Q480 522 447 522Q432 522 428 526Q424 530 412 540L328 609L245 540Q243 539 239 535Q235 530 232 528Q224 522 210 522Q177 522 177 550Q177 564 185 574M343 0L314 0Q179 0 120 36.50Q61 73 61 178L61 283Q61 388 120 424.50Q179 461 314 461L343 461Q477 461 536 424.50Q595 388 595 283L595 178Q595 73 536 36.50Q477 0 343 0M314 72L343 72Q454 72 488.50 90.50Q523 109 523 181L523 280Q523 352 488.50 370.50Q454 389 343 389L314 389Q202 389 167.50 370.50Q133 352 133 280L133 181Q133 109 167.50 90.50Q202 72 314 72Z"  horiz-adv-x="656" vert-adv-y="1024"  />

      
      <glyph glyph-name="unif5" unicode="&#xf5;" d="M343 0L314 0Q179 0 120 36.50Q61 73 61 178L61 283Q61 388 120 424.50Q179 461 314 461L343 461Q477 461 536 424.50Q595 388 595 283L595 178Q595 73 536 36.50Q477 0 343 0M314 72L343 72Q454 72 488.50 90.50Q523 109 523 181L523 280Q523 352 488.50 370.50Q454 389 343 389L314 389Q202 389 167.50 370.50Q133 352 133 280L133 181Q133 109 167.50 90.50Q202 72 314 72Z"  horiz-adv-x="656" vert-adv-y="1024"  />

      
      <glyph glyph-name="unif6" unicode="&#xf6;" d="M304 573Q304 573 304 562Q304 551 283.50 536.50Q263 522 242 522Q221 522 201.50 536.50Q182 551 182 573Q182 595 202.50 609.50Q223 624 243 624Q263 624 283.50 609.50Q304 595 304 573M474 573Q474 573 474 562Q474 551 453.50 536.50Q433 522 412 522Q391 522 371.50 536.50Q352 551 352 573Q352 595 372.50 609.50Q393 624 413 624Q433 624 453.50 609.50Q474 595 474 573M343 0L314 0Q179 0 120 36.50Q61 73 61 178L61 283Q61 388 120 424.50Q179 461 314 461L343 461Q477 461 536 424.50Q595 388 595 283L595 178Q595 73 536 36.50Q477 0 343 0M314 72L343 72Q454 72 488.50 90.50Q523 109 523 181L523 280Q523 352 488.50 370.50Q454 389 343 389L314 389Q202 389 167.50 370.50Q133 352 133 280L133 181Q133 109 167.50 90.50Q202 72 314 72Z"  horiz-adv-x="656" vert-adv-y="1024"  />

      
      <glyph glyph-name="unif7" unicode="&#xf7;" d="M341 267Q385 267 385 229Q385 213 372.50 203.50Q360 194 341 194L96 194Q55 194 55 231Q55 244 64.50 255.50Q74 267 96 267L341 267M277 118Q277 118 277 107Q277 96 256.50 81.50Q236 67 215 67Q194 67 174.50 81.50Q155 96 155 118Q155 140 175.50 154.50Q196 169 216 169Q236 169 256.50 154.50Q277 140 277 118M277 343Q277 343 277 332Q277 321 256.50 306.50Q236 292 215 292Q194 292 174.50 306.50Q155 321 155 343Q155 365 175.50 379.50Q196 394 216 394Q236 394 256.50 379.50Q277 365 277 343Z"  horiz-adv-x="440" vert-adv-y="1024"  />

      
      <glyph glyph-name="unif8" unicode="&#xf8;" d="M314 72L343 72Q454 72 488.50 90.50Q523 109 523 181L523 280Q523 314 516 334L210 77Q242 72 314 72M522 433Q538 447 552.50 447Q567 447 577.50 435.50Q588 424 588 410.50Q588 397 574 383Q595 345 595 283L595 178Q595 73 536 36.50Q477 0 343 0L314 0Q199 0 145 23Q123 3 107.50 3Q92 3 82 15Q72 27 72 40.50Q72 54 88 69Q61 108 61 178L61 283Q61 388 120 424.50Q179 461 314 461L343 461Q469 461 522 433M144 116L460 381Q429 389 343 389L314 389Q202 389 167.50 370.50Q133 352 133 280L133 181Q133 138 144 116Z"  horiz-adv-x="656" vert-adv-y="1024"  />

      
      <glyph glyph-name="unif9" unicode="&#xf9;" d="M384 559Q395 544 395 530Q395 516 384 505.50Q373 495 359 495Q345 495 327 514L231 629Q220 641 220 657Q220 673 230.50 683Q241 693 256 693Q271 693 288 674L384 559M351 72Q454 72 493 116.50Q532 161 532 232L532 426Q532 468 568 468Q604 468 604 426L604 36Q604-7 570-7Q532-7 532 39L532 50Q470 0 351 0L322 0Q188 0 129 36.50Q70 73 70 178L70 426Q70 468 106 468Q142 468 142 426L142 181Q142 109 176.50 90.50Q211 72 322 72L351 72Z"  horiz-adv-x="678" vert-adv-y="1024"  />

      
      <glyph glyph-name="unifa" unicode="&#xfa;" d="M370 514Q353 495 339 495Q325 495 313.50 505Q302 515 302 529.50Q302 544 313 559L409 674Q426 693 441 693Q456 693 466.50 683Q477 673 477 657Q477 641 466 629L370 514M351 72Q454 72 493 116.50Q532 161 532 232L532 426Q532 468 568 468Q604 468 604 426L604 36Q604-7 570-7Q532-7 532 39L532 50Q470 0 351 0L322 0Q188 0 129 36.50Q70 73 70 178L70 426Q70 468 106 468Q142 468 142 426L142 181Q142 109 176.50 90.50Q211 72 322 72L351 72Z"  horiz-adv-x="678" vert-adv-y="1024"  />

      
      <glyph glyph-name="unifb" unicode="&#xfb;" d="M193 574L302 690L369 690L480 574Q488 564 488 550Q488 522 455 522Q440 522 436 526Q432 530 420 540L336 609L253 540Q251 539 247 535Q243 530 240 528Q232 522 218 522Q185 522 185 550Q185 564 193 574M351 72Q454 72 493 116.50Q532 161 532 232L532 426Q532 468 568 468Q604 468 604 426L604 36Q604-7 570-7Q532-7 532 39L532 50Q470 0 351 0L322 0Q188 0 129 36.50Q70 73 70 178L70 426Q70 468 106 468Q142 468 142 426L142 181Q142 109 176.50 90.50Q211 72 322 72L351 72Z"  horiz-adv-x="678" vert-adv-y="1024"  />

      
      <glyph glyph-name="unifc" unicode="&#xfc;" d="M312 580Q312 580 312 569Q312 558 291.50 543.50Q271 529 250 529Q229 529 209.50 543.50Q190 558 190 580Q190 602 210.50 616.50Q231 631 251 631Q271 631 291.50 616.50Q312 602 312 580M482 580Q482 580 482 569Q482 558 461.50 543.50Q441 529 420 529Q399 529 379.50 543.50Q360 558 360 580Q360 602 380.50 616.50Q401 631 421 631Q441 631 461.50 616.50Q482 602 482 580M351 72Q454 72 493 116.50Q532 161 532 232L532 426Q532 468 568 468Q604 468 604 426L604 36Q604-7 570-7Q532-7 532 39L532 50Q470 0 351 0L322 0Q188 0 129 36.50Q70 73 70 178L70 426Q70 468 106 468Q142 468 142 426L142 181Q142 109 176.50 90.50Q211 72 322 72L351 72Z"  horiz-adv-x="678" vert-adv-y="1024"  />

      
      <glyph glyph-name="unifd" unicode="&#xfd;" d="M371 514Q354 495 340 495Q326 495 314.50 505Q303 515 303 529.50Q303 544 314 559L410 674Q427 693 442 693Q457 693 467.50 683Q478 673 478 657Q478 641 467 629L371 514M604-77Q604-146 582.50-175.50Q561-205 503-205L180-205Q115-205 92.50-171.50Q70-138 70-88Q70-38 106-38Q142-38 142-81Q142-111 151-122Q160-133 187-133L496-133Q519-133 525.50-125.50Q532-118 532-93L532 50Q470 0 351 0L322 0Q188 0 129 36.50Q70 73 70 178L70 426Q70 468 106 468Q142 468 142 426L142 181Q142 109 176.50 90.50Q211 72 322 72L351 72Q532 72 532 232L532 426Q532 468 568 468Q604 468 604 426L604-77Z"  horiz-adv-x="679" vert-adv-y="1024"  />

      
      <glyph glyph-name="unife" unicode="&#xfe;" d="M538 280Q538 352 503.50 370.50Q469 389 358 389L329 389Q227 389 187.50 346.50Q148 304 148 232L148 72L361 72Q470 72 504 90.50Q538 109 538 181L538 280M610 178Q610 73 551.50 36.50Q493 0 361 0L148 0L148-137Q148-182 110-182Q76-182 76-137L76 598Q76 643 112 643Q148 643 148 598L148 411Q210 461 329 461L358 461Q492 461 551 424.50Q610 388 610 283L610 178Z"  horiz-adv-x="671" vert-adv-y="1024"  />

      
      <glyph glyph-name="uniff" unicode="&#xff;" d="M312 580Q312 580 312 569Q312 558 291.50 543.50Q271 529 250 529Q229 529 209.50 543.50Q190 558 190 580Q190 602 210.50 616.50Q231 631 251 631Q271 631 291.50 616.50Q312 602 312 580M482 580Q482 580 482 569Q482 558 461.50 543.50Q441 529 420 529Q399 529 379.50 543.50Q360 558 360 580Q360 602 380.50 616.50Q401 631 421 631Q441 631 461.50 616.50Q482 602 482 580M604-77Q604-146 582.50-175.50Q561-205 503-205L180-205Q115-205 92.50-171.50Q70-138 70-88Q70-38 106-38Q142-38 142-81Q142-111 151-122Q160-133 187-133L496-133Q519-133 525.50-125.50Q532-118 532-93L532 50Q470 0 351 0L322 0Q188 0 129 36.50Q70 73 70 178L70 426Q70 468 106 468Q142 468 142 426L142 181Q142 109 176.50 90.50Q211 72 322 72L351 72Q532 72 532 232L532 426Q532 468 568 468Q604 468 604 426L604-77Z"  horiz-adv-x="679" vert-adv-y="1024"  />

      
      <glyph glyph-name="uni0100" unicode="&#x0100;" d="M346 636L583 37Q586 28 586 14Q586 0 573.50-8Q561-16 550-16Q524-16 513 12L444 189L166 189L97 12Q85-16 60-16Q49-16 36.50-8Q24 0 24 14Q24 28 27 37L264 636L346 636M195 261L415 261L304 532L195 261Z"  horiz-adv-x="610" vert-adv-y="1024"  />

      
      <glyph glyph-name="uni0101" unicode="&#x0101;" d="M314 305L451 305L451 347Q451 372 442 380.50Q433 389 406 389L265 389Q187 389 160 380.50Q133 372 133 350Q133 305 97 305Q61 305 61 350Q61 413 111.50 437Q162 461 258 461L413 461Q477 461 500 431Q523 401 523 331L523 35Q523-7 487-7Q451-7 451 38L451 50Q391 0 271 0L178 0Q127 0 94 35Q61 70 61 129Q61 231 121.50 268Q182 305 314 305M451 233L314 233Q202 233 167.50 214.50Q133 196 133 124Q133 103 148 87.50Q163 72 178 72L271 72Q390 72 424 129Q451 172 451 229Q451 231 451 233Z"  horiz-adv-x="594" vert-adv-y="1024"  />

      
      <glyph glyph-name="uni0102" unicode="&#x0102;" d="M435 819Q435 753 392.50 723Q350 693 305 693Q263 693 223 719Q202 733 188.50 758.50Q175 784 175 819L248 819Q248 767 305 767Q362 767 362 819L435 819M346 636L583 37Q586 28 586 14Q586 0 573.50-8Q561-16 550-16Q524-16 513 12L444 189L166 189L97 12Q85-16 60-16Q49-16 36.50-8Q24 0 24 14Q24 28 27 37L264 636L346 636M195 261L415 261L304 532L195 261Z"  horiz-adv-x="610" vert-adv-y="1024"  />

      
      <glyph glyph-name="uni0103" unicode="&#x0103;" d="M422 648Q422 582 379.50 552Q337 522 292 522Q250 522 210 548Q189 562 175.50 587.50Q162 613 162 648L235 648Q235 596 292 596Q349 596 349 648L422 648M314 305L451 305L451 347Q451 372 442 380.50Q433 389 406 389L265 389Q187 389 160 380.50Q133 372 133 350Q133 305 97 305Q61 305 61 350Q61 413 111.50 437Q162 461 258 461L413 461Q477 461 500 431Q523 401 523 331L523 35Q523-7 487-7Q451-7 451 38L451 50Q391 0 271 0L178 0Q127 0 94 35Q61 70 61 129Q61 231 121.50 268Q182 305 314 305M451 233L314 233Q202 233 167.50 214.50Q133 196 133 124Q133 103 148 87.50Q163 72 178 72L271 72Q390 72 424 129Q451 172 451 229Q451 231 451 233Z"  horiz-adv-x="594" vert-adv-y="1024"  />

      
      <glyph glyph-name="uni0104" unicode="&#x0104;" d="M195 261L415 261L304 532L195 261M504-91Q504-135 536-135Q550-135 572.50-126.50Q595-118 602-118Q627-118 627-147Q627-168 610-182Q583-206 539-206Q538-206 537-206Q492-206 462-174Q432-142 432-94Q432-46 505 33L444 189L166 189L97 12Q85-16 60-16Q49-16 36.50-8Q24 0 24 14Q24 28 27 37L268 646L342 646L583 37Q586 28 586 15Q586 2 576-6.50Q566-15 554-16Q522-43 508-77Q504-87 504-91Z"  horiz-adv-x="609" vert-adv-y="1024"  />

      
      <glyph glyph-name="uni0105" unicode="&#x0105;" d="M510 0Q486-14 462-43Q438-72 438-91Q438-135 470-135Q484-135 506.50-126.50Q529-118 536-118Q561-118 561-143Q561-168 544-182Q517-206 473-206Q472-206 471-206Q426-206 396-174Q366-142 366-91Q366-40 451 46L451 50Q391 0 271 0L178 0Q127 0 94 35Q61 70 61 129Q61 231 121.50 268Q182 305 314 305L451 305L451 347Q451 372 442 380.50Q433 389 406 389L265 389Q187 389 160 380.50Q133 372 133 350Q133 305 97 305Q61 305 61 350Q61 413 111.50 437Q162 461 258 461L413 461Q477 461 500 431Q523 401 523 331L523 35Q523 11 510 0M451 233L314 233Q202 233 167.50 214.50Q133 196 133 124Q133 103 148 87.50Q163 72 178 72L271 72Q390 72 424 129Q451 172 451 229Q451 231 451 233Z"  horiz-adv-x="594" vert-adv-y="1024"  />

      
      <glyph glyph-name="uni0106" unicode="&#x0106;" d="M345 803Q362 819 376 819Q390 819 401.50 808Q413 797 413 783.50Q413 770 398 753L329 685Q314 668 297.50 668Q281 668 271 679Q261 690 261 703.50Q261 717 275 733L345 803M465 0L324 0Q189 0 130 37.50Q71 75 71 184L71 452Q71 561 128 598.50Q185 636 306 636L465 636Q530 636 552.50 602.50Q575 569 575 519Q575 469 539 469Q525 469 514 479Q503 490 503 516Q503 542 494 553Q485 564 458 564L306 564Q209 564 176 544Q143 524 143 450L143 186Q143 111 178 91.50Q213 72 324 72L458 72Q485 72 494 83Q503 94 503 120Q503 146 514 156.50Q525 167 539 167Q575 166 575 116Q575 66 552.50 33Q530 0 465 0Z"  horiz-adv-x="631" vert-adv-y="1024"  />

      
      <glyph glyph-name="uni0107" unicode="&#x0107;" d="M349 514Q332 495 318 495Q304 495 292.50 505Q281 515 281 529.50Q281 544 292 559L388 674Q405 693 420 693Q435 693 445.50 683Q456 673 456 657Q456 641 445 629L349 514M455 0L314 0Q179 0 120 36.50Q61 73 61 178L61 283Q61 388 120 424.50Q179 461 314 461L455 461Q520 461 542.50 427.50Q565 394 565 344Q565 294 529 294Q515 294 504 304Q493 314 493 340Q493 366 484 377.50Q475 389 448 389L314 389Q202 389 167.50 370.50Q133 352 133 280L133 181Q133 109 167.50 90.50Q202 72 314 72L448 72Q475 72 484 83Q493 94 493 120Q493 146 504 156.50Q515 167 529 167Q565 166 565 116Q565 66 542.50 33Q520 0 455 0Z"  horiz-adv-x="624" vert-adv-y="1024"  />

      
      <glyph glyph-name="uni0108" unicode="&#x0108;" d="M176 705L285 821L352 821L463 705Q471 695 471 681Q471 653 438 653Q424 653 419 657Q409 665 403 671L319 740L236 671Q234 670 230 666Q226 661 223 659Q215 653 201 653Q168 653 168 681Q168 695 176 705M465 0L324 0Q189 0 130 37.50Q71 75 71 184L71 452Q71 561 128 598.50Q185 636 306 636L465 636Q530 636 552.50 602.50Q575 569 575 519Q575 469 539 469Q525 469 514 479Q503 490 503 516Q503 542 494 553Q485 564 458 564L306 564Q209 564 176 544Q143 524 143 450L143 186Q143 111 178 91.50Q213 72 324 72L458 72Q485 72 494 83Q503 94 503 120Q503 146 514 156.50Q525 167 539 167Q575 166 575 116Q575 66 552.50 33Q530 0 465 0Z"  horiz-adv-x="631" vert-adv-y="1024"  />

      
      <glyph glyph-name="uni0109" unicode="&#x0109;" d="M170 574L279 690L346 690L457 574Q465 564 465 550Q465 522 432 522Q418 522 413 526Q403 534 397 540L313 609L230 540Q228 539 224 535Q220 530 217 528Q209 522 195 522Q162 522 162 550Q162 564 170 574M455 0L314 0Q179 0 120 36.50Q61 73 61 178L61 283Q61 388 120 424.50Q179 461 314 461L455 461Q520 461 542.50 427.50Q565 394 565 344Q565 294 529 294Q515 294 504 304Q493 314 493 340Q493 366 484 377.50Q475 389 448 389L314 389Q202 389 167.50 370.50Q133 352 133 280L133 181Q133 109 167.50 90.50Q202 72 314 72L448 72Q475 72 484 83Q493 94 493 120Q493 146 504 156.50Q515 167 529 167Q565 166 565 116Q565 66 542.50 33Q520 0 455 0Z"  horiz-adv-x="624" vert-adv-y="1024"  />

      
      <glyph glyph-name="uni010A" unicode="&#x010A;" d="M385 742Q385 742 385 731Q385 720 364.50 705.50Q344 691 323 691Q302 691 282.50 705.50Q263 720 263 742Q263 764 283.50 778.50Q304 793 324 793Q344 793 364.50 778.50Q385 764 385 742M465 0L324 0Q189 0 130 37.50Q71 75 71 184L71 452Q71 561 128 598.50Q185 636 306 636L465 636Q530 636 552.50 602.50Q575 569 575 519Q575 469 539 469Q525 469 514 479Q503 490 503 516Q503 542 494 553Q485 564 458 564L306 564Q209 564 176 544Q143 524 143 450L143 186Q143 111 178 91.50Q213 72 324 72L458 72Q485 72 494 83Q503 94 503 120Q503 146 514 156.50Q525 167 539 167Q575 166 575 116Q575 66 552.50 33Q530 0 465 0Z"  horiz-adv-x="631" vert-adv-y="1024"  />

      
      <glyph glyph-name="uni010B" unicode="&#x010B;" d="M383 558Q383 558 383 547Q383 536 362.50 521.50Q342 507 321 507Q300 507 280.50 521.50Q261 536 261 558Q261 580 281.50 594.50Q302 609 322 609Q342 609 362.50 594.50Q383 580 383 558M455 0L314 0Q179 0 120 36.50Q61 73 61 178L61 283Q61 388 120 424.50Q179 461 314 461L455 461Q520 461 542.50 427.50Q565 394 565 344Q565 294 529 294Q515 294 504 304Q493 314 493 340Q493 366 484 377.50Q475 389 448 389L314 389Q202 389 167.50 370.50Q133 352 133 280L133 181Q133 109 167.50 90.50Q202 72 314 72L448 72Q475 72 484 83Q493 94 493 120Q493 146 504 156.50Q515 167 529 167Q565 166 565 116Q565 66 542.50 33Q520 0 455 0Z"  horiz-adv-x="624" vert-adv-y="1024"  />

      
      </font>
</defs>
</svg>
