<?xml version="1.0" standalone="no"?>
  <!DOCTYPE svg PUBLIC "-//W3C//DTD SVG 1.1//EN" "http://www.w3.org/Graphics/SVG/1.1/DTD/svg11.dtd" >
  <svg>
  <metadata>
  Created by font-carrier
  </metadata>
  <defs>
  <font id="Xolonium" horiz-adv-x="1670" vert-adv-y="1670" >
    <font-face
      
      font-family="Xolonium"
      
      font-weight="400"
      
      font-stretch="normal"
      
      units-per-em="1000"
      
      ascent="890"
      
      descent="-225"
      
    />
      <missing-glyph />

      

      
      <glyph glyph-name="uni21" unicode="&#x21;" d="M75 0L75 120L225 120L225 0L75 0M75 225L75 660L225 660L225 225L75 225Z"  horiz-adv-x="300" vert-adv-y="1000"  />

      
      <glyph glyph-name="uni22" unicode="&#x22;" d="M315 410L315 660L435 660L435 410L315 410M75 410L75 660L195 660L195 410L75 410Z"  horiz-adv-x="510" vert-adv-y="1000"  />

      
      <glyph glyph-name="uni23" unicode="&#x23;" d="M60 150L60 240L160 240L220 420L100 420L100 510L250 510L300 660L430 660L380 510L610 510L660 660L790 660L740 510L810 510L810 420L710 420L650 240L770 240L770 150L620 150L570 0L440 0L490 150L260 150L210 0L80 0L130 150L60 150M290 240L520 240L580 420L350 420L290 240Z"  horiz-adv-x="870" vert-adv-y="1000"  />

      
      <glyph glyph-name="uni24" unicode="&#x24;" d="M70 0L70 85L385 85L385 325L310 325Q283 325 269.50 325Q256 325 231.50 326.50Q207 328 194 330Q181 332 161 336.50Q141 341 130 348Q119 355 106 365Q93 375 86 388.50Q79 402 74.50 420Q70 438 70 460L70 525Q70 547 74.50 565Q79 583 86 596.50Q93 610 106 620Q119 630 130 637Q141 644 161 648.50Q181 653 194 655Q207 657 231.50 658.50Q256 660 269.50 660Q283 660 310 660L385 660L385 745L505 745L505 660L770 660L770 575L505 575L505 410L580 410Q607 410 620.50 410Q634 410 658.50 408.50Q683 407 696 405Q709 403 729 398.50Q749 394 760 387Q771 380 784 370Q797 360 804 346.50Q811 333 815.50 315Q820 297 820 275L820 135Q820 113 815.50 95Q811 77 804 63.50Q797 50 784 40Q771 30 760 23Q749 16 729 11.50Q709 7 696 5Q683 3 658.50 1.50Q634 0 620.50 0Q607 0 580 0L505 0L505-85L385-85L385 0L70 0M220 445Q220 429 230 420.50Q240 412 250 411Q260 410 280 410L385 410L385 575L280 575Q260 575 250 574Q240 573 230 564.50Q220 556 220 540L220 445M505 85L610 85Q630 85 640 86Q650 87 660 95.50Q670 104 670 120L670 290Q670 306 660 314.50Q650 323 640 324Q630 325 610 325L505 325L505 85Z"  horiz-adv-x="890" vert-adv-y="1000"  />

      
      <glyph glyph-name="uni25" unicode="&#x25;" d="M710 90L710 250Q710 276 720 294Q730 312 742.50 321Q755 330 780 334.50Q805 339 821.50 339.50Q838 340 870 340L970 340Q1002 340 1018.50 339.50Q1035 339 1060 334.50Q1085 330 1097.50 321Q1110 312 1120 294Q1130 276 1130 250L1130 90Q1130 64 1120 46Q1110 28 1097.50 19Q1085 10 1060 5.50Q1035 1 1018.50 0.50Q1002 0 970 0L870 0Q838 0 821.50 0.50Q805 1 780 5.50Q755 10 742.50 19Q730 28 720 46Q710 64 710 90M830 85Q830 68 840 64Q850 60 870 60L970 60Q983 60 990 61Q997 62 1003.50 67.50Q1010 73 1010 85L1010 255Q1010 272 1000 276Q990 280 970 280L870 280Q857 280 850 279Q843 278 836.50 272.50Q830 267 830 255L830 85M60 410L60 570Q60 596 70 614Q80 632 92.50 641Q105 650 130 654.50Q155 659 171.50 659.50Q188 660 220 660L320 660Q352 660 368.50 659.50Q385 659 410 654.50Q435 650 447.50 641Q460 632 470 614Q480 596 480 570L480 410Q480 384 470 366Q460 348 447.50 339Q435 330 410 325.50Q385 321 368.50 320.50Q352 320 320 320L220 320Q188 320 171.50 320.50Q155 321 130 325.50Q105 330 92.50 339Q80 348 70 366Q60 384 60 410M180 405Q180 388 190 384Q200 380 220 380L320 380Q333 380 340 381Q347 382 353.50 387.50Q360 393 360 405L360 575Q360 592 350 596Q340 600 320 600L220 600Q207 600 200 599Q193 598 186.50 592.50Q180 587 180 575L180 405M370 0L700 660L820 660L490 0L370 0Z"  horiz-adv-x="1190" vert-adv-y="1000"  />

      
      <glyph glyph-name="uni26" unicode="&#x26;" d="M70 135L70 290Q70 351 116 380.50Q162 410 220 410Q175 455 162.50 474Q150 493 150 525Q150 547 154.50 565Q159 583 166 596.50Q173 610 186 620Q199 630 210 637Q221 644 241 648.50Q261 653 274 655Q287 657 311.50 658.50Q336 660 349.50 660Q363 660 390 660L470 660Q497 660 510.50 660Q524 660 548.50 658.50Q573 657 586 655Q599 653 619 648.50Q639 644 650 637Q661 630 674 620Q687 610 694 596.50Q701 583 705.50 565Q710 547 710 525L710 510L560 510L560 540Q560 556 550 564.50Q540 573 530 574Q520 575 500 575L360 575Q340 575 330 574Q320 573 310 564.50Q300 556 300 540L300 520Q300 500 320 480L670 130L670 300L820 300L820 135Q820 113 815.50 95Q811 77 804 63.50Q797 50 784 40Q771 30 760 23Q749 16 729 11.50Q709 7 696 5Q683 3 658.50 1.50Q634 0 620.50 0Q607 0 580 0L310 0Q283 0 269.50 0Q256 0 231.50 1.50Q207 3 194 5Q181 7 161 11.50Q141 16 130 23Q119 30 106 40Q93 50 86 63.50Q79 77 74.50 95Q70 113 70 135M220 120Q220 104 230 95.50Q240 87 250 86Q260 85 280 85L545 85L305 325L280 325Q260 325 250 324Q240 323 230 314.50Q220 306 220 290L220 120Z"  horiz-adv-x="890" vert-adv-y="1000"  />

      
      <glyph glyph-name="uni27" unicode="&#x27;" d="M75 410L75 660L195 660L195 410L75 410Z"  horiz-adv-x="270" vert-adv-y="1000"  />

      
      <glyph glyph-name="uni28" unicode="&#x28;" d="M75 220Q75 339 117 454Q159 569 235 660L335 660Q268 570 231.50 455.50Q195 341 195 220Q195 99 231.50-18.50Q268-136 335-225L235-225Q160-135 117.50-17.50Q75 100 75 220Z"  horiz-adv-x="395" vert-adv-y="1000"  />

      
      <glyph glyph-name="uni29" unicode="&#x29;" d="M60-225Q127-136 163.50-18.50Q200 99 200 220Q200 341 163.50 455.50Q127 570 60 660L160 660Q236 569 278 454Q320 339 320 220Q320 100 277.50-17.50Q235-135 160-225L60-225Z"  horiz-adv-x="395" vert-adv-y="1000"  />

      
      <glyph glyph-name="uni2a" unicode="&#x2a;" d="M60 448L94 553L269 496L269 660L379 660L379 496L555 553L589 448L413 391L510 258L421 194L324 326L228 194L139 258L235 391L60 448Z"  horiz-adv-x="649" vert-adv-y="1000"  />

      
      <glyph glyph-name="uni2b" unicode="&#x2b;" d="M60 190L60 290L275 290L275 480L425 480L425 290L640 290L640 190L425 190L425 0L275 0L275 190L60 190Z"  horiz-adv-x="700" vert-adv-y="1000"  />

      
      <glyph glyph-name="uni2c" unicode="&#x2c;" d="M45-150L105 120L245 120L125-150L45-150Z"  horiz-adv-x="320" vert-adv-y="1000"  />

      
      <glyph glyph-name="uni2d" unicode="&#x2d;" d="M60 190L60 290L460 290L460 190L60 190Z"  horiz-adv-x="520" vert-adv-y="1000"  />

      
      <glyph glyph-name="uni2e" unicode="&#x2e;" d="M75 0L75 120L225 120L225 0L75 0Z"  horiz-adv-x="300" vert-adv-y="1000"  />

      
      <glyph glyph-name="uni2f" unicode="&#x2f;" d="M60-100L440 660L560 660L180-100L60-100Z"  horiz-adv-x="620" vert-adv-y="1000"  />

      
      <glyph glyph-name="uni30" unicode="&#x30;" d="M60 135L60 525Q60 547 64.50 565Q69 583 76 596.50Q83 610 96 620Q109 630 120 637Q131 644 151 648.50Q171 653 184 655Q197 657 221.50 658.50Q246 660 259.50 660Q273 660 300 660L570 660Q597 660 610.50 660Q624 660 648.50 658.50Q673 657 686 655Q699 653 719 648.50Q739 644 750 637Q761 630 774 620Q787 610 794 596.50Q801 583 805.50 565Q810 547 810 525L810 135Q810 113 805.50 95Q801 77 794 63.50Q787 50 774 40Q761 30 750 23Q739 16 719 11.50Q699 7 686 5Q673 3 648.50 1.50Q624 0 610.50 0Q597 0 570 0L300 0Q273 0 259.50 0Q246 0 221.50 1.50Q197 3 184 5Q171 7 151 11.50Q131 16 120 23Q109 30 96 40Q83 50 76 63.50Q69 77 64.50 95Q60 113 60 135M210 120Q210 104 220 95.50Q230 87 240 86Q250 85 270 85L600 85Q620 85 630 86Q640 87 650 95.50Q660 104 660 120L660 540Q660 556 650 564.50Q640 573 630 574Q620 575 600 575L270 575Q250 575 240 574Q230 573 220 564.50Q210 556 210 540L210 120Z"  horiz-adv-x="870" vert-adv-y="1000"  />

      
      <glyph glyph-name="uni31" unicode="&#x31;" d="M650 660L650 0L500 0L500 575L280 575L280 660L650 660Z"  horiz-adv-x="870" vert-adv-y="1000"  />

      
      <glyph glyph-name="uni32" unicode="&#x32;" d="M60 0L60 275Q60 297 64.50 315Q69 333 76 346.50Q83 360 96 370Q109 380 120 387Q131 394 151 398.50Q171 403 184 405Q197 407 221.50 408.50Q246 410 259.50 410Q273 410 300 410L600 410Q620 410 630 411Q640 412 650 420.50Q660 429 660 445L660 540Q660 556 650 564.50Q640 573 630 574Q620 575 600 575L110 575L110 660L570 660Q597 660 610.50 660Q624 660 648.50 658.50Q673 657 686 655Q699 653 719 648.50Q739 644 750 637Q761 630 774 620Q787 610 794 596.50Q801 583 805.50 565Q810 547 810 525L810 460Q810 438 805.50 420Q801 402 794 388.50Q787 375 774 365Q761 355 750 348Q739 341 719 336.50Q699 332 686 330Q673 328 648.50 326.50Q624 325 610.50 325Q597 325 570 325L270 325Q250 325 240 324Q230 323 220 314.50Q210 306 210 290L210 85L810 85L810 0L60 0Z"  horiz-adv-x="870" vert-adv-y="1000"  />

      
      <glyph glyph-name="uni33" unicode="&#x33;" d="M90 0L90 85L600 85Q620 85 630 86Q640 87 650 95.50Q660 104 660 120L660 290Q660 306 650 314.50Q640 323 630 324Q620 325 600 325L180 325L180 410L600 410Q620 410 630 411Q640 412 650 420.50Q660 429 660 445L660 540Q660 556 650 564.50Q640 573 630 574Q620 575 600 575L90 575L90 660L570 660Q597 660 610.50 660Q624 660 648.50 658.50Q673 657 686 655Q699 653 719 648.50Q739 644 750 637Q761 630 774 620Q787 610 794 596.50Q801 583 805.50 565Q810 547 810 525L810 470Q810 428 787 403Q764 378 730 370Q764 362 787 337Q810 312 810 270L810 135Q810 113 805.50 95Q801 77 794 63.50Q787 50 774 40Q761 30 750 23Q739 16 719 11.50Q699 7 686 5Q673 3 648.50 1.50Q624 0 610.50 0Q597 0 570 0L90 0Z"  horiz-adv-x="870" vert-adv-y="1000"  />

      
      <glyph glyph-name="uni34" unicode="&#x34;" d="M60 155L60 240L600 660L810 660L810 0L660 0L660 155L60 155M255 240L660 240L660 555L255 240Z"  horiz-adv-x="870" vert-adv-y="1000"  />

      
      <glyph glyph-name="uni35" unicode="&#x35;" d="M60 0L60 85L600 85Q620 85 630 86Q640 87 650 95.50Q660 104 660 120L660 290Q660 306 650 314.50Q640 323 630 324Q620 325 600 325L60 325L60 660L760 660L760 575L210 575L210 410L570 410Q597 410 610.50 410Q624 410 648.50 408.50Q673 407 686 405Q699 403 719 398.50Q739 394 750 387Q761 380 774 370Q787 360 794 346.50Q801 333 805.50 315Q810 297 810 275L810 135Q810 113 805.50 95Q801 77 794 63.50Q787 50 774 40Q761 30 750 23Q739 16 719 11.50Q699 7 686 5Q673 3 648.50 1.50Q624 0 610.50 0Q597 0 570 0L60 0Z"  horiz-adv-x="870" vert-adv-y="1000"  />

      
      <glyph glyph-name="uni36" unicode="&#x36;" d="M60 135L60 500Q60 529 65.50 552.50Q71 576 84.50 592.50Q98 609 111 621Q124 633 148 640Q172 647 189 651.50Q206 656 237.50 657.50Q269 659 287 659.50Q305 660 340 660L760 660L760 575L350 575Q327 575 315 574.50Q303 574 283.50 572Q264 570 253.50 565Q243 560 231.50 551.50Q220 543 215 528.50Q210 514 210 495L210 410L570 410Q597 410 610.50 410Q624 410 648.50 408.50Q673 407 686 405Q699 403 719 398.50Q739 394 750 387Q761 380 774 370Q787 360 794 346.50Q801 333 805.50 315Q810 297 810 275L810 135Q810 113 805.50 95Q801 77 794 63.50Q787 50 774 40Q761 30 750 23Q739 16 719 11.50Q699 7 686 5Q673 3 648.50 1.50Q624 0 610.50 0Q597 0 570 0L300 0Q273 0 259.50 0Q246 0 221.50 1.50Q197 3 184 5Q171 7 151 11.50Q131 16 120 23Q109 30 96 40Q83 50 76 63.50Q69 77 64.50 95Q60 113 60 135M210 120Q210 104 220 95.50Q230 87 240 86Q250 85 270 85L600 85Q620 85 630 86Q640 87 650 95.50Q660 104 660 120L660 290Q660 306 650 314.50Q640 323 630 324Q620 325 600 325L270 325Q250 325 240 324Q230 323 220 314.50Q210 306 210 290L210 120Z"  horiz-adv-x="870" vert-adv-y="1000"  />

      
      <glyph glyph-name="uni37" unicode="&#x37;" d="M60 575L60 660L810 660L810 575L430 0L260 0L640 575L60 575Z"  horiz-adv-x="870" vert-adv-y="1000"  />

      
      <glyph glyph-name="uni38" unicode="&#x38;" d="M60 135L60 270Q60 312 83 337Q106 362 140 370Q106 378 83 403Q60 428 60 470L60 525Q60 547 64.50 565Q69 583 76 596.50Q83 610 96 620Q109 630 120 637Q131 644 151 648.50Q171 653 184 655Q197 657 221.50 658.50Q246 660 259.50 660Q273 660 300 660L570 660Q597 660 610.50 660Q624 660 648.50 658.50Q673 657 686 655Q699 653 719 648.50Q739 644 750 637Q761 630 774 620Q787 610 794 596.50Q801 583 805.50 565Q810 547 810 525L810 470Q810 428 787 403Q764 378 730 370Q764 362 787 337Q810 312 810 270L810 135Q810 113 805.50 95Q801 77 794 63.50Q787 50 774 40Q761 30 750 23Q739 16 719 11.50Q699 7 686 5Q673 3 648.50 1.50Q624 0 610.50 0Q597 0 570 0L300 0Q273 0 259.50 0Q246 0 221.50 1.50Q197 3 184 5Q171 7 151 11.50Q131 16 120 23Q109 30 96 40Q83 50 76 63.50Q69 77 64.50 95Q60 113 60 135M210 120Q210 104 220 95.50Q230 87 240 86Q250 85 270 85L600 85Q620 85 630 86Q640 87 650 95.50Q660 104 660 120L660 290Q660 306 650 314.50Q640 323 630 324Q620 325 600 325L270 325Q250 325 240 324Q230 323 220 314.50Q210 306 210 290L210 120M210 445Q210 429 220 420.50Q230 412 240 411Q250 410 270 410L600 410Q620 410 630 411Q640 412 650 420.50Q660 429 660 445L660 540Q660 556 650 564.50Q640 573 630 574Q620 575 600 575L270 575Q250 575 240 574Q230 573 220 564.50Q210 556 210 540L210 445Z"  horiz-adv-x="870" vert-adv-y="1000"  />

      
      <glyph glyph-name="uni39" unicode="&#x39;" d="M60 460L60 525Q60 547 64.50 565Q69 583 76 596.50Q83 610 96 620Q109 630 120 637Q131 644 151 648.50Q171 653 184 655Q197 657 221.50 658.50Q246 660 259.50 660Q273 660 300 660L570 660Q597 660 610.50 660Q624 660 648.50 658.50Q673 657 686 655Q699 653 719 648.50Q739 644 750 637Q761 630 774 620Q787 610 794 596.50Q801 583 805.50 565Q810 547 810 525L810 160Q810 131 804.50 107.50Q799 84 785.50 67.50Q772 51 759 39Q746 27 722 20Q698 13 681 8.50Q664 4 632.50 2.50Q601 1 583 0.50Q565 0 530 0L100 0L100 85L520 85Q543 85 555 85.50Q567 86 586.50 88Q606 90 616.50 95Q627 100 638.50 108.50Q650 117 655 131.50Q660 146 660 165L660 325L300 325Q273 325 259.50 325Q246 325 221.50 326.50Q197 328 184 330Q171 332 151 336.50Q131 341 120 348Q109 355 96 365Q83 375 76 388.50Q69 402 64.50 420Q60 438 60 460M210 445Q210 429 220 420.50Q230 412 240 411Q250 410 270 410L600 410Q620 410 630 411Q640 412 650 420.50Q660 429 660 445L660 540Q660 556 650 564.50Q640 573 630 574Q620 575 600 575L270 575Q250 575 240 574Q230 573 220 564.50Q210 556 210 540L210 445Z"  horiz-adv-x="870" vert-adv-y="1000"  />

      
      <glyph glyph-name="uni3a" unicode="&#x3a;" d="M75 360L75 480L225 480L225 360L75 360M75 0L75 120L225 120L225 0L75 0Z"  horiz-adv-x="300" vert-adv-y="1000"  />

      
      <glyph glyph-name="uni3b" unicode="&#x3b;" d="M45-150L105 120L245 120L125-150L45-150M105 360L105 480L255 480L255 360L105 360Z"  horiz-adv-x="330" vert-adv-y="1000"  />

      
      <glyph glyph-name="uni3c" unicode="&#x3c;" d="M60 190L60 290L690 500L690 400L210 240L690 80L690-20L60 190Z"  horiz-adv-x="750" vert-adv-y="1000"  />

      
      <glyph glyph-name="uni3d" unicode="&#x3d;" d="M60 75L60 175L640 175L640 75L60 75M60 305L60 405L640 405L640 305L60 305Z"  horiz-adv-x="700" vert-adv-y="1000"  />

      
      <glyph glyph-name="uni3e" unicode="&#x3e;" d="M60-20L60 80L540 240L60 400L60 500L690 290L690 190L60-20Z"  horiz-adv-x="750" vert-adv-y="1000"  />

      
      <glyph glyph-name="uni3f" unicode="&#x3f;" d="M75 575L75 660L535 660Q562 660 575.50 660Q589 660 613.50 658.50Q638 657 651 655Q664 653 684 648.50Q704 644 715 637Q726 630 739 620Q752 610 759 596.50Q766 583 770.50 565Q775 547 775 525L775 460Q775 438 770.50 420Q766 402 759 388.50Q752 375 739 365Q726 355 715 348Q704 341 684 336.50Q664 332 651 330Q638 328 613.50 326.50Q589 325 575.50 325Q562 325 535 325L475 325Q455 325 445 324Q435 323 425 314.50Q415 306 415 290L415 225L265 225L265 275Q265 297 269.50 315Q274 333 281 346.50Q288 360 301 370Q314 380 325 387Q336 394 356 398.50Q376 403 389 405Q402 407 426.50 408.50Q451 410 464.50 410Q478 410 505 410L565 410Q585 410 595 411Q605 412 615 420.50Q625 429 625 445L625 540Q625 556 615 564.50Q605 573 595 574Q585 575 565 575L75 575M265 0L265 120L415 120L415 0L265 0Z"  horiz-adv-x="850" vert-adv-y="1000"  />

      
      <glyph glyph-name="uni40" unicode="&#x40;" d="M75-50L75 530Q75 558 82 578.50Q89 599 105.50 611Q122 623 136.50 630.50Q151 638 179.50 641Q208 644 225 644.50Q242 645 275 645L935 645Q968 645 985 644.50Q1002 644 1030.50 641Q1059 638 1073.50 630.50Q1088 623 1104.50 611Q1121 599 1128 578.50Q1135 558 1135 530L1135 0L515 0Q482 0 465 0.50Q448 1 419.50 4Q391 7 376.50 14.50Q362 22 345.50 34Q329 46 322 66.50Q315 87 315 115L315 365Q315 393 322 413.50Q329 434 345.50 446Q362 458 376.50 465.50Q391 473 419.50 476Q448 479 465 479.50Q482 480 515 480L895 480L895 75L1015 75L1015 530Q1015 546 1009 557Q1003 568 995 573.50Q987 579 971 581.50Q955 584 945 584.50Q935 585 915 585L295 585Q275 585 265 584.50Q255 584 239 581.50Q223 579 215 573.50Q207 568 201 557Q195 546 195 530L195-50Q195-66 201-77Q207-88 215-93.50Q223-99 239-101.50Q255-104 265-104.50Q275-105 295-105L1095-105L1095-165L275-165Q242-165 225-164.50Q208-164 179.50-161Q151-158 136.50-150.50Q122-143 105.50-131Q89-119 82-98.50Q75-78 75-50M455 105Q455 91 463.50 84Q472 77 480 76Q488 75 505 75L755 75L755 405L505 405Q488 405 480 404Q472 403 463.50 396Q455 389 455 375L455 105Z"  horiz-adv-x="1210" vert-adv-y="1000"  />

      
      <glyph glyph-name="uni41" unicode="&#x41;" d="M20 0L350 660L540 660L870 0L720 0L615 210L275 210L170 0L20 0M315 290L575 290L445 550L315 290Z"  horiz-adv-x="890" vert-adv-y="1000"  />

      
      <glyph glyph-name="uni42" unicode="&#x42;" d="M70 0L70 660L570 660Q597 660 610.50 660Q624 660 648.50 658.50Q673 657 686 655Q699 653 719 648.50Q739 644 750 637Q761 630 774 620Q787 610 794 596.50Q801 583 805.50 565Q810 547 810 525L810 470Q810 428 787 403Q764 378 730 370Q820 348 820 270L820 135Q820 113 815.50 95Q811 77 804 63.50Q797 50 784 40Q771 30 760 23Q749 16 729 11.50Q709 7 696 5Q683 3 658.50 1.50Q634 0 620.50 0Q607 0 580 0L70 0M220 85L610 85Q630 85 640 86Q650 87 660 95.50Q670 104 670 120L670 290Q670 306 660 314.50Q650 323 640 324Q630 325 610 325L220 325L220 85M220 410L600 410Q620 410 630 411Q640 412 650 420.50Q660 429 660 445L660 540Q660 556 650 564.50Q640 573 630 574Q620 575 600 575L220 575L220 410Z"  horiz-adv-x="890" vert-adv-y="1000"  />

      
      <glyph glyph-name="uni43" unicode="&#x43;" d="M70 135L70 525Q70 547 74.50 565Q79 583 86 596.50Q93 610 106 620Q119 630 130 637Q141 644 161 648.50Q181 653 194 655Q207 657 231.50 658.50Q256 660 269.50 660Q283 660 310 660L770 660L770 575L280 575Q260 575 250 574Q240 573 230 564.50Q220 556 220 540L220 120Q220 104 230 95.50Q240 87 250 86Q260 85 280 85L770 85L770 0L310 0Q283 0 269.50 0Q256 0 231.50 1.50Q207 3 194 5Q181 7 161 11.50Q141 16 130 23Q119 30 106 40Q93 50 86 63.50Q79 77 74.50 95Q70 113 70 135Z"  horiz-adv-x="840" vert-adv-y="1000"  />

      
      <glyph glyph-name="uni44" unicode="&#x44;" d="M70 0L70 660L460 660Q518 660 567 652Q616 644 664 623Q712 602 745.50 569.50Q779 537 799.50 483.50Q820 430 820 360L820 300Q820 230 799.50 176.50Q779 123 745.50 90.50Q712 58 664 37Q616 16 567 8Q518 0 460 0L70 0M220 85L430 85Q670 85 670 285L670 375Q670 575 430 575L220 575L220 85Z"  horiz-adv-x="890" vert-adv-y="1000"  />

      
      <glyph glyph-name="uni45" unicode="&#x45;" d="M70 0L70 660L770 660L770 575L220 575L220 410L720 410L720 325L220 325L220 85L770 85L770 0L70 0Z"  horiz-adv-x="840" vert-adv-y="1000"  />

      
      <glyph glyph-name="uni46" unicode="&#x46;" d="M70 0L70 660L770 660L770 575L220 575L220 410L710 410L710 325L220 325L220 0L70 0Z"  horiz-adv-x="820" vert-adv-y="1000"  />

      
      <glyph glyph-name="uni47" unicode="&#x47;" d="M70 135L70 525Q70 547 74.50 565Q79 583 86 596.50Q93 610 106 620Q119 630 130 637Q141 644 161 648.50Q181 653 194 655Q207 657 231.50 658.50Q256 660 269.50 660Q283 660 310 660L770 660L770 575L280 575Q260 575 250 574Q240 573 230 564.50Q220 556 220 540L220 120Q220 104 230 95.50Q240 87 250 86Q260 85 280 85L610 85Q630 85 640 86Q650 87 660 95.50Q670 104 670 120L670 325L520 325L520 410L820 410L820 135Q820 113 815.50 95Q811 77 804 63.50Q797 50 784 40Q771 30 760 23Q749 16 729 11.50Q709 7 696 5Q683 3 658.50 1.50Q634 0 620.50 0Q607 0 580 0L310 0Q283 0 269.50 0Q256 0 231.50 1.50Q207 3 194 5Q181 7 161 11.50Q141 16 130 23Q119 30 106 40Q93 50 86 63.50Q79 77 74.50 95Q70 113 70 135Z"  horiz-adv-x="890" vert-adv-y="1000"  />

      
      <glyph glyph-name="uni48" unicode="&#x48;" d="M70 0L70 660L220 660L220 410L670 410L670 660L820 660L820 0L670 0L670 325L220 325L220 0L70 0Z"  horiz-adv-x="890" vert-adv-y="1000"  />

      
      <glyph glyph-name="uni49" unicode="&#x49;" d="M70 0L70 660L220 660L220 0L70 0Z"  horiz-adv-x="290" vert-adv-y="1000"  />

      
      <glyph glyph-name="uni4a" unicode="&#x4a;" d="M70 135L70 255L220 255L220 120Q220 104 230 95.50Q240 87 250 86Q260 85 280 85L610 85Q630 85 640 86Q650 87 660 95.50Q670 104 670 120L670 660L820 660L820 135Q820 113 815.50 95Q811 77 804 63.50Q797 50 784 40Q771 30 760 23Q749 16 729 11.50Q709 7 696 5Q683 3 658.50 1.50Q634 0 620.50 0Q607 0 580 0L310 0Q283 0 269.50 0Q256 0 231.50 1.50Q207 3 194 5Q181 7 161 11.50Q141 16 130 23Q119 30 106 40Q93 50 86 63.50Q79 77 74.50 95Q70 113 70 135Z"  horiz-adv-x="890" vert-adv-y="1000"  />

      
      <glyph glyph-name="uni4b" unicode="&#x4b;" d="M70 0L70 660L220 660L220 310L570 660L750 660L440 350L790 0L610 0L350 260L220 130L220 0L70 0Z"  horiz-adv-x="810" vert-adv-y="1000"  />

      
      <glyph glyph-name="uni4c" unicode="&#x4c;" d="M70 0L70 660L220 660L220 85L770 85L770 0L70 0Z"  horiz-adv-x="800" vert-adv-y="1000"  />

      
      <glyph glyph-name="uni4d" unicode="&#x4d;" d="M70 0L70 660L270 660L525 150L780 660L980 660L980 0L830 0L830 490L585 0L465 0L220 490L220 0L70 0Z"  horiz-adv-x="1050" vert-adv-y="1000"  />

      
      <glyph glyph-name="uni4e" unicode="&#x4e;" d="M70 0L70 660L230 660L670 170L670 660L820 660L820 0L660 0L220 490L220 0L70 0Z"  horiz-adv-x="890" vert-adv-y="1000"  />

      
      <glyph glyph-name="uni4f" unicode="&#x4f;" d="M70 135L70 525Q70 547 74.50 565Q79 583 86 596.50Q93 610 106 620Q119 630 130 637Q141 644 161 648.50Q181 653 194 655Q207 657 231.50 658.50Q256 660 269.50 660Q283 660 310 660L580 660Q607 660 620.50 660Q634 660 658.50 658.50Q683 657 696 655Q709 653 729 648.50Q749 644 760 637Q771 630 784 620Q797 610 804 596.50Q811 583 815.50 565Q820 547 820 525L820 135Q820 113 815.50 95Q811 77 804 63.50Q797 50 784 40Q771 30 760 23Q749 16 729 11.50Q709 7 696 5Q683 3 658.50 1.50Q634 0 620.50 0Q607 0 580 0L310 0Q283 0 269.50 0Q256 0 231.50 1.50Q207 3 194 5Q181 7 161 11.50Q141 16 130 23Q119 30 106 40Q93 50 86 63.50Q79 77 74.50 95Q70 113 70 135M220 120Q220 104 230 95.50Q240 87 250 86Q260 85 280 85L610 85Q630 85 640 86Q650 87 660 95.50Q670 104 670 120L670 540Q670 556 660 564.50Q650 573 640 574Q630 575 610 575L280 575Q260 575 250 574Q240 573 230 564.50Q220 556 220 540L220 120Z"  horiz-adv-x="890" vert-adv-y="1000"  />

      
      <glyph glyph-name="uni50" unicode="&#x50;" d="M70 0L70 660L580 660Q607 660 620.50 660Q634 660 658.50 658.50Q683 657 696 655Q709 653 729 648.50Q749 644 760 637Q771 630 784 620Q797 610 804 596.50Q811 583 815.50 565Q820 547 820 525L820 405Q820 383 815.50 365Q811 347 804 333.50Q797 320 784 310Q771 300 760 293Q749 286 729 281.50Q709 277 696 275Q683 273 658.50 271.50Q634 270 620.50 270Q607 270 580 270L220 270L220 0L70 0M220 355L610 355Q630 355 640 356Q650 357 660 365.50Q670 374 670 390L670 540Q670 556 660 564.50Q650 573 640 574Q630 575 610 575L220 575L220 355Z"  horiz-adv-x="890" vert-adv-y="1000"  />

      
      <glyph glyph-name="uni51" unicode="&#x51;" d="M70 135L70 525Q70 547 74.50 565Q79 583 86 596.50Q93 610 106 620Q119 630 130 637Q141 644 161 648.50Q181 653 194 655Q207 657 231.50 658.50Q256 660 269.50 660Q283 660 310 660L580 660Q607 660 620.50 660Q634 660 658.50 658.50Q683 657 696 655Q709 653 729 648.50Q749 644 760 637Q771 630 784 620Q797 610 804 596.50Q811 583 815.50 565Q820 547 820 525L820 135Q820 113 815.50 95Q811 77 804 63.50Q797 50 784 40Q771 30 760 23Q749 16 729 11.50Q709 7 696 5Q683 3 658.50 1.50Q634 0 620.50 0Q607 0 580 0L730-150L550-150L400 0L310 0Q283 0 269.50 0Q256 0 231.50 1.50Q207 3 194 5Q181 7 161 11.50Q141 16 130 23Q119 30 106 40Q93 50 86 63.50Q79 77 74.50 95Q70 113 70 135M220 120Q220 104 230 95.50Q240 87 250 86Q260 85 280 85L610 85Q630 85 640 86Q650 87 660 95.50Q670 104 670 120L670 540Q670 556 660 564.50Q650 573 640 574Q630 575 610 575L280 575Q260 575 250 574Q240 573 230 564.50Q220 556 220 540L220 120Z"  horiz-adv-x="890" vert-adv-y="1000"  />

      
      <glyph glyph-name="uni52" unicode="&#x52;" d="M70 0L70 660L580 660Q607 660 620.50 660Q634 660 658.50 658.50Q683 657 696 655Q709 653 729 648.50Q749 644 760 637Q771 630 784 620Q797 610 804 596.50Q811 583 815.50 565Q820 547 820 525L820 425Q820 403 815.50 385Q811 367 804 353.50Q797 340 784 330Q771 320 760 313Q749 306 729 301.50Q709 297 696 295Q683 293 658.50 291.50Q634 290 620.50 290Q607 290 580 290L570 290L860 0L680 0L390 290L220 290L220 0L70 0M220 375L610 375Q630 375 640 376Q650 377 660 385.50Q670 394 670 410L670 540Q670 556 660 564.50Q650 573 640 574Q630 575 610 575L220 575L220 375Z"  horiz-adv-x="890" vert-adv-y="1000"  />

      
      <glyph glyph-name="uni53" unicode="&#x53;" d="M70 0L70 85L610 85Q630 85 640 86Q650 87 660 95.50Q670 104 670 120L670 290Q670 306 660 314.50Q650 323 640 324Q630 325 610 325L310 325Q283 325 269.50 325Q256 325 231.50 326.50Q207 328 194 330Q181 332 161 336.50Q141 341 130 348Q119 355 106 365Q93 375 86 388.50Q79 402 74.50 420Q70 438 70 460L70 525Q70 547 74.50 565Q79 583 86 596.50Q93 610 106 620Q119 630 130 637Q141 644 161 648.50Q181 653 194 655Q207 657 231.50 658.50Q256 660 269.50 660Q283 660 310 660L770 660L770 575L280 575Q260 575 250 574Q240 573 230 564.50Q220 556 220 540L220 445Q220 429 230 420.50Q240 412 250 411Q260 410 280 410L580 410Q607 410 620.50 410Q634 410 658.50 408.50Q683 407 696 405Q709 403 729 398.50Q749 394 760 387Q771 380 784 370Q797 360 804 346.50Q811 333 815.50 315Q820 297 820 275L820 135Q820 113 815.50 95Q811 77 804 63.50Q797 50 784 40Q771 30 760 23Q749 16 729 11.50Q709 7 696 5Q683 3 658.50 1.50Q634 0 620.50 0Q607 0 580 0L70 0Z"  horiz-adv-x="890" vert-adv-y="1000"  />

      
      <glyph glyph-name="uni54" unicode="&#x54;" d="M30 575L30 660L860 660L860 575L520 575L520 0L370 0L370 575L30 575Z"  horiz-adv-x="890" vert-adv-y="1000"  />

      
      <glyph glyph-name="uni55" unicode="&#x55;" d="M70 135L70 660L220 660L220 120Q220 104 230 95.50Q240 87 250 86Q260 85 280 85L610 85Q630 85 640 86Q650 87 660 95.50Q670 104 670 120L670 660L820 660L820 135Q820 113 815.50 95Q811 77 804 63.50Q797 50 784 40Q771 30 760 23Q749 16 729 11.50Q709 7 696 5Q683 3 658.50 1.50Q634 0 620.50 0Q607 0 580 0L310 0Q283 0 269.50 0Q256 0 231.50 1.50Q207 3 194 5Q181 7 161 11.50Q141 16 130 23Q119 30 106 40Q93 50 86 63.50Q79 77 74.50 95Q70 113 70 135Z"  horiz-adv-x="890" vert-adv-y="1000"  />

      
      <glyph glyph-name="uni56" unicode="&#x56;" d="M20 660L175 660L445 120L715 660L870 660L540 0L350 0L20 660Z"  horiz-adv-x="890" vert-adv-y="1000"  />

      
      <glyph glyph-name="uni57" unicode="&#x57;" d="M20 660L170 660L345 135L510 630L690 630L855 135L1030 660L1180 660L960 0L770 0L600 510L430 0L240 0L20 660Z"  horiz-adv-x="1200" vert-adv-y="1000"  />

      
      <glyph glyph-name="uni58" unicode="&#x58;" d="M20 660L200 660L440 420L680 660L860 660L530 330L860 0L680 0L440 240L200 0L20 0L350 330L20 660Z"  horiz-adv-x="880" vert-adv-y="1000"  />

      
      <glyph glyph-name="uni59" unicode="&#x59;" d="M20 660L200 660L445 415L690 660L870 660L520 310L520 0L370 0L370 310L20 660Z"  horiz-adv-x="890" vert-adv-y="1000"  />

      
      <glyph glyph-name="uni5a" unicode="&#x5a;" d="M50 0L50 85L585 575L70 575L70 660L780 660L780 575L245 85L800 85L800 0L50 0Z"  horiz-adv-x="850" vert-adv-y="1000"  />

      
      <glyph glyph-name="uni5b" unicode="&#x5b;" d="M75-225L75 660L395 660L395 585L195 585L195-150L395-150L395-225L75-225Z"  horiz-adv-x="455" vert-adv-y="1000"  />

      
      <glyph glyph-name="uni5c" unicode="&#x5c;" d="M60 660L180 660L560-100L440-100L60 660Z"  horiz-adv-x="620" vert-adv-y="1000"  />

      
      <glyph glyph-name="uni5d" unicode="&#x5d;" d="M60-150L260-150L260 585L60 585L60 660L380 660L380-225L60-225L60-150Z"  horiz-adv-x="455" vert-adv-y="1000"  />

      
      <glyph glyph-name="uni5e" unicode="&#x5e;" d="M60 300L240 660L360 660L540 300L420 300L300 540L180 300L60 300Z"  horiz-adv-x="600" vert-adv-y="1000"  />

      
      <glyph glyph-name="uni5f" unicode="&#x5f;" d="M20-150L620-150L620-225L20-225L20-150Z"  horiz-adv-x="640" vert-adv-y="1000"  />

      
      <glyph glyph-name="uni60" unicode="&#x60;" d="M90 710L240 710L340 550L250 550L90 710Z"  horiz-adv-x="500" vert-adv-y="1000"  />

      
      <glyph glyph-name="uni61" unicode="&#x61;" d="M60 115L60 185Q60 213 67 233.50Q74 254 90.50 266Q107 278 121.50 285.50Q136 293 164.50 296Q193 299 210 299.50Q227 300 260 300L500 300L500 375Q500 389 491.50 396Q483 403 475 404Q467 405 450 405L100 405L100 480L440 480Q473 480 490 479.50Q507 479 535.50 476Q564 473 578.50 465.50Q593 458 609.50 446Q626 434 633 413.50Q640 393 640 365L640 0L260 0Q227 0 210 0.50Q193 1 164.50 4Q136 7 121.50 14.50Q107 22 90.50 34Q74 46 67 66.50Q60 87 60 115M200 105Q200 91 208.50 84Q217 77 225 76Q233 75 250 75L500 75L500 225L250 225Q233 225 225 224Q217 223 208.50 216Q200 209 200 195L200 105Z"  horiz-adv-x="700" vert-adv-y="1000"  />

      
      <glyph glyph-name="uni62" unicode="&#x62;" d="M60 0L60 660L200 660L200 480L440 480Q473 480 490 479.50Q507 479 535.50 476Q564 473 578.50 465.50Q593 458 609.50 446Q626 434 633 413.50Q640 393 640 365L640 115Q640 87 633 66.50Q626 46 609.50 34Q593 22 578.50 14.50Q564 7 535.50 4Q507 1 490 0.50Q473 0 440 0L60 0M200 75L450 75Q467 75 475 76Q483 77 491.50 84Q500 91 500 105L500 375Q500 389 491.50 396Q483 403 475 404Q467 405 450 405L200 405L200 75Z"  horiz-adv-x="700" vert-adv-y="1000"  />

      
      <glyph glyph-name="uni63" unicode="&#x63;" d="M60 115L60 365Q60 393 67 413.50Q74 434 90.50 446Q107 458 121.50 465.50Q136 473 164.50 476Q193 479 210 479.50Q227 480 260 480L600 480L600 405L250 405Q233 405 225 404Q217 403 208.50 396Q200 389 200 375L200 105Q200 91 208.50 84Q217 77 225 76Q233 75 250 75L600 75L600 0L260 0Q227 0 210 0.50Q193 1 164.50 4Q136 7 121.50 14.50Q107 22 90.50 34Q74 46 67 66.50Q60 87 60 115Z"  horiz-adv-x="660" vert-adv-y="1000"  />

      
      <glyph glyph-name="uni64" unicode="&#x64;" d="M60 115L60 365Q60 393 67 413.50Q74 434 90.50 446Q107 458 121.50 465.50Q136 473 164.50 476Q193 479 210 479.50Q227 480 260 480L500 480L500 660L640 660L640 0L260 0Q227 0 210 0.50Q193 1 164.50 4Q136 7 121.50 14.50Q107 22 90.50 34Q74 46 67 66.50Q60 87 60 115M200 105Q200 91 208.50 84Q217 77 225 76Q233 75 250 75L500 75L500 405L250 405Q233 405 225 404Q217 403 208.50 396Q200 389 200 375L200 105Z"  horiz-adv-x="700" vert-adv-y="1000"  />

      
      <glyph glyph-name="uni65" unicode="&#x65;" d="M60 115L60 365Q60 393 67 413.50Q74 434 90.50 446Q107 458 121.50 465.50Q136 473 164.50 476Q193 479 210 479.50Q227 480 260 480L440 480Q473 480 490 479.50Q507 479 535.50 476Q564 473 578.50 465.50Q593 458 609.50 446Q626 434 633 413.50Q640 393 640 365L640 225L200 225L200 105Q200 91 208.50 84Q217 77 225 76Q233 75 250 75L620 75L620 0L260 0Q227 0 210 0.50Q193 1 164.50 4Q136 7 121.50 14.50Q107 22 90.50 34Q74 46 67 66.50Q60 87 60 115M200 300L500 300L500 375Q500 389 491.50 396Q483 403 475 404Q467 405 450 405L250 405Q233 405 225 404Q217 403 208.50 396Q200 389 200 375L200 300Z"  horiz-adv-x="700" vert-adv-y="1000"  />

      
      <glyph glyph-name="uni66" unicode="&#x66;" d="M60 0L60 545Q60 573 67 593.50Q74 614 90.50 626Q107 638 121.50 645.50Q136 653 164.50 656Q193 659 210 659.50Q227 660 260 660L400 660L400 585L250 585Q233 585 225 584Q217 583 208.50 576Q200 569 200 555L200 480L400 480L400 405L200 405L200 0L60 0Z"  horiz-adv-x="460" vert-adv-y="1000"  />

      
      <glyph glyph-name="uni67" unicode="&#x67;" d="M60 115L60 365Q60 393 67 413.50Q74 434 90.50 446Q107 458 121.50 465.50Q136 473 164.50 476Q193 479 210 479.50Q227 480 260 480L640 480L640-125Q640-149 633-167Q626-185 609.50-195.50Q593-206 578.50-212.50Q564-219 535.50-221.50Q507-224 490-224.50Q473-225 440-225L80-225L80-150L450-150Q467-150 475-149Q483-148 491.50-142.50Q500-137 500-125L500 0L260 0Q227 0 210 0.50Q193 1 164.50 4Q136 7 121.50 14.50Q107 22 90.50 34Q74 46 67 66.50Q60 87 60 115M200 105Q200 91 208.50 84Q217 77 225 76Q233 75 250 75L500 75L500 405L250 405Q233 405 225 404Q217 403 208.50 396Q200 389 200 375L200 105Z"  horiz-adv-x="700" vert-adv-y="1000"  />

      
      <glyph glyph-name="uni68" unicode="&#x68;" d="M60 0L60 660L200 660L200 480L440 480Q473 480 490 479.50Q507 479 535.50 476Q564 473 578.50 465.50Q593 458 609.50 446Q626 434 633 413.50Q640 393 640 365L640 0L500 0L500 375Q500 389 491.50 396Q483 403 475 404Q467 405 450 405L200 405L200 0L60 0Z"  horiz-adv-x="700" vert-adv-y="1000"  />

      
      <glyph glyph-name="uni69" unicode="&#x69;" d="M60 0L60 480L200 480L200 0L60 0M60 560L60 660L200 660L200 560L60 560Z"  horiz-adv-x="260" vert-adv-y="1000"  />

      
      <glyph glyph-name="uni6a" unicode="&#x6a;" d="M-50-150Q10-135 35-101Q60-67 60 0L60 480L200 480L200 0Q200-41 190.50-74.50Q181-108 168.50-130Q156-152 132.50-169Q109-186 91-195Q73-204 42.50-211Q12-218-4-220Q-20-222-50-225L-50-150M60 560L60 660L200 660L200 560L60 560Z"  horiz-adv-x="260" vert-adv-y="1000"  />

      
      <glyph glyph-name="uni6b" unicode="&#x6b;" d="M60 0L60 660L200 660L200 240L440 480L600 480L370 250L620 0L460 0L290 170L200 80L200 0L60 0Z"  horiz-adv-x="640" vert-adv-y="1000"  />

      
      <glyph glyph-name="uni6c" unicode="&#x6c;" d="M60 0L60 660L200 660L200 0L60 0Z"  horiz-adv-x="260" vert-adv-y="1000"  />

      
      <glyph glyph-name="uni6d" unicode="&#x6d;" d="M60 0L60 480L640 480Q673 480 690 479.50Q707 479 735.50 476Q764 473 778.50 465.50Q793 458 809.50 446Q826 434 833 413.50Q840 393 840 365L840 0L700 0L700 375Q700 389 691.50 396Q683 403 675 404Q667 405 650 405L520 405L520 0L380 0L380 375Q380 389 371.50 396Q363 403 355 404Q347 405 330 405L200 405L200 0L60 0Z"  horiz-adv-x="900" vert-adv-y="1000"  />

      
      <glyph glyph-name="uni6e" unicode="&#x6e;" d="M60 0L60 480L440 480Q473 480 490 479.50Q507 479 535.50 476Q564 473 578.50 465.50Q593 458 609.50 446Q626 434 633 413.50Q640 393 640 365L640 0L500 0L500 375Q500 389 491.50 396Q483 403 475 404Q467 405 450 405L200 405L200 0L60 0Z"  horiz-adv-x="700" vert-adv-y="1000"  />

      
      <glyph glyph-name="uni6f" unicode="&#x6f;" d="M60 115L60 365Q60 393 67 413.50Q74 434 90.50 446Q107 458 121.50 465.50Q136 473 164.50 476Q193 479 210 479.50Q227 480 260 480L440 480Q473 480 490 479.50Q507 479 535.50 476Q564 473 578.50 465.50Q593 458 609.50 446Q626 434 633 413.50Q640 393 640 365L640 115Q640 87 633 66.50Q626 46 609.50 34Q593 22 578.50 14.50Q564 7 535.50 4Q507 1 490 0.50Q473 0 440 0L260 0Q227 0 210 0.50Q193 1 164.50 4Q136 7 121.50 14.50Q107 22 90.50 34Q74 46 67 66.50Q60 87 60 115M200 105Q200 91 208.50 84Q217 77 225 76Q233 75 250 75L450 75Q467 75 475 76Q483 77 491.50 84Q500 91 500 105L500 375Q500 389 491.50 396Q483 403 475 404Q467 405 450 405L250 405Q233 405 225 404Q217 403 208.50 396Q200 389 200 375L200 105Z"  horiz-adv-x="700" vert-adv-y="1000"  />

      
      <glyph glyph-name="uni70" unicode="&#x70;" d="M60-225L60 480L440 480Q473 480 490 479.50Q507 479 535.50 476Q564 473 578.50 465.50Q593 458 609.50 446Q626 434 633 413.50Q640 393 640 365L640 115Q640 87 633 66.50Q626 46 609.50 34Q593 22 578.50 14.50Q564 7 535.50 4Q507 1 490 0.50Q473 0 440 0L200 0L200-225L60-225M200 75L450 75Q467 75 475 76Q483 77 491.50 84Q500 91 500 105L500 375Q500 389 491.50 396Q483 403 475 404Q467 405 450 405L200 405L200 75Z"  horiz-adv-x="700" vert-adv-y="1000"  />

      
      <glyph glyph-name="uni71" unicode="&#x71;" d="M60 115L60 365Q60 393 67 413.50Q74 434 90.50 446Q107 458 121.50 465.50Q136 473 164.50 476Q193 479 210 479.50Q227 480 260 480L640 480L640-225L500-225L500 0L260 0Q227 0 210 0.50Q193 1 164.50 4Q136 7 121.50 14.50Q107 22 90.50 34Q74 46 67 66.50Q60 87 60 115M200 105Q200 91 208.50 84Q217 77 225 76Q233 75 250 75L500 75L500 405L250 405Q233 405 225 404Q217 403 208.50 396Q200 389 200 375L200 105Z"  horiz-adv-x="700" vert-adv-y="1000"  />

      
      <glyph glyph-name="uni72" unicode="&#x72;" d="M60 0L60 365Q60 393 67 413.50Q74 434 90.50 446Q107 458 121.50 465.50Q136 473 164.50 476Q193 479 210 479.50Q227 480 260 480L400 480L400 405L250 405Q233 405 225 404Q217 403 208.50 396Q200 389 200 375L200 0L60 0Z"  horiz-adv-x="460" vert-adv-y="1000"  />

      
      <glyph glyph-name="uni73" unicode="&#x73;" d="M60 0L60 75L450 75Q467 75 475 76Q483 77 491.50 84Q500 91 500 105L500 195Q500 209 491.50 216Q483 223 475 224Q467 225 450 225L260 225Q227 225 210 225.50Q193 226 164.50 229Q136 232 121.50 239.50Q107 247 90.50 259Q74 271 67 291.50Q60 312 60 340L60 365Q60 393 67 413.50Q74 434 90.50 446Q107 458 121.50 465.50Q136 473 164.50 476Q193 479 210 479.50Q227 480 260 480L600 480L600 405L250 405Q233 405 225 404Q217 403 208.50 396Q200 389 200 375L200 330Q200 316 208.50 309Q217 302 225 301Q233 300 250 300L440 300Q473 300 490 299.50Q507 299 535.50 296Q564 293 578.50 285.50Q593 278 609.50 266Q626 254 633 233.50Q640 213 640 185L640 115Q640 87 633 66.50Q626 46 609.50 34Q593 22 578.50 14.50Q564 7 535.50 4Q507 1 490 0.50Q473 0 440 0L60 0Z"  horiz-adv-x="700" vert-adv-y="1000"  />

      
      <glyph glyph-name="uni74" unicode="&#x74;" d="M60 115L60 660L200 660L200 480L400 480L400 405L200 405L200 105Q200 91 208.50 84Q217 77 225 76Q233 75 250 75L400 75L400 0L260 0Q227 0 210 0.50Q193 1 164.50 4Q136 7 121.50 14.50Q107 22 90.50 34Q74 46 67 66.50Q60 87 60 115Z"  horiz-adv-x="460" vert-adv-y="1000"  />

      
      <glyph glyph-name="uni75" unicode="&#x75;" d="M60 115L60 480L200 480L200 105Q200 91 208.50 84Q217 77 225 76Q233 75 250 75L450 75Q467 75 475 76Q483 77 491.50 84Q500 91 500 105L500 480L640 480L640 115Q640 87 633 66.50Q626 46 609.50 34Q593 22 578.50 14.50Q564 7 535.50 4Q507 1 490 0.50Q473 0 440 0L260 0Q227 0 210 0.50Q193 1 164.50 4Q136 7 121.50 14.50Q107 22 90.50 34Q74 46 67 66.50Q60 87 60 115Z"  horiz-adv-x="700" vert-adv-y="1000"  />

      
      <glyph glyph-name="uni76" unicode="&#x76;" d="M20 480L160 480L340 120L520 480L660 480L420 0L260 0L20 480Z"  horiz-adv-x="680" vert-adv-y="1000"  />

      
      <glyph glyph-name="uni77" unicode="&#x77;" d="M20 480L150 480L265 135L370 450L510 450L615 135L730 480L860 480L700 0L550 0L440 330L330 0L180 0L20 480Z"  horiz-adv-x="880" vert-adv-y="1000"  />

      
      <glyph glyph-name="uni78" unicode="&#x78;" d="M20 0L260 240L20 480L180 480L340 320L500 480L660 480L420 240L660 0L500 0L340 160L180 0L20 0Z"  horiz-adv-x="680" vert-adv-y="1000"  />

      
      <glyph glyph-name="uni79" unicode="&#x79;" d="M20 480L160 480L340 120L520 480L660 480L360-120Q341-157 328-175.50Q315-194 285-209.50Q255-225 210-225L80-225L80-150L160-150Q191-150 202-142.50Q213-135 225-110L270-20L20 480Z"  horiz-adv-x="680" vert-adv-y="1000"  />

      
      <glyph glyph-name="uni7a" unicode="&#x7a;" d="M50 0L50 75L435 405L70 405L70 480L610 480L610 405L225 75L630 75L630 0L50 0Z"  horiz-adv-x="680" vert-adv-y="1000"  />

      
      <glyph glyph-name="uni7b" unicode="&#x7b;" d="M75 175L75 275L245 360L245 545Q245 573 252 593.50Q259 614 275.50 626Q292 638 306.50 645.50Q321 653 349.50 656Q378 659 395 659.50Q412 660 445 660L565 660L565 585L415 585Q398 585 390 584Q382 583 373.50 576Q365 569 365 555L365 320L175 225L365 130L365-120Q365-134 373.50-141Q382-148 390-149Q398-150 415-150L565-150L565-225L445-225Q412-225 395-224.50Q378-224 349.50-221Q321-218 306.50-210.50Q292-203 275.50-191Q259-179 252-158.50Q245-138 245-110L245 90L75 175Z"  horiz-adv-x="625" vert-adv-y="1000"  />

      
      <glyph glyph-name="uni7c" unicode="&#x7c;" d="M100-225L100 660L220 660L220-225L100-225Z"  horiz-adv-x="320" vert-adv-y="1000"  />

      
      <glyph glyph-name="uni7d" unicode="&#x7d;" d="M60-150L210-150Q227-150 235-149Q243-148 251.50-141Q260-134 260-120L260 130L450 225L260 320L260 555Q260 569 251.50 576Q243 583 235 584Q227 585 210 585L60 585L60 660L180 660Q213 660 230 659.50Q247 659 275.50 656Q304 653 318.50 645.50Q333 638 349.50 626Q366 614 373 593.50Q380 573 380 545L380 360L550 275L550 175L380 90L380-110Q380-138 373-158.50Q366-179 349.50-191Q333-203 318.50-210.50Q304-218 275.50-221Q247-224 230-224.50Q213-225 180-225L60-225L60-150Z"  horiz-adv-x="625" vert-adv-y="1000"  />

      
      <glyph glyph-name="uni7e" unicode="&#x7e;" d="M60 220Q88 277 102 302.50Q116 328 138 358Q160 388 181.50 399Q203 410 230 410Q255 410 295 390L445 315Q451 312 460 312Q468 312 476 319.50Q484 327 494 343.50Q504 360 511 372.50Q518 385 530 410L660 410Q632 353 618 327.50Q604 302 582 272Q560 242 538.50 231Q517 220 490 220Q465 220 425 240L275 315Q269 318 260 318Q252 318 244 310.50Q236 303 226 286.50Q216 270 209 257.50Q202 245 190 220L60 220Z"  horiz-adv-x="720" vert-adv-y="1000"  />

      
      <glyph glyph-name="unia1" unicode="&#xa1;" d="M75 210L225 210L225-225L75-225L75 210M75 315L75 435L225 435L225 315L75 315Z"  horiz-adv-x="300" vert-adv-y="1000"  />

      
      <glyph glyph-name="unia2" unicode="&#xa2;" d="M60 115L60 365Q60 393 67 413.50Q74 434 90.50 446Q107 458 121.50 465.50Q136 473 164.50 476Q193 479 210 479.50Q227 480 260 480L320 480L320 555L420 555L420 480L600 480L600 405L420 405L420 75L600 75L600 0L420 0L420-75L320-75L320 0L260 0Q227 0 210 0.50Q193 1 164.50 4Q136 7 121.50 14.50Q107 22 90.50 34Q74 46 67 66.50Q60 87 60 115M200 105Q200 91 208.50 84Q217 77 225 76Q233 75 250 75L320 75L320 405L250 405Q233 405 225 404Q217 403 208.50 396Q200 389 200 375L200 105Z"  horiz-adv-x="660" vert-adv-y="1000"  />

      
      <glyph glyph-name="unia3" unicode="&#xa3;" d="M70 0L70 85L170 85L170 325L70 325L70 400L170 400L170 525Q170 547 174.50 565Q179 583 186 596.50Q193 610 206 620Q219 630 230 637Q241 644 261 648.50Q281 653 294 655Q307 657 331.50 658.50Q356 660 369.50 660Q383 660 410 660L580 660Q607 660 620.50 660Q634 660 658.50 658.50Q683 657 696 655Q709 653 729 648.50Q749 644 760 637Q771 630 784 620Q797 610 804 596.50Q811 583 815.50 565Q820 547 820 525L820 490L670 490L670 540Q670 556 660 564.50Q650 573 640 574Q630 575 610 575L380 575Q360 575 350 574Q340 573 330 564.50Q320 556 320 540L320 400L570 400L570 325L320 325L320 85L820 85L820 0L70 0Z"  horiz-adv-x="890" vert-adv-y="1000"  />

      
      <glyph glyph-name="unia4" unicode="&#xa4;" d="M60 140L160 240L160 420L60 520L140 600L240 500L540 500L640 600L720 520L620 420L620 240L720 140L640 60L540 160L240 160L140 60L60 140M280 260Q280 243 290 239Q300 235 320 235L460 235Q473 235 480 236Q487 237 493.50 242.50Q500 248 500 260L500 400Q500 417 490 421Q480 425 460 425L320 425Q307 425 300 424Q293 423 286.50 417.50Q280 412 280 400L280 260Z"  horiz-adv-x="780" vert-adv-y="1000"  />

      
      <glyph glyph-name="unia5" unicode="&#xa5;" d="M20 660L200 660L445 415L690 660L870 660L535 325L720 325L720 250L520 250L520 190L720 190L720 115L520 115L520 0L370 0L370 115L170 115L170 190L370 190L370 250L170 250L170 325L355 325L20 660Z"  horiz-adv-x="890" vert-adv-y="1000"  />

      
      <glyph glyph-name="unia6" unicode="&#xa6;" d="M100 140L220 140L220-225L100-225L100 140M100 300L100 660L220 660L220 300L100 300Z"  horiz-adv-x="320" vert-adv-y="1000"  />

      
      <glyph glyph-name="unia7" unicode="&#xa7;" d="M70-25L220-25L220-55Q220-71 230-79.50Q240-88 250-89Q260-90 280-90L560-90Q580-90 590-89Q600-88 610-79.50Q620-71 620-55L620 40Q620 56 610 64.50Q600 73 590 74Q580 75 560 75L310 75Q283 75 269.50 75Q256 75 231.50 76.50Q207 78 194 80Q181 82 161 86.50Q141 91 130 98Q119 105 106 115Q93 125 86 138.50Q79 152 74.50 170Q70 188 70 210L70 270Q70 312 93 337Q116 362 150 370Q116 378 93 403Q70 428 70 470L70 525Q70 547 74.50 565Q79 583 86 596.50Q93 610 106 620Q119 630 130 637Q141 644 161 648.50Q181 653 194 655Q207 657 231.50 658.50Q256 660 269.50 660Q283 660 310 660L530 660Q557 660 570.50 660Q584 660 608.50 658.50Q633 657 646 655Q659 653 679 648.50Q699 644 710 637Q721 630 734 620Q747 610 754 596.50Q761 583 765.50 565Q770 547 770 525L770 510L620 510L620 540Q620 556 610 564.50Q600 573 590 574Q580 575 560 575L280 575Q260 575 250 574Q240 573 230 564.50Q220 556 220 540L220 445Q220 429 230 420.50Q240 412 250 411Q260 410 280 410L530 410Q557 410 570.50 410Q584 410 608.50 408.50Q633 407 646 405Q659 403 679 398.50Q699 394 710 387Q721 380 734 370Q747 360 754 346.50Q761 333 765.50 315Q770 297 770 275L770 220Q770 178 747 153Q724 128 690 120Q724 112 747 87Q770 62 770 20L770-40Q770-62 765.50-80Q761-98 754-111.50Q747-125 734-135Q721-145 710-152Q699-159 679-163.50Q659-168 646-170Q633-172 608.50-173.50Q584-175 570.50-175Q557-175 530-175L310-175Q283-175 269.50-175Q256-175 231.50-173.50Q207-172 194-170Q181-168 161-163.50Q141-159 130-152Q119-145 106-135Q93-125 86-111.50Q79-98 74.50-80Q70-62 70-40L70-25M220 195Q220 179 230 170.50Q240 162 250 161Q260 160 280 160L560 160Q580 160 590 161Q600 162 610 170.50Q620 179 620 195L620 290Q620 306 610 314.50Q600 323 590 324Q580 325 560 325L280 325Q260 325 250 324Q240 323 230 314.50Q220 306 220 290L220 195Z"  horiz-adv-x="840" vert-adv-y="1000"  />

      
      <glyph glyph-name="unia8" unicode="&#xa8;" d="M75 580L75 680L195 680L195 580L75 580M305 580L305 680L425 680L425 580L305 580Z"  horiz-adv-x="500" vert-adv-y="1000"  />

      
      <glyph glyph-name="unia9" unicode="&#xa9;" d="M60 115L60 545Q60 573 67 593.50Q74 614 90.50 626Q107 638 121.50 645.50Q136 653 164.50 656Q193 659 210 659.50Q227 660 260 660L740 660Q773 660 790 659.50Q807 659 835.50 656Q864 653 878.50 645.50Q893 638 909.50 626Q926 614 933 593.50Q940 573 940 545L940 115Q940 87 933 66.50Q926 46 909.50 34Q893 22 878.50 14.50Q864 7 835.50 4Q807 1 790 0.50Q773 0 740 0L260 0Q227 0 210 0.50Q193 1 164.50 4Q136 7 121.50 14.50Q107 22 90.50 34Q74 46 67 66.50Q60 87 60 115M180 115Q180 99 186 88Q192 77 200 71.50Q208 66 224 63.50Q240 61 250 60.50Q260 60 280 60L720 60Q740 60 750 60.50Q760 61 776 63.50Q792 66 800 71.50Q808 77 814 88Q820 99 820 115L820 545Q820 561 814 572Q808 583 800 588.50Q792 594 776 596.50Q760 599 750 599.50Q740 600 720 600L280 600Q260 600 250 599.50Q240 599 224 596.50Q208 594 200 588.50Q192 583 186 572Q180 561 180 545L180 115M300 250L300 410Q300 436 310 454Q320 472 332.50 481Q345 490 370 494.50Q395 499 411.50 499.50Q428 500 460 500L700 500L700 440L460 440Q447 440 440 439Q433 438 426.50 432.50Q420 427 420 415L420 245Q420 228 430 224Q440 220 460 220L700 220L700 160L460 160Q428 160 411.50 160.50Q395 161 370 165.50Q345 170 332.50 179Q320 188 310 206Q300 224 300 250Z"  horiz-adv-x="1000" vert-adv-y="1000"  />

      
      <glyph glyph-name="uniaa" unicode="&#xaa;" d="M60 180L60 240L480 240L480 180L60 180M60 410L60 445Q60 471 70 489Q80 507 92.50 516Q105 525 130 529.50Q155 534 171.50 534.50Q188 535 220 535L360 535L360 575Q360 592 350 596Q340 600 320 600L100 600L100 660L320 660Q352 660 368.50 659.50Q385 659 410 654.50Q435 650 447.50 641Q460 632 470 614Q480 596 480 570L480 320L220 320Q188 320 171.50 320.50Q155 321 130 325.50Q105 330 92.50 339Q80 348 70 366Q60 384 60 410M180 405Q180 388 190 384Q200 380 220 380L360 380L360 475L220 475Q207 475 200 474Q193 473 186.50 467.50Q180 462 180 450L180 405Z"  horiz-adv-x="540" vert-adv-y="1000"  />

      
      <glyph glyph-name="uniab" unicode="&#xab;" d="M350 240L550 440L670 440L490 240L670 40L550 40L350 240M60 240L260 440L380 440L200 240L380 40L260 40L60 240Z"  horiz-adv-x="730" vert-adv-y="1000"  />

      
      <glyph glyph-name="uniac" unicode="&#xac;" d="M60 290L60 390L580 390L580 90L460 90L460 290L60 290Z"  horiz-adv-x="640" vert-adv-y="1000"  />

      
      <glyph glyph-name="uniad" unicode="&#xad;" d="M60 190L60 290L460 290L460 190L60 190Z"  horiz-adv-x="520" vert-adv-y="1000"  />

      
      <glyph glyph-name="uniae" unicode="&#xae;" d="M60 115L60 545Q60 573 67 593.50Q74 614 90.50 626Q107 638 121.50 645.50Q136 653 164.50 656Q193 659 210 659.50Q227 660 260 660L760 660Q793 660 810 659.50Q827 659 855.50 656Q884 653 898.50 645.50Q913 638 929.50 626Q946 614 953 593.50Q960 573 960 545L960 115Q960 87 953 66.50Q946 46 929.50 34Q913 22 898.50 14.50Q884 7 855.50 4Q827 1 810 0.50Q793 0 760 0L260 0Q227 0 210 0.50Q193 1 164.50 4Q136 7 121.50 14.50Q107 22 90.50 34Q74 46 67 66.50Q60 87 60 115M180 115Q180 99 186 88Q192 77 200 71.50Q208 66 224 63.50Q240 61 250 60.50Q260 60 280 60L740 60Q760 60 770 60.50Q780 61 796 63.50Q812 66 820 71.50Q828 77 834 88Q840 99 840 115L840 545Q840 561 834 572Q828 583 820 588.50Q812 594 796 596.50Q780 599 770 599.50Q760 600 740 600L280 600Q260 600 250 599.50Q240 599 224 596.50Q208 594 200 588.50Q192 583 186 572Q180 561 180 545L180 115M300 160L300 500L560 500Q592 500 608.50 499.50Q625 499 650 494.50Q675 490 687.50 481Q700 472 710 454Q720 436 720 410L720 395Q720 341 684.50 323Q649 305 585 305L730 160L610 160L465 305L420 305L420 160L300 160M420 365L560 365Q573 365 580 366Q587 367 593.50 372.50Q600 378 600 390L600 415Q600 432 590 436Q580 440 560 440L420 440L420 365Z"  horiz-adv-x="1020" vert-adv-y="1000"  />

      
      <glyph glyph-name="uniaf" unicode="&#xaf;" d="M70 585L70 660L430 660L430 585L70 585Z"  horiz-adv-x="500" vert-adv-y="1000"  />

      
      <glyph glyph-name="unib0" unicode="&#xb0;" d="M60 480L60 570Q60 596 70 614Q80 632 92.50 641Q105 650 130 654.50Q155 659 171.50 659.50Q188 660 220 660L320 660Q352 660 368.50 659.50Q385 659 410 654.50Q435 650 447.50 641Q460 632 470 614Q480 596 480 570L480 480Q480 454 470 436Q460 418 447.50 409Q435 400 410 395.50Q385 391 368.50 390.50Q352 390 320 390L220 390Q188 390 171.50 390.50Q155 391 130 395.50Q105 400 92.50 409Q80 418 70 436Q60 454 60 480M180 475Q180 458 190 454Q200 450 220 450L320 450Q333 450 340 451Q347 452 353.50 457.50Q360 463 360 475L360 575Q360 592 350 596Q340 600 320 600L220 600Q207 600 200 599Q193 598 186.50 592.50Q180 587 180 575L180 475Z"  horiz-adv-x="540" vert-adv-y="1000"  />

      
      <glyph glyph-name="unib1" unicode="&#xb1;" d="M60 0L60 100L640 100L640 0L60 0M60 300L60 400L275 400L275 550L425 550L425 400L640 400L640 300L425 300L425 150L275 150L275 300L60 300Z"  horiz-adv-x="700" vert-adv-y="1000"  />

      
      <glyph glyph-name="unib2" unicode="&#xb2;" d="M60 320L60 445Q60 471 70 489Q80 507 92.50 516Q105 525 130 529.50Q155 534 171.50 534.50Q188 535 220 535L320 535Q333 535 340 536Q347 537 353.50 542.50Q360 548 360 560L360 575Q360 592 350 596Q340 600 320 600L80 600L80 660L320 660Q352 660 368.50 659.50Q385 659 410 654.50Q435 650 447.50 641Q460 632 470 614Q480 596 480 570Q480 543 470 524Q460 505 447.50 495.50Q435 486 410 481Q385 476 368.50 475.50Q352 475 320 475L220 475Q207 475 200 474Q193 473 186.50 467.50Q180 462 180 450L180 380L480 380L480 320L60 320Z"  horiz-adv-x="540" vert-adv-y="1000"  />

      
      <glyph glyph-name="unib3" unicode="&#xb3;" d="M60 320L60 380L320 380Q333 380 340 381Q347 382 353.50 387.50Q360 393 360 405L360 450Q360 467 350 471Q340 475 320 475L120 475L120 535L320 535Q333 535 340 536Q347 537 353.50 542.50Q360 548 360 560L360 575Q360 592 350 596Q340 600 320 600L60 600L60 660L320 660Q352 660 368.50 659.50Q385 659 410 654.50Q435 650 447.50 641Q460 632 470 614Q480 596 480 570Q480 520 420 505Q480 490 480 440L480 410Q480 384 470 366Q460 348 447.50 339Q435 330 410 325.50Q385 321 368.50 320.50Q352 320 320 320L60 320Z"  horiz-adv-x="540" vert-adv-y="1000"  />

      
      <glyph glyph-name="unib4" unicode="&#xb4;" d="M160 550L260 710L410 710L250 550L160 550Z"  horiz-adv-x="500" vert-adv-y="1000"  />

      
      <glyph glyph-name="unib5" unicode="&#xb5;" d="M60-225L60 480L200 480L200 100Q200 83 212.50 79Q225 75 250 75L450 75Q467 75 475 76Q483 77 491.50 84Q500 91 500 105L500 480L640 480L640 115Q640 87 633 66.50Q626 46 609.50 34Q593 22 578.50 14.50Q564 7 535.50 4Q507 1 490 0.50Q473 0 440 0L200 0L200-225L60-225Z"  horiz-adv-x="700" vert-adv-y="1000"  />

      
      <glyph glyph-name="unib6" unicode="&#xb6;" d="M60 430L60 490Q60 660 290 660L650 660L650-225L530-225L530 585L410 585L410-225L290-225L290 260Q60 260 60 430Z"  horiz-adv-x="710" vert-adv-y="1000"  />

      
      <glyph glyph-name="unib7" unicode="&#xb7;" d="M75 180L75 300L225 300L225 180L75 180Z"  horiz-adv-x="300" vert-adv-y="1000"  />

      
      <glyph glyph-name="unib8" unicode="&#xb8;" d="M160-175L190-175Q270-175 270-130Q270-107 252.50-81Q235-55 180 0L280 0Q332-52 351-80.50Q370-109 370-135Q370-173 345-194Q320-215 288.50-220Q257-225 210-225L160-225L160-175Z"  horiz-adv-x="500" vert-adv-y="1000"  />

      
      <glyph glyph-name="unib9" unicode="&#xb9;" d="M60 600L60 660L280 660L280 320L160 320L160 600L60 600Z"  horiz-adv-x="340" vert-adv-y="1000"  />

      
      <glyph glyph-name="uniba" unicode="&#xba;" d="M60 180L60 240L480 240L480 180L60 180M60 410L60 570Q60 596 70 614Q80 632 92.50 641Q105 650 130 654.50Q155 659 171.50 659.50Q188 660 220 660L320 660Q352 660 368.50 659.50Q385 659 410 654.50Q435 650 447.50 641Q460 632 470 614Q480 596 480 570L480 410Q480 384 470 366Q460 348 447.50 339Q435 330 410 325.50Q385 321 368.50 320.50Q352 320 320 320L220 320Q188 320 171.50 320.50Q155 321 130 325.50Q105 330 92.50 339Q80 348 70 366Q60 384 60 410M180 405Q180 388 190 384Q200 380 220 380L320 380Q333 380 340 381Q347 382 353.50 387.50Q360 393 360 405L360 575Q360 592 350 596Q340 600 320 600L220 600Q207 600 200 599Q193 598 186.50 592.50Q180 587 180 575L180 405Z"  horiz-adv-x="540" vert-adv-y="1000"  />

      
      <glyph glyph-name="unibb" unicode="&#xbb;" d="M350 40L530 240L350 440L470 440L670 240L470 40L350 40M60 40L240 240L60 440L180 440L380 240L180 40L60 40Z"  horiz-adv-x="730" vert-adv-y="1000"  />

      
      <glyph glyph-name="unibc" unicode="&#xbc;" d="M510 70L510 130L780 340L930 340L930 0L810 0L810 70L510 70M639 130L810 130L810 263L639 130M210 0L540 660L660 660L330 0L210 0M60 600L60 660L280 660L280 320L160 320L160 600L60 600Z"  horiz-adv-x="990" vert-adv-y="1000"  />

      
      <glyph glyph-name="unibd" unicode="&#xbd;" d="M550 0L550 125Q550 151 560 169Q570 187 582.50 196Q595 205 620 209.50Q645 214 661.50 214.50Q678 215 710 215L810 215Q823 215 830 216Q837 217 843.50 222.50Q850 228 850 240L850 255Q850 272 840 276Q830 280 810 280L570 280L570 340L810 340Q842 340 858.50 339.50Q875 339 900 334.50Q925 330 937.50 321Q950 312 960 294Q970 276 970 250Q970 223 960 204Q950 185 937.50 175.50Q925 166 900 161Q875 156 858.50 155.50Q842 155 810 155L710 155Q697 155 690 154Q683 153 676.50 147.50Q670 142 670 130L670 60L970 60L970 0L550 0M210 0L540 660L660 660L330 0L210 0M60 600L60 660L280 660L280 320L160 320L160 600L60 600Z"  horiz-adv-x="1030" vert-adv-y="1000"  />

      
      <glyph glyph-name="unibe" unicode="&#xbe;" d="M670 70L670 130L940 340L1090 340L1090 0L970 0L970 70L670 70M799 130L970 130L970 263L799 130M60 320L60 380L320 380Q333 380 340 381Q347 382 353.50 387.50Q360 393 360 405L360 450Q360 467 350 471Q340 475 320 475L120 475L120 535L320 535Q333 535 340 536Q347 537 353.50 542.50Q360 548 360 560L360 575Q360 592 350 596Q340 600 320 600L60 600L60 660L320 660Q352 660 368.50 659.50Q385 659 410 654.50Q435 650 447.50 641Q460 632 470 614Q480 596 480 570Q480 520 420 505Q480 490 480 440L480 410Q480 384 470 366Q460 348 447.50 339Q435 330 410 325.50Q385 321 368.50 320.50Q352 320 320 320L60 320M370 0L700 660L820 660L490 0L370 0Z"  horiz-adv-x="1150" vert-adv-y="1000"  />

      
      <glyph glyph-name="unibf" unicode="&#xbf;" d="M75-25Q75-3 79.50 15Q84 33 91 46.50Q98 60 111 70Q124 80 135 87Q146 94 166 98.50Q186 103 199 105Q212 107 236.50 108.50Q261 110 274.50 110Q288 110 315 110L375 110Q395 110 405 111Q415 112 425 120.50Q435 129 435 145L435 210L585 210L585 160Q585 138 580.50 120Q576 102 569 88.50Q562 75 549 65Q536 55 525 48Q514 41 494 36.50Q474 32 461 30Q448 28 423.50 26.50Q399 25 385.50 25Q372 25 345 25L285 25Q265 25 255 24Q245 23 235 14.50Q225 6 225-10L225-105Q225-121 235-129.50Q245-138 255-139Q265-140 285-140L775-140L775-225L315-225Q288-225 274.50-225Q261-225 236.50-223.50Q212-222 199-220Q186-218 166-213.50Q146-209 135-202Q124-195 111-185Q98-175 91-161.50Q84-148 79.50-130Q75-112 75-90L75-25M435 315L435 435L585 435L585 315L435 315Z"  horiz-adv-x="850" vert-adv-y="1000"  />

      
      <glyph glyph-name="unic0" unicode="&#xc0;" d="M285 890L435 890L535 730L445 730L285 890M20 0L350 660L540 660L870 0L720 0L615 210L275 210L170 0L20 0M315 290L575 290L445 550L315 290Z"  horiz-adv-x="890" vert-adv-y="1000"  />

      
      <glyph glyph-name="unic1" unicode="&#xc1;" d="M355 730L455 890L605 890L445 730L355 730M20 0L350 660L540 660L870 0L720 0L615 210L275 210L170 0L20 0M315 290L575 290L445 550L315 290Z"  horiz-adv-x="890" vert-adv-y="1000"  />

      
      <glyph glyph-name="unic2" unicode="&#xc2;" d="M245 730L405 890L485 890L645 730L545 730L445 820L345 730L245 730M20 0L350 660L540 660L870 0L720 0L615 210L275 210L170 0L20 0M315 290L575 290L445 550L315 290Z"  horiz-adv-x="890" vert-adv-y="1000"  />

      
      <glyph glyph-name="unic3" unicode="&#xc3;" d="M340 880Q358 880 374 874Q390 868 445 840Q505 810 515 810Q527 810 535.50 824Q544 838 555 880L645 880Q627 804 604 772Q581 740 550 740Q532 740 516 746Q500 752 445 780Q385 810 375 810Q363 810 354.50 796Q346 782 335 740L245 740Q263 816 286 848Q309 880 340 880M20 0L350 660L540 660L870 0L720 0L615 210L275 210L170 0L20 0M315 290L575 290L445 550L315 290Z"  horiz-adv-x="890" vert-adv-y="1000"  />

      
      <glyph glyph-name="unic4" unicode="&#xc4;" d="M270 760L270 860L390 860L390 760L270 760M500 760L500 860L620 860L620 760L500 760M20 0L350 660L540 660L870 0L720 0L615 210L275 210L170 0L20 0M315 290L575 290L445 550L315 290Z"  horiz-adv-x="890" vert-adv-y="1000"  />

      
      <glyph glyph-name="unic5" unicode="&#xc5;" d="M270 745L270 805Q270 890 390 890L500 890Q620 890 620 805L620 745Q620 660 500 660L390 660Q270 660 270 745M370 730Q370 710 400 710L490 710Q520 710 520 730L520 820Q520 840 490 840L400 840Q370 840 370 820L370 730M20 0L350 660L540 660L870 0L720 0L615 210L275 210L170 0L20 0M315 290L575 290L445 550L315 290Z"  horiz-adv-x="890" vert-adv-y="1000"  />

      
      <glyph glyph-name="unic6" unicode="&#xc6;" d="M20 0L350 660L1220 660L1220 575L720 575L720 410L1170 410L1170 325L720 325L720 85L1220 85L1220 0L570 0L570 210L275 210L170 0L20 0M315 290L570 290L570 575L457 575L315 290Z"  horiz-adv-x="1290" vert-adv-y="1000"  />

      
      <glyph glyph-name="unic7" unicode="&#xc7;" d="M370-175L400-175Q480-175 480-130Q480-107 462.50-81Q445-55 390 0L490 0Q542-52 561-80.50Q580-109 580-135Q580-173 555-194Q530-215 498.50-220Q467-225 420-225L370-225L370-175M70 135L70 525Q70 547 74.50 565Q79 583 86 596.50Q93 610 106 620Q119 630 130 637Q141 644 161 648.50Q181 653 194 655Q207 657 231.50 658.50Q256 660 269.50 660Q283 660 310 660L770 660L770 575L280 575Q260 575 250 574Q240 573 230 564.50Q220 556 220 540L220 120Q220 104 230 95.50Q240 87 250 86Q260 85 280 85L770 85L770 0L310 0Q283 0 269.50 0Q256 0 231.50 1.50Q207 3 194 5Q181 7 161 11.50Q141 16 130 23Q119 30 106 40Q93 50 86 63.50Q79 77 74.50 95Q70 113 70 135Z"  horiz-adv-x="840" vert-adv-y="1000"  />

      
      <glyph glyph-name="unic8" unicode="&#xc8;" d="M260 890L410 890L510 730L420 730L260 890M70 0L70 660L770 660L770 575L220 575L220 410L720 410L720 325L220 325L220 85L770 85L770 0L70 0Z"  horiz-adv-x="840" vert-adv-y="1000"  />

      
      <glyph glyph-name="unic9" unicode="&#xc9;" d="M330 730L430 890L580 890L420 730L330 730M70 0L70 660L770 660L770 575L220 575L220 410L720 410L720 325L220 325L220 85L770 85L770 0L70 0Z"  horiz-adv-x="840" vert-adv-y="1000"  />

      
      <glyph glyph-name="unica" unicode="&#xca;" d="M220 730L380 890L460 890L620 730L520 730L420 820L320 730L220 730M70 0L70 660L770 660L770 575L220 575L220 410L720 410L720 325L220 325L220 85L770 85L770 0L70 0Z"  horiz-adv-x="840" vert-adv-y="1000"  />

      
      <glyph glyph-name="unicb" unicode="&#xcb;" d="M245 760L245 860L365 860L365 760L245 760M475 760L475 860L595 860L595 760L475 760M70 0L70 660L770 660L770 575L220 575L220 410L720 410L720 325L220 325L220 85L770 85L770 0L70 0Z"  horiz-adv-x="840" vert-adv-y="1000"  />

      
      <glyph glyph-name="unicc" unicode="&#xcc;" d="M-10 890L140 890L240 730L150 730L-10 890M70 0L70 660L220 660L220 0L70 0Z"  horiz-adv-x="290" vert-adv-y="1000"  />

      
      <glyph glyph-name="unicd" unicode="&#xcd;" d="M50 730L150 890L300 890L140 730L50 730M70 0L70 660L220 660L220 0L70 0Z"  horiz-adv-x="290" vert-adv-y="1000"  />

      
      <glyph glyph-name="unice" unicode="&#xce;" d="M-40 730L120 890L200 890L360 730L260 730L160 820L60 730L-40 730M85 0L85 660L235 660L235 0L85 0Z"  horiz-adv-x="320" vert-adv-y="1000"  />

      
      <glyph glyph-name="unicf" unicode="&#xcf;" d="M-15 760L-15 860L105 860L105 760L-15 760M215 760L215 860L335 860L335 760L215 760M85 0L85 660L235 660L235 0L85 0Z"  horiz-adv-x="320" vert-adv-y="1000"  />

      
      <glyph glyph-name="unid0" unicode="&#xd0;" d="M20 330L20 405L100 405L100 660L490 660Q548 660 597 652Q646 644 694 623Q742 602 775.50 569.50Q809 537 829.50 483.50Q850 430 850 360L850 300Q850 230 829.50 176.50Q809 123 775.50 90.50Q742 58 694 37Q646 16 597 8Q548 0 490 0L100 0L100 330L20 330M250 85L460 85Q700 85 700 285L700 375Q700 575 460 575L250 575L250 405L475 405L475 330L250 330L250 85Z"  horiz-adv-x="920" vert-adv-y="1000"  />

      
      <glyph glyph-name="unid1" unicode="&#xd1;" d="M340 880Q358 880 374 874Q390 868 445 840Q505 810 515 810Q527 810 535.50 824Q544 838 555 880L645 880Q627 804 604 772Q581 740 550 740Q532 740 516 746Q500 752 445 780Q385 810 375 810Q363 810 354.50 796Q346 782 335 740L245 740Q263 816 286 848Q309 880 340 880M70 0L70 660L230 660L670 170L670 660L820 660L820 0L660 0L220 490L220 0L70 0Z"  horiz-adv-x="890" vert-adv-y="1000"  />

      
      <glyph glyph-name="unid2" unicode="&#xd2;" d="M285 890L435 890L535 730L445 730L285 890M70 135L70 525Q70 547 74.50 565Q79 583 86 596.50Q93 610 106 620Q119 630 130 637Q141 644 161 648.50Q181 653 194 655Q207 657 231.50 658.50Q256 660 269.50 660Q283 660 310 660L580 660Q607 660 620.50 660Q634 660 658.50 658.50Q683 657 696 655Q709 653 729 648.50Q749 644 760 637Q771 630 784 620Q797 610 804 596.50Q811 583 815.50 565Q820 547 820 525L820 135Q820 113 815.50 95Q811 77 804 63.50Q797 50 784 40Q771 30 760 23Q749 16 729 11.50Q709 7 696 5Q683 3 658.50 1.50Q634 0 620.50 0Q607 0 580 0L310 0Q283 0 269.50 0Q256 0 231.50 1.50Q207 3 194 5Q181 7 161 11.50Q141 16 130 23Q119 30 106 40Q93 50 86 63.50Q79 77 74.50 95Q70 113 70 135M220 120Q220 104 230 95.50Q240 87 250 86Q260 85 280 85L610 85Q630 85 640 86Q650 87 660 95.50Q670 104 670 120L670 540Q670 556 660 564.50Q650 573 640 574Q630 575 610 575L280 575Q260 575 250 574Q240 573 230 564.50Q220 556 220 540L220 120Z"  horiz-adv-x="890" vert-adv-y="1000"  />

      
      <glyph glyph-name="unid3" unicode="&#xd3;" d="M355 730L455 890L605 890L445 730L355 730M70 135L70 525Q70 547 74.50 565Q79 583 86 596.50Q93 610 106 620Q119 630 130 637Q141 644 161 648.50Q181 653 194 655Q207 657 231.50 658.50Q256 660 269.50 660Q283 660 310 660L580 660Q607 660 620.50 660Q634 660 658.50 658.50Q683 657 696 655Q709 653 729 648.50Q749 644 760 637Q771 630 784 620Q797 610 804 596.50Q811 583 815.50 565Q820 547 820 525L820 135Q820 113 815.50 95Q811 77 804 63.50Q797 50 784 40Q771 30 760 23Q749 16 729 11.50Q709 7 696 5Q683 3 658.50 1.50Q634 0 620.50 0Q607 0 580 0L310 0Q283 0 269.50 0Q256 0 231.50 1.50Q207 3 194 5Q181 7 161 11.50Q141 16 130 23Q119 30 106 40Q93 50 86 63.50Q79 77 74.50 95Q70 113 70 135M220 120Q220 104 230 95.50Q240 87 250 86Q260 85 280 85L610 85Q630 85 640 86Q650 87 660 95.50Q670 104 670 120L670 540Q670 556 660 564.50Q650 573 640 574Q630 575 610 575L280 575Q260 575 250 574Q240 573 230 564.50Q220 556 220 540L220 120Z"  horiz-adv-x="890" vert-adv-y="1000"  />

      
      <glyph glyph-name="unid4" unicode="&#xd4;" d="M245 730L405 890L485 890L645 730L545 730L445 820L345 730L245 730M70 135L70 525Q70 547 74.50 565Q79 583 86 596.50Q93 610 106 620Q119 630 130 637Q141 644 161 648.50Q181 653 194 655Q207 657 231.50 658.50Q256 660 269.50 660Q283 660 310 660L580 660Q607 660 620.50 660Q634 660 658.50 658.50Q683 657 696 655Q709 653 729 648.50Q749 644 760 637Q771 630 784 620Q797 610 804 596.50Q811 583 815.50 565Q820 547 820 525L820 135Q820 113 815.50 95Q811 77 804 63.50Q797 50 784 40Q771 30 760 23Q749 16 729 11.50Q709 7 696 5Q683 3 658.50 1.50Q634 0 620.50 0Q607 0 580 0L310 0Q283 0 269.50 0Q256 0 231.50 1.50Q207 3 194 5Q181 7 161 11.50Q141 16 130 23Q119 30 106 40Q93 50 86 63.50Q79 77 74.50 95Q70 113 70 135M220 120Q220 104 230 95.50Q240 87 250 86Q260 85 280 85L610 85Q630 85 640 86Q650 87 660 95.50Q670 104 670 120L670 540Q670 556 660 564.50Q650 573 640 574Q630 575 610 575L280 575Q260 575 250 574Q240 573 230 564.50Q220 556 220 540L220 120Z"  horiz-adv-x="890" vert-adv-y="1000"  />

      
      <glyph glyph-name="unid5" unicode="&#xd5;" d="M340 880Q358 880 374 874Q390 868 445 840Q505 810 515 810Q527 810 535.50 824Q544 838 555 880L645 880Q627 804 604 772Q581 740 550 740Q532 740 516 746Q500 752 445 780Q385 810 375 810Q363 810 354.50 796Q346 782 335 740L245 740Q263 816 286 848Q309 880 340 880M70 135L70 525Q70 547 74.50 565Q79 583 86 596.50Q93 610 106 620Q119 630 130 637Q141 644 161 648.50Q181 653 194 655Q207 657 231.50 658.50Q256 660 269.50 660Q283 660 310 660L580 660Q607 660 620.50 660Q634 660 658.50 658.50Q683 657 696 655Q709 653 729 648.50Q749 644 760 637Q771 630 784 620Q797 610 804 596.50Q811 583 815.50 565Q820 547 820 525L820 135Q820 113 815.50 95Q811 77 804 63.50Q797 50 784 40Q771 30 760 23Q749 16 729 11.50Q709 7 696 5Q683 3 658.50 1.50Q634 0 620.50 0Q607 0 580 0L310 0Q283 0 269.50 0Q256 0 231.50 1.50Q207 3 194 5Q181 7 161 11.50Q141 16 130 23Q119 30 106 40Q93 50 86 63.50Q79 77 74.50 95Q70 113 70 135M220 120Q220 104 230 95.50Q240 87 250 86Q260 85 280 85L610 85Q630 85 640 86Q650 87 660 95.50Q670 104 670 120L670 540Q670 556 660 564.50Q650 573 640 574Q630 575 610 575L280 575Q260 575 250 574Q240 573 230 564.50Q220 556 220 540L220 120Z"  horiz-adv-x="890" vert-adv-y="1000"  />

      
      <glyph glyph-name="unid6" unicode="&#xd6;" d="M270 760L270 860L390 860L390 760L270 760M500 760L500 860L620 860L620 760L500 760M70 135L70 525Q70 547 74.50 565Q79 583 86 596.50Q93 610 106 620Q119 630 130 637Q141 644 161 648.50Q181 653 194 655Q207 657 231.50 658.50Q256 660 269.50 660Q283 660 310 660L580 660Q607 660 620.50 660Q634 660 658.50 658.50Q683 657 696 655Q709 653 729 648.50Q749 644 760 637Q771 630 784 620Q797 610 804 596.50Q811 583 815.50 565Q820 547 820 525L820 135Q820 113 815.50 95Q811 77 804 63.50Q797 50 784 40Q771 30 760 23Q749 16 729 11.50Q709 7 696 5Q683 3 658.50 1.50Q634 0 620.50 0Q607 0 580 0L310 0Q283 0 269.50 0Q256 0 231.50 1.50Q207 3 194 5Q181 7 161 11.50Q141 16 130 23Q119 30 106 40Q93 50 86 63.50Q79 77 74.50 95Q70 113 70 135M220 120Q220 104 230 95.50Q240 87 250 86Q260 85 280 85L610 85Q630 85 640 86Q650 87 660 95.50Q670 104 670 120L670 540Q670 556 660 564.50Q650 573 640 574Q630 575 610 575L280 575Q260 575 250 574Q240 573 230 564.50Q220 556 220 540L220 120Z"  horiz-adv-x="890" vert-adv-y="1000"  />

      
      <glyph glyph-name="unid7" unicode="&#xd7;" d="M60 80L220 240L60 400L140 480L300 320L460 480L540 400L380 240L540 80L460 0L300 160L140 0L60 80Z"  horiz-adv-x="600" vert-adv-y="1000"  />

      
      <glyph glyph-name="unid8" unicode="&#xd8;" d="M20 95L20 185L120 225L120 525Q120 547 124.50 565Q129 583 136 596.50Q143 610 156 620Q169 630 180 637Q191 644 211 648.50Q231 653 244 655Q257 657 281.50 658.50Q306 660 319.50 660Q333 660 360 660L630 660Q657 660 670.50 660Q684 660 708.50 658.50Q733 657 746 655Q759 653 779 648.50Q799 644 810 637Q821 630 834 620Q847 610 854 596.50Q861 583 865.50 565Q870 547 870 525L970 565L970 475L870 435L870 135Q870 113 865.50 95Q861 77 854 63.50Q847 50 834 40Q821 30 810 23Q799 16 779 11.50Q759 7 746 5Q733 3 708.50 1.50Q684 0 670.50 0Q657 0 630 0L360 0Q333 0 319.50 0Q306 0 281.50 1.50Q257 3 244 5Q231 7 211 11.50Q191 16 180 23Q169 30 156 40Q143 50 136 63.50Q129 77 124.50 95Q120 113 120 135L20 95M270 120Q270 104 280 95.50Q290 87 300 86Q310 85 330 85L660 85Q680 85 690 86Q700 87 710 95.50Q720 104 720 120L720 375L270 195L270 120M270 285L720 465L720 540Q720 556 710 564.50Q700 573 690 574Q680 575 660 575L330 575Q310 575 300 574Q290 573 280 564.50Q270 556 270 540L270 285Z"  horiz-adv-x="990" vert-adv-y="1000"  />

      
      <glyph glyph-name="unid9" unicode="&#xd9;" d="M285 890L435 890L535 730L445 730L285 890M70 135L70 660L220 660L220 120Q220 104 230 95.50Q240 87 250 86Q260 85 280 85L610 85Q630 85 640 86Q650 87 660 95.50Q670 104 670 120L670 660L820 660L820 135Q820 113 815.50 95Q811 77 804 63.50Q797 50 784 40Q771 30 760 23Q749 16 729 11.50Q709 7 696 5Q683 3 658.50 1.50Q634 0 620.50 0Q607 0 580 0L310 0Q283 0 269.50 0Q256 0 231.50 1.50Q207 3 194 5Q181 7 161 11.50Q141 16 130 23Q119 30 106 40Q93 50 86 63.50Q79 77 74.50 95Q70 113 70 135Z"  horiz-adv-x="890" vert-adv-y="1000"  />

      
      <glyph glyph-name="unida" unicode="&#xda;" d="M355 730L455 890L605 890L445 730L355 730M70 135L70 660L220 660L220 120Q220 104 230 95.50Q240 87 250 86Q260 85 280 85L610 85Q630 85 640 86Q650 87 660 95.50Q670 104 670 120L670 660L820 660L820 135Q820 113 815.50 95Q811 77 804 63.50Q797 50 784 40Q771 30 760 23Q749 16 729 11.50Q709 7 696 5Q683 3 658.50 1.50Q634 0 620.50 0Q607 0 580 0L310 0Q283 0 269.50 0Q256 0 231.50 1.50Q207 3 194 5Q181 7 161 11.50Q141 16 130 23Q119 30 106 40Q93 50 86 63.50Q79 77 74.50 95Q70 113 70 135Z"  horiz-adv-x="890" vert-adv-y="1000"  />

      
      <glyph glyph-name="unidb" unicode="&#xdb;" d="M245 730L405 890L485 890L645 730L545 730L445 820L345 730L245 730M70 135L70 660L220 660L220 120Q220 104 230 95.50Q240 87 250 86Q260 85 280 85L610 85Q630 85 640 86Q650 87 660 95.50Q670 104 670 120L670 660L820 660L820 135Q820 113 815.50 95Q811 77 804 63.50Q797 50 784 40Q771 30 760 23Q749 16 729 11.50Q709 7 696 5Q683 3 658.50 1.50Q634 0 620.50 0Q607 0 580 0L310 0Q283 0 269.50 0Q256 0 231.50 1.50Q207 3 194 5Q181 7 161 11.50Q141 16 130 23Q119 30 106 40Q93 50 86 63.50Q79 77 74.50 95Q70 113 70 135Z"  horiz-adv-x="890" vert-adv-y="1000"  />

      
      <glyph glyph-name="unidc" unicode="&#xdc;" d="M270 760L270 860L390 860L390 760L270 760M500 760L500 860L620 860L620 760L500 760M70 135L70 660L220 660L220 120Q220 104 230 95.50Q240 87 250 86Q260 85 280 85L610 85Q630 85 640 86Q650 87 660 95.50Q670 104 670 120L670 660L820 660L820 135Q820 113 815.50 95Q811 77 804 63.50Q797 50 784 40Q771 30 760 23Q749 16 729 11.50Q709 7 696 5Q683 3 658.50 1.50Q634 0 620.50 0Q607 0 580 0L310 0Q283 0 269.50 0Q256 0 231.50 1.50Q207 3 194 5Q181 7 161 11.50Q141 16 130 23Q119 30 106 40Q93 50 86 63.50Q79 77 74.50 95Q70 113 70 135Z"  horiz-adv-x="890" vert-adv-y="1000"  />

      
      <glyph glyph-name="unidd" unicode="&#xdd;" d="M355 730L455 890L605 890L445 730L355 730M20 660L200 660L445 415L690 660L870 660L520 310L520 0L370 0L370 310L20 660Z"  horiz-adv-x="890" vert-adv-y="1000"  />

      
      <glyph glyph-name="unide" unicode="&#xde;" d="M70 0L70 660L220 660L220 535L580 535Q607 535 620.50 535Q634 535 658.50 533.50Q683 532 696 530Q709 528 729 523.50Q749 519 760 512Q771 505 784 495Q797 485 804 471.50Q811 458 815.50 440Q820 422 820 400L820 260Q820 238 815.50 220Q811 202 804 188.50Q797 175 784 165Q771 155 760 148Q749 141 729 136.50Q709 132 696 130Q683 128 658.50 126.50Q634 125 620.50 125Q607 125 580 125L220 125L220 0L70 0M220 210L610 210Q630 210 640 211Q650 212 660 220.50Q670 229 670 245L670 415Q670 431 660 439.50Q650 448 640 449Q630 450 610 450L220 450L220 210Z"  horiz-adv-x="890" vert-adv-y="1000"  />

      
      <glyph glyph-name="unidf" unicode="&#xdf;" d="M60 0L60 545Q60 573 67 593.50Q74 614 90.50 626Q107 638 121.50 645.50Q136 653 164.50 656Q193 659 210 659.50Q227 660 260 660L400 660Q433 660 450 659.50Q467 659 495.50 656Q524 653 538.50 645.50Q553 638 569.50 626Q586 614 593 593.50Q600 573 600 545L600 455Q600 410 581.50 389.50Q563 369 530 365Q547 363 557.50 361Q568 359 585.50 352Q603 345 613.50 334.50Q624 324 632 305Q640 286 640 260L640 115Q640 87 633 66.50Q626 46 609.50 34Q593 22 578.50 14.50Q564 7 535.50 4Q507 1 490 0.50Q473 0 440 0L320 0L320 75L450 75Q467 75 475 76Q483 77 491.50 84Q500 91 500 105L500 295Q500 309 491.50 316Q483 323 475 324Q467 325 450 325L320 325L320 400L410 400Q427 400 435 401Q443 402 451.50 409Q460 416 460 430L460 555Q460 569 451.50 576Q443 583 435 584Q427 585 410 585L250 585Q233 585 225 584Q217 583 208.50 576Q200 569 200 555L200 0L60 0Z"  horiz-adv-x="700" vert-adv-y="1000"  />

      
      <glyph glyph-name="unie0" unicode="&#xe0;" d="M190 710L340 710L440 550L350 550L190 710M60 115L60 185Q60 213 67 233.50Q74 254 90.50 266Q107 278 121.50 285.50Q136 293 164.50 296Q193 299 210 299.50Q227 300 260 300L500 300L500 375Q500 389 491.50 396Q483 403 475 404Q467 405 450 405L100 405L100 480L440 480Q473 480 490 479.50Q507 479 535.50 476Q564 473 578.50 465.50Q593 458 609.50 446Q626 434 633 413.50Q640 393 640 365L640 0L260 0Q227 0 210 0.50Q193 1 164.50 4Q136 7 121.50 14.50Q107 22 90.50 34Q74 46 67 66.50Q60 87 60 115M200 105Q200 91 208.50 84Q217 77 225 76Q233 75 250 75L500 75L500 225L250 225Q233 225 225 224Q217 223 208.50 216Q200 209 200 195L200 105Z"  horiz-adv-x="700" vert-adv-y="1000"  />

      
      <glyph glyph-name="unie1" unicode="&#xe1;" d="M260 550L360 710L510 710L350 550L260 550M60 115L60 185Q60 213 67 233.50Q74 254 90.50 266Q107 278 121.50 285.50Q136 293 164.50 296Q193 299 210 299.50Q227 300 260 300L500 300L500 375Q500 389 491.50 396Q483 403 475 404Q467 405 450 405L100 405L100 480L440 480Q473 480 490 479.50Q507 479 535.50 476Q564 473 578.50 465.50Q593 458 609.50 446Q626 434 633 413.50Q640 393 640 365L640 0L260 0Q227 0 210 0.50Q193 1 164.50 4Q136 7 121.50 14.50Q107 22 90.50 34Q74 46 67 66.50Q60 87 60 115M200 105Q200 91 208.50 84Q217 77 225 76Q233 75 250 75L500 75L500 225L250 225Q233 225 225 224Q217 223 208.50 216Q200 209 200 195L200 105Z"  horiz-adv-x="700" vert-adv-y="1000"  />

      
      <glyph glyph-name="unie2" unicode="&#xe2;" d="M150 550L310 710L390 710L550 550L450 550L350 640L250 550L150 550M60 115L60 185Q60 213 67 233.50Q74 254 90.50 266Q107 278 121.50 285.50Q136 293 164.50 296Q193 299 210 299.50Q227 300 260 300L500 300L500 375Q500 389 491.50 396Q483 403 475 404Q467 405 450 405L100 405L100 480L440 480Q473 480 490 479.50Q507 479 535.50 476Q564 473 578.50 465.50Q593 458 609.50 446Q626 434 633 413.50Q640 393 640 365L640 0L260 0Q227 0 210 0.50Q193 1 164.50 4Q136 7 121.50 14.50Q107 22 90.50 34Q74 46 67 66.50Q60 87 60 115M200 105Q200 91 208.50 84Q217 77 225 76Q233 75 250 75L500 75L500 225L250 225Q233 225 225 224Q217 223 208.50 216Q200 209 200 195L200 105Z"  horiz-adv-x="700" vert-adv-y="1000"  />

      
      <glyph glyph-name="unie3" unicode="&#xe3;" d="M245 700Q263 700 279 694Q295 688 350 660Q410 630 420 630Q432 630 440.50 644Q449 658 460 700L550 700Q532 624 509 592Q486 560 455 560Q437 560 421 566Q405 572 350 600Q290 630 280 630Q268 630 259.50 616Q251 602 240 560L150 560Q168 636 191 668Q214 700 245 700M60 115L60 185Q60 213 67 233.50Q74 254 90.50 266Q107 278 121.50 285.50Q136 293 164.50 296Q193 299 210 299.50Q227 300 260 300L500 300L500 375Q500 389 491.50 396Q483 403 475 404Q467 405 450 405L100 405L100 480L440 480Q473 480 490 479.50Q507 479 535.50 476Q564 473 578.50 465.50Q593 458 609.50 446Q626 434 633 413.50Q640 393 640 365L640 0L260 0Q227 0 210 0.50Q193 1 164.50 4Q136 7 121.50 14.50Q107 22 90.50 34Q74 46 67 66.50Q60 87 60 115M200 105Q200 91 208.50 84Q217 77 225 76Q233 75 250 75L500 75L500 225L250 225Q233 225 225 224Q217 223 208.50 216Q200 209 200 195L200 105Z"  horiz-adv-x="700" vert-adv-y="1000"  />

      
      <glyph glyph-name="unie4" unicode="&#xe4;" d="M175 580L175 680L295 680L295 580L175 580M405 580L405 680L525 680L525 580L405 580M60 115L60 185Q60 213 67 233.50Q74 254 90.50 266Q107 278 121.50 285.50Q136 293 164.50 296Q193 299 210 299.50Q227 300 260 300L500 300L500 375Q500 389 491.50 396Q483 403 475 404Q467 405 450 405L100 405L100 480L440 480Q473 480 490 479.50Q507 479 535.50 476Q564 473 578.50 465.50Q593 458 609.50 446Q626 434 633 413.50Q640 393 640 365L640 0L260 0Q227 0 210 0.50Q193 1 164.50 4Q136 7 121.50 14.50Q107 22 90.50 34Q74 46 67 66.50Q60 87 60 115M200 105Q200 91 208.50 84Q217 77 225 76Q233 75 250 75L500 75L500 225L250 225Q233 225 225 224Q217 223 208.50 216Q200 209 200 195L200 105Z"  horiz-adv-x="700" vert-adv-y="1000"  />

      
      <glyph glyph-name="unie5" unicode="&#xe5;" d="M175 635L175 695Q175 780 295 780L405 780Q525 780 525 695L525 635Q525 550 405 550L295 550Q175 550 175 635M275 620Q275 600 305 600L395 600Q425 600 425 620L425 710Q425 730 395 730L305 730Q275 730 275 710L275 620M60 115L60 185Q60 213 67 233.50Q74 254 90.50 266Q107 278 121.50 285.50Q136 293 164.50 296Q193 299 210 299.50Q227 300 260 300L500 300L500 375Q500 389 491.50 396Q483 403 475 404Q467 405 450 405L100 405L100 480L440 480Q473 480 490 479.50Q507 479 535.50 476Q564 473 578.50 465.50Q593 458 609.50 446Q626 434 633 413.50Q640 393 640 365L640 0L260 0Q227 0 210 0.50Q193 1 164.50 4Q136 7 121.50 14.50Q107 22 90.50 34Q74 46 67 66.50Q60 87 60 115M200 105Q200 91 208.50 84Q217 77 225 76Q233 75 250 75L500 75L500 225L250 225Q233 225 225 224Q217 223 208.50 216Q200 209 200 195L200 105Z"  horiz-adv-x="700" vert-adv-y="1000"  />

      
      <glyph glyph-name="unie6" unicode="&#xe6;" d="M60 115L60 185Q60 213 67 233.50Q74 254 90.50 266Q107 278 121.50 285.50Q136 293 164.50 296Q193 299 210 299.50Q227 300 260 300L500 300L500 375Q500 389 491.50 396Q483 403 475 404Q467 405 450 405L100 405L100 480L880 480Q913 480 930 479.50Q947 479 975.50 476Q1004 473 1018.50 465.50Q1033 458 1049.50 446Q1066 434 1073 413.50Q1080 393 1080 365L1080 225L640 225L640 105Q640 91 648.50 84Q657 77 665 76Q673 75 690 75L1060 75L1060 0L260 0Q227 0 210 0.50Q193 1 164.50 4Q136 7 121.50 14.50Q107 22 90.50 34Q74 46 67 66.50Q60 87 60 115M200 105Q200 91 208.50 84Q217 77 225 76Q233 75 250 75L500 75L500 225L250 225Q233 225 225 224Q217 223 208.50 216Q200 209 200 195L200 105M640 300L940 300L940 375Q940 389 931.50 396Q923 403 915 404Q907 405 890 405L690 405Q673 405 665 404Q657 403 648.50 396Q640 389 640 375L640 300Z"  horiz-adv-x="1140" vert-adv-y="1000"  />

      
      <glyph glyph-name="unie7" unicode="&#xe7;" d="M280-175L310-175Q390-175 390-130Q390-107 372.50-81Q355-55 300 0L400 0Q452-52 471-80.50Q490-109 490-135Q490-173 465-194Q440-215 408.50-220Q377-225 330-225L280-225L280-175M60 115L60 365Q60 393 67 413.50Q74 434 90.50 446Q107 458 121.50 465.50Q136 473 164.50 476Q193 479 210 479.50Q227 480 260 480L600 480L600 405L250 405Q233 405 225 404Q217 403 208.50 396Q200 389 200 375L200 105Q200 91 208.50 84Q217 77 225 76Q233 75 250 75L600 75L600 0L260 0Q227 0 210 0.50Q193 1 164.50 4Q136 7 121.50 14.50Q107 22 90.50 34Q74 46 67 66.50Q60 87 60 115Z"  horiz-adv-x="660" vert-adv-y="1000"  />

      
      <glyph glyph-name="unie8" unicode="&#xe8;" d="M190 710L340 710L440 550L350 550L190 710M60 115L60 365Q60 393 67 413.50Q74 434 90.50 446Q107 458 121.50 465.50Q136 473 164.50 476Q193 479 210 479.50Q227 480 260 480L440 480Q473 480 490 479.50Q507 479 535.50 476Q564 473 578.50 465.50Q593 458 609.50 446Q626 434 633 413.50Q640 393 640 365L640 225L200 225L200 105Q200 91 208.50 84Q217 77 225 76Q233 75 250 75L620 75L620 0L260 0Q227 0 210 0.50Q193 1 164.50 4Q136 7 121.50 14.50Q107 22 90.50 34Q74 46 67 66.50Q60 87 60 115M200 300L500 300L500 375Q500 389 491.50 396Q483 403 475 404Q467 405 450 405L250 405Q233 405 225 404Q217 403 208.50 396Q200 389 200 375L200 300Z"  horiz-adv-x="700" vert-adv-y="1000"  />

      
      <glyph glyph-name="unie9" unicode="&#xe9;" d="M260 550L360 710L510 710L350 550L260 550M60 115L60 365Q60 393 67 413.50Q74 434 90.50 446Q107 458 121.50 465.50Q136 473 164.50 476Q193 479 210 479.50Q227 480 260 480L440 480Q473 480 490 479.50Q507 479 535.50 476Q564 473 578.50 465.50Q593 458 609.50 446Q626 434 633 413.50Q640 393 640 365L640 225L200 225L200 105Q200 91 208.50 84Q217 77 225 76Q233 75 250 75L620 75L620 0L260 0Q227 0 210 0.50Q193 1 164.50 4Q136 7 121.50 14.50Q107 22 90.50 34Q74 46 67 66.50Q60 87 60 115M200 300L500 300L500 375Q500 389 491.50 396Q483 403 475 404Q467 405 450 405L250 405Q233 405 225 404Q217 403 208.50 396Q200 389 200 375L200 300Z"  horiz-adv-x="700" vert-adv-y="1000"  />

      
      <glyph glyph-name="uniea" unicode="&#xea;" d="M150 550L310 710L390 710L550 550L450 550L350 640L250 550L150 550M60 115L60 365Q60 393 67 413.50Q74 434 90.50 446Q107 458 121.50 465.50Q136 473 164.50 476Q193 479 210 479.50Q227 480 260 480L440 480Q473 480 490 479.50Q507 479 535.50 476Q564 473 578.50 465.50Q593 458 609.50 446Q626 434 633 413.50Q640 393 640 365L640 225L200 225L200 105Q200 91 208.50 84Q217 77 225 76Q233 75 250 75L620 75L620 0L260 0Q227 0 210 0.50Q193 1 164.50 4Q136 7 121.50 14.50Q107 22 90.50 34Q74 46 67 66.50Q60 87 60 115M200 300L500 300L500 375Q500 389 491.50 396Q483 403 475 404Q467 405 450 405L250 405Q233 405 225 404Q217 403 208.50 396Q200 389 200 375L200 300Z"  horiz-adv-x="700" vert-adv-y="1000"  />

      
      <glyph glyph-name="unieb" unicode="&#xeb;" d="M175 580L175 680L295 680L295 580L175 580M405 580L405 680L525 680L525 580L405 580M60 115L60 365Q60 393 67 413.50Q74 434 90.50 446Q107 458 121.50 465.50Q136 473 164.50 476Q193 479 210 479.50Q227 480 260 480L440 480Q473 480 490 479.50Q507 479 535.50 476Q564 473 578.50 465.50Q593 458 609.50 446Q626 434 633 413.50Q640 393 640 365L640 225L200 225L200 105Q200 91 208.50 84Q217 77 225 76Q233 75 250 75L620 75L620 0L260 0Q227 0 210 0.50Q193 1 164.50 4Q136 7 121.50 14.50Q107 22 90.50 34Q74 46 67 66.50Q60 87 60 115M200 300L500 300L500 375Q500 389 491.50 396Q483 403 475 404Q467 405 450 405L250 405Q233 405 225 404Q217 403 208.50 396Q200 389 200 375L200 300Z"  horiz-adv-x="700" vert-adv-y="1000"  />

      
      <glyph glyph-name="uniec" unicode="&#xec;" d="M-10 710L140 710L240 550L150 550L-10 710M75 0L75 480L215 480L215 0L75 0Z"  horiz-adv-x="290" vert-adv-y="1000"  />

      
      <glyph glyph-name="unied" unicode="&#xed;" d="M50 550L150 710L300 710L140 550L50 550M75 0L75 480L215 480L215 0L75 0Z"  horiz-adv-x="290" vert-adv-y="1000"  />

      
      <glyph glyph-name="uniee" unicode="&#xee;" d="M-40 550L120 710L200 710L360 550L260 550L160 640L60 550L-40 550M90 0L90 480L230 480L230 0L90 0Z"  horiz-adv-x="320" vert-adv-y="1000"  />

      
      <glyph glyph-name="unief" unicode="&#xef;" d="M-15 580L-15 680L105 680L105 580L-15 580M215 580L215 680L335 680L335 580L215 580M90 0L90 480L230 480L230 0L90 0Z"  horiz-adv-x="320" vert-adv-y="1000"  />

      
      <glyph glyph-name="unif0" unicode="&#xf0;" d="M60 115L60 260Q60 288 67 308.50Q74 329 90.50 341Q107 353 121.50 360.50Q136 368 164.50 371Q193 374 210 374.50Q227 375 260 375L440 375Q477 375 477 390Q477 401 465 425L440 475L330 420L300 480L410 535L345 660L495 660L530 595L610 635L640 575L560 535L600 455Q619 418 628 374Q637 330 638.50 301.50Q640 273 640 220L640 115Q640 87 633 66.50Q626 46 609.50 34Q593 22 578.50 14.50Q564 7 535.50 4Q507 1 490 0.50Q473 0 440 0L260 0Q227 0 210 0.50Q193 1 164.50 4Q136 7 121.50 14.50Q107 22 90.50 34Q74 46 67 66.50Q60 87 60 115M200 105Q200 91 208.50 84Q217 77 225 76Q233 75 250 75L450 75Q467 75 475 76Q483 77 491.50 84Q500 91 500 105L500 270Q500 300 450 300L250 300Q233 300 225 299Q217 298 208.50 291Q200 284 200 270L200 105Z"  horiz-adv-x="700" vert-adv-y="1000"  />

      
      <glyph glyph-name="unif1" unicode="&#xf1;" d="M245 700Q263 700 279 694Q295 688 350 660Q410 630 420 630Q432 630 440.50 644Q449 658 460 700L550 700Q532 624 509 592Q486 560 455 560Q437 560 421 566Q405 572 350 600Q290 630 280 630Q268 630 259.50 616Q251 602 240 560L150 560Q168 636 191 668Q214 700 245 700M60 0L60 480L440 480Q473 480 490 479.50Q507 479 535.50 476Q564 473 578.50 465.50Q593 458 609.50 446Q626 434 633 413.50Q640 393 640 365L640 0L500 0L500 375Q500 389 491.50 396Q483 403 475 404Q467 405 450 405L200 405L200 0L60 0Z"  horiz-adv-x="700" vert-adv-y="1000"  />

      
      <glyph glyph-name="unif2" unicode="&#xf2;" d="M190 710L340 710L440 550L350 550L190 710M60 115L60 365Q60 393 67 413.50Q74 434 90.50 446Q107 458 121.50 465.50Q136 473 164.50 476Q193 479 210 479.50Q227 480 260 480L440 480Q473 480 490 479.50Q507 479 535.50 476Q564 473 578.50 465.50Q593 458 609.50 446Q626 434 633 413.50Q640 393 640 365L640 115Q640 87 633 66.50Q626 46 609.50 34Q593 22 578.50 14.50Q564 7 535.50 4Q507 1 490 0.50Q473 0 440 0L260 0Q227 0 210 0.50Q193 1 164.50 4Q136 7 121.50 14.50Q107 22 90.50 34Q74 46 67 66.50Q60 87 60 115M200 105Q200 91 208.50 84Q217 77 225 76Q233 75 250 75L450 75Q467 75 475 76Q483 77 491.50 84Q500 91 500 105L500 375Q500 389 491.50 396Q483 403 475 404Q467 405 450 405L250 405Q233 405 225 404Q217 403 208.50 396Q200 389 200 375L200 105Z"  horiz-adv-x="700" vert-adv-y="1000"  />

      
      <glyph glyph-name="unif3" unicode="&#xf3;" d="M260 550L360 710L510 710L350 550L260 550M60 115L60 365Q60 393 67 413.50Q74 434 90.50 446Q107 458 121.50 465.50Q136 473 164.50 476Q193 479 210 479.50Q227 480 260 480L440 480Q473 480 490 479.50Q507 479 535.50 476Q564 473 578.50 465.50Q593 458 609.50 446Q626 434 633 413.50Q640 393 640 365L640 115Q640 87 633 66.50Q626 46 609.50 34Q593 22 578.50 14.50Q564 7 535.50 4Q507 1 490 0.50Q473 0 440 0L260 0Q227 0 210 0.50Q193 1 164.50 4Q136 7 121.50 14.50Q107 22 90.50 34Q74 46 67 66.50Q60 87 60 115M200 105Q200 91 208.50 84Q217 77 225 76Q233 75 250 75L450 75Q467 75 475 76Q483 77 491.50 84Q500 91 500 105L500 375Q500 389 491.50 396Q483 403 475 404Q467 405 450 405L250 405Q233 405 225 404Q217 403 208.50 396Q200 389 200 375L200 105Z"  horiz-adv-x="700" vert-adv-y="1000"  />

      
      <glyph glyph-name="unif4" unicode="&#xf4;" d="M150 550L310 710L390 710L550 550L450 550L350 640L250 550L150 550M60 115L60 365Q60 393 67 413.50Q74 434 90.50 446Q107 458 121.50 465.50Q136 473 164.50 476Q193 479 210 479.50Q227 480 260 480L440 480Q473 480 490 479.50Q507 479 535.50 476Q564 473 578.50 465.50Q593 458 609.50 446Q626 434 633 413.50Q640 393 640 365L640 115Q640 87 633 66.50Q626 46 609.50 34Q593 22 578.50 14.50Q564 7 535.50 4Q507 1 490 0.50Q473 0 440 0L260 0Q227 0 210 0.50Q193 1 164.50 4Q136 7 121.50 14.50Q107 22 90.50 34Q74 46 67 66.50Q60 87 60 115M200 105Q200 91 208.50 84Q217 77 225 76Q233 75 250 75L450 75Q467 75 475 76Q483 77 491.50 84Q500 91 500 105L500 375Q500 389 491.50 396Q483 403 475 404Q467 405 450 405L250 405Q233 405 225 404Q217 403 208.50 396Q200 389 200 375L200 105Z"  horiz-adv-x="700" vert-adv-y="1000"  />

      
      <glyph glyph-name="unif5" unicode="&#xf5;" d="M245 700Q263 700 279 694Q295 688 350 660Q410 630 420 630Q432 630 440.50 644Q449 658 460 700L550 700Q532 624 509 592Q486 560 455 560Q437 560 421 566Q405 572 350 600Q290 630 280 630Q268 630 259.50 616Q251 602 240 560L150 560Q168 636 191 668Q214 700 245 700M60 115L60 365Q60 393 67 413.50Q74 434 90.50 446Q107 458 121.50 465.50Q136 473 164.50 476Q193 479 210 479.50Q227 480 260 480L440 480Q473 480 490 479.50Q507 479 535.50 476Q564 473 578.50 465.50Q593 458 609.50 446Q626 434 633 413.50Q640 393 640 365L640 115Q640 87 633 66.50Q626 46 609.50 34Q593 22 578.50 14.50Q564 7 535.50 4Q507 1 490 0.50Q473 0 440 0L260 0Q227 0 210 0.50Q193 1 164.50 4Q136 7 121.50 14.50Q107 22 90.50 34Q74 46 67 66.50Q60 87 60 115M200 105Q200 91 208.50 84Q217 77 225 76Q233 75 250 75L450 75Q467 75 475 76Q483 77 491.50 84Q500 91 500 105L500 375Q500 389 491.50 396Q483 403 475 404Q467 405 450 405L250 405Q233 405 225 404Q217 403 208.50 396Q200 389 200 375L200 105Z"  horiz-adv-x="700" vert-adv-y="1000"  />

      
      <glyph glyph-name="unif6" unicode="&#xf6;" d="M175 580L175 680L295 680L295 580L175 580M405 580L405 680L525 680L525 580L405 580M60 115L60 365Q60 393 67 413.50Q74 434 90.50 446Q107 458 121.50 465.50Q136 473 164.50 476Q193 479 210 479.50Q227 480 260 480L440 480Q473 480 490 479.50Q507 479 535.50 476Q564 473 578.50 465.50Q593 458 609.50 446Q626 434 633 413.50Q640 393 640 365L640 115Q640 87 633 66.50Q626 46 609.50 34Q593 22 578.50 14.50Q564 7 535.50 4Q507 1 490 0.50Q473 0 440 0L260 0Q227 0 210 0.50Q193 1 164.50 4Q136 7 121.50 14.50Q107 22 90.50 34Q74 46 67 66.50Q60 87 60 115M200 105Q200 91 208.50 84Q217 77 225 76Q233 75 250 75L450 75Q467 75 475 76Q483 77 491.50 84Q500 91 500 105L500 375Q500 389 491.50 396Q483 403 475 404Q467 405 450 405L250 405Q233 405 225 404Q217 403 208.50 396Q200 389 200 375L200 105Z"  horiz-adv-x="700" vert-adv-y="1000"  />

      
      <glyph glyph-name="unif7" unicode="&#xf7;" d="M60 190L60 290L640 290L640 190L60 190M275 0L275 120L425 120L425 0L275 0M275 360L275 480L425 480L425 360L275 360Z"  horiz-adv-x="700" vert-adv-y="1000"  />

      
      <glyph glyph-name="unif8" unicode="&#xf8;" d="M20 91L20 167L100 191L100 365Q100 393 107 413.50Q114 434 130.50 446Q147 458 161.50 465.50Q176 473 204.50 476Q233 479 250 479.50Q267 480 300 480L480 480Q513 480 530 479.50Q547 479 575.50 476Q604 473 618.50 465.50Q633 458 649.50 446Q666 434 673 413.50Q680 393 680 365L760 389L760 313L680 289L680 115Q680 87 673 66.50Q666 46 649.50 34Q633 22 618.50 14.50Q604 7 575.50 4Q547 1 530 0.50Q513 0 480 0L300 0Q267 0 250 0.50Q233 1 204.50 4Q176 7 161.50 14.50Q147 22 130.50 34Q114 46 107 66.50Q100 87 100 115L20 91M240 105Q240 91 248.50 84Q257 77 265 76Q273 75 290 75L490 75Q507 75 515 76Q523 77 531.50 84Q540 91 540 105L540 247L240 157L240 105M240 233L540 323L540 375Q540 389 531.50 396Q523 403 515 404Q507 405 490 405L290 405Q273 405 265 404Q257 403 248.50 396Q240 389 240 375L240 233Z"  horiz-adv-x="780" vert-adv-y="1000"  />

      
      <glyph glyph-name="unif9" unicode="&#xf9;" d="M190 710L340 710L440 550L350 550L190 710M60 115L60 480L200 480L200 105Q200 91 208.50 84Q217 77 225 76Q233 75 250 75L450 75Q467 75 475 76Q483 77 491.50 84Q500 91 500 105L500 480L640 480L640 115Q640 87 633 66.50Q626 46 609.50 34Q593 22 578.50 14.50Q564 7 535.50 4Q507 1 490 0.50Q473 0 440 0L260 0Q227 0 210 0.50Q193 1 164.50 4Q136 7 121.50 14.50Q107 22 90.50 34Q74 46 67 66.50Q60 87 60 115Z"  horiz-adv-x="700" vert-adv-y="1000"  />

      
      <glyph glyph-name="unifa" unicode="&#xfa;" d="M260 550L360 710L510 710L350 550L260 550M60 115L60 480L200 480L200 105Q200 91 208.50 84Q217 77 225 76Q233 75 250 75L450 75Q467 75 475 76Q483 77 491.50 84Q500 91 500 105L500 480L640 480L640 115Q640 87 633 66.50Q626 46 609.50 34Q593 22 578.50 14.50Q564 7 535.50 4Q507 1 490 0.50Q473 0 440 0L260 0Q227 0 210 0.50Q193 1 164.50 4Q136 7 121.50 14.50Q107 22 90.50 34Q74 46 67 66.50Q60 87 60 115Z"  horiz-adv-x="700" vert-adv-y="1000"  />

      
      <glyph glyph-name="unifb" unicode="&#xfb;" d="M150 550L310 710L390 710L550 550L450 550L350 640L250 550L150 550M60 115L60 480L200 480L200 105Q200 91 208.50 84Q217 77 225 76Q233 75 250 75L450 75Q467 75 475 76Q483 77 491.50 84Q500 91 500 105L500 480L640 480L640 115Q640 87 633 66.50Q626 46 609.50 34Q593 22 578.50 14.50Q564 7 535.50 4Q507 1 490 0.50Q473 0 440 0L260 0Q227 0 210 0.50Q193 1 164.50 4Q136 7 121.50 14.50Q107 22 90.50 34Q74 46 67 66.50Q60 87 60 115Z"  horiz-adv-x="700" vert-adv-y="1000"  />

      
      <glyph glyph-name="unifc" unicode="&#xfc;" d="M175 580L175 680L295 680L295 580L175 580M405 580L405 680L525 680L525 580L405 580M60 115L60 480L200 480L200 105Q200 91 208.50 84Q217 77 225 76Q233 75 250 75L450 75Q467 75 475 76Q483 77 491.50 84Q500 91 500 105L500 480L640 480L640 115Q640 87 633 66.50Q626 46 609.50 34Q593 22 578.50 14.50Q564 7 535.50 4Q507 1 490 0.50Q473 0 440 0L260 0Q227 0 210 0.50Q193 1 164.50 4Q136 7 121.50 14.50Q107 22 90.50 34Q74 46 67 66.50Q60 87 60 115Z"  horiz-adv-x="700" vert-adv-y="1000"  />

      
      <glyph glyph-name="unifd" unicode="&#xfd;" d="M250 550L350 710L500 710L340 550L250 550M20 480L160 480L340 120L520 480L660 480L360-120Q341-157 328-175.50Q315-194 285-209.50Q255-225 210-225L80-225L80-150L160-150Q191-150 202-142.50Q213-135 225-110L270-20L20 480Z"  horiz-adv-x="680" vert-adv-y="1000"  />

      
      <glyph glyph-name="unife" unicode="&#xfe;" d="M60-225L60 660L200 660L200 480L440 480Q473 480 490 479.50Q507 479 535.50 476Q564 473 578.50 465.50Q593 458 609.50 446Q626 434 633 413.50Q640 393 640 365L640 115Q640 87 633 66.50Q626 46 609.50 34Q593 22 578.50 14.50Q564 7 535.50 4Q507 1 490 0.50Q473 0 440 0L200 0L200-225L60-225M200 75L450 75Q467 75 475 76Q483 77 491.50 84Q500 91 500 105L500 375Q500 389 491.50 396Q483 403 475 404Q467 405 450 405L200 405L200 75Z"  horiz-adv-x="700" vert-adv-y="1000"  />

      
      <glyph glyph-name="uniff" unicode="&#xff;" d="M165 580L165 680L285 680L285 580L165 580M395 580L395 680L515 680L515 580L395 580M20 480L160 480L340 120L520 480L660 480L360-120Q341-157 328-175.50Q315-194 285-209.50Q255-225 210-225L80-225L80-150L160-150Q191-150 202-142.50Q213-135 225-110L270-20L20 480Z"  horiz-adv-x="680" vert-adv-y="1000"  />

      
      <glyph glyph-name="uni0100" unicode="&#x0100;" d="M265 765L265 840L625 840L625 765L265 765M20 0L350 660L540 660L870 0L720 0L615 210L275 210L170 0L20 0M315 290L575 290L445 550L315 290Z"  horiz-adv-x="890" vert-adv-y="1000"  />

      
      <glyph glyph-name="uni0101" unicode="&#x0101;" d="M170 585L170 660L530 660L530 585L170 585M60 115L60 185Q60 213 67 233.50Q74 254 90.50 266Q107 278 121.50 285.50Q136 293 164.50 296Q193 299 210 299.50Q227 300 260 300L500 300L500 375Q500 389 491.50 396Q483 403 475 404Q467 405 450 405L100 405L100 480L440 480Q473 480 490 479.50Q507 479 535.50 476Q564 473 578.50 465.50Q593 458 609.50 446Q626 434 633 413.50Q640 393 640 365L640 0L260 0Q227 0 210 0.50Q193 1 164.50 4Q136 7 121.50 14.50Q107 22 90.50 34Q74 46 67 66.50Q60 87 60 115M200 105Q200 91 208.50 84Q217 77 225 76Q233 75 250 75L500 75L500 225L250 225Q233 225 225 224Q217 223 208.50 216Q200 209 200 195L200 105Z"  horiz-adv-x="700" vert-adv-y="1000"  />

      
      <glyph glyph-name="uni0102" unicode="&#x0102;" d="M285 890L360 890Q360 855 385 830Q410 805 445 805Q480 805 505 830Q530 855 530 890L605 890Q605 824 558 777Q511 730 445 730Q379 730 332 777Q285 824 285 890M20 0L350 660L540 660L870 0L720 0L615 210L275 210L170 0L20 0M315 290L575 290L445 550L315 290Z"  horiz-adv-x="890" vert-adv-y="1000"  />

      
      <glyph glyph-name="uni0103" unicode="&#x0103;" d="M190 710L265 710Q265 675 290 650Q315 625 350 625Q385 625 410 650Q435 675 435 710L510 710Q510 644 463 597Q416 550 350 550Q284 550 237 597Q190 644 190 710M60 115L60 185Q60 213 67 233.50Q74 254 90.50 266Q107 278 121.50 285.50Q136 293 164.50 296Q193 299 210 299.50Q227 300 260 300L500 300L500 375Q500 389 491.50 396Q483 403 475 404Q467 405 450 405L100 405L100 480L440 480Q473 480 490 479.50Q507 479 535.50 476Q564 473 578.50 465.50Q593 458 609.50 446Q626 434 633 413.50Q640 393 640 365L640 0L260 0Q227 0 210 0.50Q193 1 164.50 4Q136 7 121.50 14.50Q107 22 90.50 34Q74 46 67 66.50Q60 87 60 115M200 105Q200 91 208.50 84Q217 77 225 76Q233 75 250 75L500 75L500 225L250 225Q233 225 225 224Q217 223 208.50 216Q200 209 200 195L200 105Z"  horiz-adv-x="700" vert-adv-y="1000"  />

      
      <glyph glyph-name="uni0104" unicode="&#x0104;" d="M630-135Q630-109 649-80.50Q668-52 720 0L820 0Q765-55 747.50-81Q730-107 730-130Q730-175 810-175L820-175L820-225L790-225Q743-225 711.50-220Q680-215 655-194Q630-173 630-135M20 0L350 660L540 660L870 0L720 0L615 210L275 210L170 0L20 0M315 290L575 290L445 550L315 290Z"  horiz-adv-x="890" vert-adv-y="1000"  />

      
      <glyph glyph-name="uni0105" unicode="&#x0105;" d="M410-135Q410-109 429-80.50Q448-52 500 0L600 0Q545-55 527.50-81Q510-107 510-130Q510-175 590-175L600-175L600-225L570-225Q523-225 491.50-220Q460-215 435-194Q410-173 410-135M60 115L60 185Q60 213 67 233.50Q74 254 90.50 266Q107 278 121.50 285.50Q136 293 164.50 296Q193 299 210 299.50Q227 300 260 300L500 300L500 375Q500 389 491.50 396Q483 403 475 404Q467 405 450 405L100 405L100 480L440 480Q473 480 490 479.50Q507 479 535.50 476Q564 473 578.50 465.50Q593 458 609.50 446Q626 434 633 413.50Q640 393 640 365L640 0L260 0Q227 0 210 0.50Q193 1 164.50 4Q136 7 121.50 14.50Q107 22 90.50 34Q74 46 67 66.50Q60 87 60 115M200 105Q200 91 208.50 84Q217 77 225 76Q233 75 250 75L500 75L500 225L250 225Q233 225 225 224Q217 223 208.50 216Q200 209 200 195L200 105Z"  horiz-adv-x="700" vert-adv-y="1000"  />

      
      <glyph glyph-name="uni0106" unicode="&#x0106;" d="M330 730L430 890L580 890L420 730L330 730M70 135L70 525Q70 547 74.50 565Q79 583 86 596.50Q93 610 106 620Q119 630 130 637Q141 644 161 648.50Q181 653 194 655Q207 657 231.50 658.50Q256 660 269.50 660Q283 660 310 660L770 660L770 575L280 575Q260 575 250 574Q240 573 230 564.50Q220 556 220 540L220 120Q220 104 230 95.50Q240 87 250 86Q260 85 280 85L770 85L770 0L310 0Q283 0 269.50 0Q256 0 231.50 1.50Q207 3 194 5Q181 7 161 11.50Q141 16 130 23Q119 30 106 40Q93 50 86 63.50Q79 77 74.50 95Q70 113 70 135Z"  horiz-adv-x="840" vert-adv-y="1000"  />

      
      <glyph glyph-name="uni0107" unicode="&#x0107;" d="M240 550L340 710L490 710L330 550L240 550M60 115L60 365Q60 393 67 413.50Q74 434 90.50 446Q107 458 121.50 465.50Q136 473 164.50 476Q193 479 210 479.50Q227 480 260 480L600 480L600 405L250 405Q233 405 225 404Q217 403 208.50 396Q200 389 200 375L200 105Q200 91 208.50 84Q217 77 225 76Q233 75 250 75L600 75L600 0L260 0Q227 0 210 0.50Q193 1 164.50 4Q136 7 121.50 14.50Q107 22 90.50 34Q74 46 67 66.50Q60 87 60 115Z"  horiz-adv-x="660" vert-adv-y="1000"  />

      
      <glyph glyph-name="uni0108" unicode="&#x0108;" d="M220 730L380 890L460 890L620 730L520 730L420 820L320 730L220 730M70 135L70 525Q70 547 74.50 565Q79 583 86 596.50Q93 610 106 620Q119 630 130 637Q141 644 161 648.50Q181 653 194 655Q207 657 231.50 658.50Q256 660 269.50 660Q283 660 310 660L770 660L770 575L280 575Q260 575 250 574Q240 573 230 564.50Q220 556 220 540L220 120Q220 104 230 95.50Q240 87 250 86Q260 85 280 85L770 85L770 0L310 0Q283 0 269.50 0Q256 0 231.50 1.50Q207 3 194 5Q181 7 161 11.50Q141 16 130 23Q119 30 106 40Q93 50 86 63.50Q79 77 74.50 95Q70 113 70 135Z"  horiz-adv-x="840" vert-adv-y="1000"  />

      
      <glyph glyph-name="uni0109" unicode="&#x0109;" d="M130 550L290 710L370 710L530 550L430 550L330 640L230 550L130 550M60 115L60 365Q60 393 67 413.50Q74 434 90.50 446Q107 458 121.50 465.50Q136 473 164.50 476Q193 479 210 479.50Q227 480 260 480L600 480L600 405L250 405Q233 405 225 404Q217 403 208.50 396Q200 389 200 375L200 105Q200 91 208.50 84Q217 77 225 76Q233 75 250 75L600 75L600 0L260 0Q227 0 210 0.50Q193 1 164.50 4Q136 7 121.50 14.50Q107 22 90.50 34Q74 46 67 66.50Q60 87 60 115Z"  horiz-adv-x="660" vert-adv-y="1000"  />

      
      <glyph glyph-name="uni010A" unicode="&#x010A;" d="M360 760L360 860L480 860L480 760L360 760M70 135L70 525Q70 547 74.50 565Q79 583 86 596.50Q93 610 106 620Q119 630 130 637Q141 644 161 648.50Q181 653 194 655Q207 657 231.50 658.50Q256 660 269.50 660Q283 660 310 660L770 660L770 575L280 575Q260 575 250 574Q240 573 230 564.50Q220 556 220 540L220 120Q220 104 230 95.50Q240 87 250 86Q260 85 280 85L770 85L770 0L310 0Q283 0 269.50 0Q256 0 231.50 1.50Q207 3 194 5Q181 7 161 11.50Q141 16 130 23Q119 30 106 40Q93 50 86 63.50Q79 77 74.50 95Q70 113 70 135Z"  horiz-adv-x="840" vert-adv-y="1000"  />

      
      <glyph glyph-name="uni010B" unicode="&#x010B;" d="M270 580L270 680L390 680L390 580L270 580M60 115L60 365Q60 393 67 413.50Q74 434 90.50 446Q107 458 121.50 465.50Q136 473 164.50 476Q193 479 210 479.50Q227 480 260 480L600 480L600 405L250 405Q233 405 225 404Q217 403 208.50 396Q200 389 200 375L200 105Q200 91 208.50 84Q217 77 225 76Q233 75 250 75L600 75L600 0L260 0Q227 0 210 0.50Q193 1 164.50 4Q136 7 121.50 14.50Q107 22 90.50 34Q74 46 67 66.50Q60 87 60 115Z"  horiz-adv-x="660" vert-adv-y="1000"  />

      
      <glyph glyph-name="uni010C" unicode="&#x010C;" d="M220 890L320 890L420 800L520 890L620 890L460 730L380 730L220 890M70 135L70 525Q70 547 74.50 565Q79 583 86 596.50Q93 610 106 620Q119 630 130 637Q141 644 161 648.50Q181 653 194 655Q207 657 231.50 658.50Q256 660 269.50 660Q283 660 310 660L770 660L770 575L280 575Q260 575 250 574Q240 573 230 564.50Q220 556 220 540L220 120Q220 104 230 95.50Q240 87 250 86Q260 85 280 85L770 85L770 0L310 0Q283 0 269.50 0Q256 0 231.50 1.50Q207 3 194 5Q181 7 161 11.50Q141 16 130 23Q119 30 106 40Q93 50 86 63.50Q79 77 74.50 95Q70 113 70 135Z"  horiz-adv-x="840" vert-adv-y="1000"  />

      
      <glyph glyph-name="uni010D" unicode="&#x010D;" d="M130 710L230 710L330 620L430 710L530 710L370 550L290 550L130 710M60 115L60 365Q60 393 67 413.50Q74 434 90.50 446Q107 458 121.50 465.50Q136 473 164.50 476Q193 479 210 479.50Q227 480 260 480L600 480L600 405L250 405Q233 405 225 404Q217 403 208.50 396Q200 389 200 375L200 105Q200 91 208.50 84Q217 77 225 76Q233 75 250 75L600 75L600 0L260 0Q227 0 210 0.50Q193 1 164.50 4Q136 7 121.50 14.50Q107 22 90.50 34Q74 46 67 66.50Q60 87 60 115Z"  horiz-adv-x="660" vert-adv-y="1000"  />

      
      <glyph glyph-name="uni010E" unicode="&#x010E;" d="M245 890L345 890L445 800L545 890L645 890L485 730L405 730L245 890M70 0L70 660L460 660Q518 660 567 652Q616 644 664 623Q712 602 745.50 569.50Q779 537 799.50 483.50Q820 430 820 360L820 300Q820 230 799.50 176.50Q779 123 745.50 90.50Q712 58 664 37Q616 16 567 8Q518 0 460 0L70 0M220 85L430 85Q670 85 670 285L670 375Q670 575 430 575L220 575L220 85Z"  horiz-adv-x="890" vert-adv-y="1000"  />

      
      </font>
</defs>
</svg>
