<svg width="179" height="48" viewBox="0 0 179 48" fill="none" xmlns="http://www.w3.org/2000/svg">
<path d="M86.1196 11.9786V24.2136C86.1196 24.9539 86.1096 25.7939 86.0846 26.7241C86.0596 27.6591 86.0296 28.5086 85.9946 29.2869C85.9596 30.0605 85.9196 30.5826 85.8696 30.8531H86.0096L98.581 11.9786H103.907V36.0403H99.7861V23.9098C99.7861 23.103 99.8112 22.2061 99.8562 21.2331C99.9012 20.2555 99.9512 19.3727 99.9962 18.5849C100.041 17.8019 100.081 17.2703 100.101 16.9998H99.9562L87.3498 36.0403H81.9892V11.9786H86.1196Z" fill="#5B5666"/>
<path d="M130.325 36.0403H125.069L115.023 23.8434V36.0403H110.477V11.9786H115.023V23.6393L124.894 11.9786H129.83L119.923 23.6061L130.325 36.0403Z" fill="#5B5666"/>
<path d="M138.28 11.9786V24.2136C138.28 24.9539 138.27 25.7939 138.245 26.7241C138.22 27.6591 138.19 28.5086 138.155 29.2869C138.12 30.0605 138.08 30.5826 138.03 30.8531H138.17L150.742 11.9786H156.067V36.0403H151.947V23.9098C151.947 23.103 151.972 22.2061 152.017 21.2331C152.062 20.2555 152.112 19.3727 152.157 18.5849C152.202 17.8019 152.242 17.2703 152.262 16.9998H152.117L139.511 36.0403H134.15V11.9786H138.28Z" fill="#5B5666"/>
<path d="M171.724 36.0403H167.179V15.6187H159.898V11.9786H179V15.6187H171.719V36.0403H171.724Z" fill="#5B5666"/>
<path d="M52.8109 11.9786H47.0003L59.6767 24.0095L47.0003 36.0403H52.8109L65.4923 24.0095L52.8109 11.9786Z" fill="#5B5666"/>
<path d="M12.6814 11.9786H18.4971L5.82065 24.0095L18.4971 36.0403H12.6814L0 24.0095L12.6814 11.9786Z" fill="#5B5666"/>
<path d="M62.462 7.6314C62.462 8.18667 61.9919 8.62804 61.4169 8.62804C60.8418 8.62804 60.3667 8.18193 60.3667 7.6314C60.3667 7.52225 60.3917 7.41784 60.4318 7.31817L59.1716 6.63476C58.9816 6.83884 58.7016 6.97172 58.3915 6.97172C57.8115 6.97172 57.3414 6.52561 57.3414 5.97508C57.3414 5.491 57.7064 5.09235 58.1865 5.00217V3.63536C57.7064 3.54993 57.3414 3.14178 57.3414 2.66245C57.3414 2.10718 57.8165 1.66581 58.3915 1.66581C58.9666 1.66581 59.4366 2.11192 59.4366 2.66245C59.4366 3.14178 59.0766 3.54044 58.6065 3.63536V5.00217C59.0816 5.09709 59.4366 5.49575 59.4366 5.97508C59.4366 6.08424 59.4116 6.18865 59.3766 6.28831L60.6368 6.98121C60.7818 6.81985 60.9768 6.7107 61.2018 6.66798V5.29642C60.7268 5.2015 60.3617 4.80285 60.3617 4.31877C60.3617 3.76824 60.8368 3.32687 61.4119 3.32687C61.9869 3.32687 62.457 3.77299 62.457 4.31877C62.457 4.80285 62.0969 5.2015 61.6169 5.29642V6.66798C62.0969 6.75341 62.457 7.16156 62.457 7.64089L62.462 7.6314Z" fill="#5B5666"/>
<path d="M65.4923 5.97034C65.4923 6.52561 65.0223 6.96698 64.4472 6.96698C63.8721 6.96698 63.3971 6.52086 63.3971 5.97034C63.3971 5.491 63.7621 5.09235 64.2372 4.99743V3.63061C63.7621 3.53569 63.3971 3.13704 63.3971 2.6577C63.3971 2.5438 63.4221 2.44414 63.4571 2.34447L62.202 1.65157C62.0119 1.85565 61.7319 1.98853 61.4219 1.98853C60.8418 1.98853 60.3717 1.54242 60.3717 0.996638C60.3717 0.45086 60.8468 0 61.4219 0C61.9969 0 62.467 0.45086 62.467 0.996638C62.467 1.10579 62.442 1.2102 62.407 1.30987L63.6671 1.99328C63.8571 1.7892 64.1372 1.65632 64.4472 1.65632C65.0273 1.65632 65.4923 2.10243 65.4923 2.65296C65.4923 3.13229 65.1323 3.53569 64.6522 3.62587V4.99268C65.1323 5.07811 65.4923 5.48151 65.4923 5.96559V5.97034Z" fill="#5B5666"/>
<path d="M42.1147 0.0142377L39.9495 2.91398C38.0993 5.38659 36.5841 8.0965 35.459 10.9583L33.2737 16.5205L29.8533 18.0059L26.4079 26.7763L32.7437 24.0285L35.639 30.0415L39.0844 21.2711L37.5242 18.0249L39.7094 12.4627C40.8296 9.5962 41.5546 6.61103 41.8647 3.59264L42.2197 0.0522049L42.1097 0.0142377H42.1147Z" fill="#5B5666"/>
<path d="M29.0783 27.2177L20.9023 48H22.5225L30.2684 28.2998L31.2385 27.8727L31.6735 28.7981L24.1327 48H25.7429L33.3237 28.7174L31.9836 25.9553L29.0783 27.2177Z" fill="#5B5666"/>
</svg>
