<svg width="105" height="48" viewBox="0 0 105 48" fill="none" xmlns="http://www.w3.org/2000/svg">
<path d="M54.7971 26.3195H53.4896V26.6552H58.0075V26.3195H56.7V22.2009H58.3654C61.6239 22.2009 62.732 20.6836 62.732 18.8441C62.732 15.803 59.7246 15.4237 58.3826 15.4237H53.4896V15.7594H54.7971V26.3195ZM56.7 21.872V15.7393H57.8733C60.5229 15.7393 60.5917 17.5082 60.5917 18.2467V19.5021C60.5917 20.5661 60.0825 21.872 57.8733 21.872H56.7Z" fill="#5B5666"/>
<path d="M71.6169 17.4913C71.7433 17.1599 71.8233 16.8132 71.8543 16.4608C71.8627 16.362 71.8483 16.2625 71.8126 16.1697C71.7768 16.0768 71.7203 15.9929 71.6473 15.9239C71.5742 15.8549 71.4864 15.8026 71.3901 15.7706C71.2939 15.7387 71.1915 15.728 71.0904 15.7392H70.8565V15.4035H73.7434V15.7392C73.4005 15.7462 73.0688 15.8602 72.7971 16.0643C72.5252 16.2685 72.3275 16.5521 72.2329 16.8737L69.8518 23.1608C68.613 26.4235 67.474 26.8532 66.7548 26.8532C65.4817 26.8532 64.4253 25.9603 64.4253 24.8593C64.4253 24.1409 64.8141 23.5166 65.5436 23.5166C65.6843 23.5042 65.826 23.52 65.96 23.5631C66.0941 23.6062 66.2178 23.6757 66.3232 23.7672C66.4286 23.8587 66.5137 23.9704 66.5732 24.0953C66.6327 24.2203 66.6652 24.3557 66.6688 24.4934C66.6616 24.7649 66.5455 25.0228 66.3454 25.2117C66.163 25.4366 65.7192 25.6615 65.7192 25.883C65.7192 26.1952 66.1287 26.5544 66.8925 26.5544C67.6564 26.5544 68.1003 25.7623 68.4719 25.0942L64.1053 15.7392H62.9319V15.4035H67.6083V15.7392H66.1803L69.5283 22.8855L71.6169 17.4913Z" fill="#5B5666"/>
<path d="M81.8535 15.2258V18.8846H81.5094C81.2892 16.8706 80.5942 15.5515 78.6053 15.5515C77.4801 15.5515 75.6495 16.2564 75.6495 19.9151V22.7012C75.6495 25.7222 77.37 26.5143 78.5639 26.5143C79.844 26.5143 81.2376 25.6517 81.7468 22.9093H82.1563L82.0153 26.652H81.5782C81.5782 26.4975 81.4922 25.9807 81.038 25.9807C80.7101 26.0307 80.4002 26.16 80.1365 26.3566C79.5278 26.6632 78.8565 26.833 78.1717 26.8534C75.2606 26.8534 73.5093 24.1043 73.5093 20.6704C73.5093 17.5084 75.8044 15.2292 78.5021 15.2258C79.8268 15.2258 80.0884 15.7797 80.7627 15.7596C80.9555 15.7596 81.272 15.7596 81.4509 15.2258H81.8535Z" fill="#5B5666"/>
<path d="M90.7271 26.3197H89.2166V26.6554H93.8928V26.3197H92.7332L88.8587 15.4139H88.5525L84.7983 25.1483C84.6125 25.6283 84.1549 26.266 83.4048 26.3163V26.652H86.2952V26.3163C85.3592 26.266 85.2078 25.9807 85.2078 25.5108C85.2352 25.1155 85.344 24.7295 85.5278 24.3763L86.1403 22.849H89.4643L90.7271 26.3197ZM89.3507 22.5065H86.2298L87.8918 18.2469L89.3507 22.5065Z" fill="#5B5666"/>
<path d="M99.8833 15.739C97.8842 15.739 98.1353 16.4103 98.0114 21.1096L97.946 23.8723C97.8944 25.9702 97.6261 26.8463 96.2497 26.8463C95.0384 26.8463 94.2436 26.2252 94.2436 25.2116C94.2436 24.4764 94.6669 23.9427 95.4135 23.9427C95.6748 23.9261 95.9322 24.011 96.1294 24.179C96.3268 24.3469 96.4479 24.5842 96.4664 24.8389C96.4594 25.1315 96.3663 25.4158 96.1981 25.658C96.1003 25.7899 96.0419 25.9455 96.0294 26.1077C96.0294 26.2454 96.1499 26.4434 96.4836 26.4434C97.5538 26.4434 97.5538 25.037 97.5916 23.8823L97.6605 21.1198C97.743 17.6859 97.7086 18.5587 97.7086 17.4946C97.7086 16.8232 97.6432 15.7424 96.2325 15.7424H95.8264V15.4067H105V15.7424H103.692V26.3193H105V26.6549H100.475V26.3193H101.783V15.739H99.8833Z" fill="#5B5666"/>
<path fill-rule="evenodd" clip-rule="evenodd" d="M43.6553 0H0V26.6554H10.9353C9.12044 24.3688 8.15043 21.5515 8.18257 18.6598C8.18712 16.5548 8.70397 14.4808 9.6906 12.6087C10.6772 10.7366 12.1054 9.11974 13.8577 7.89121C15.61 6.66267 17.6362 5.85756 19.7697 5.54212C21.9032 5.22668 24.083 5.40992 26.1298 6.07677C28.1766 6.74362 30.0317 7.87501 31.5427 9.37786C33.0538 10.8807 34.1773 12.712 34.821 14.7213C35.4648 16.7304 35.6104 18.86 35.2457 20.9348C34.881 23.0096 34.0165 24.9701 32.7234 26.6554H43.6553V0Z" fill="#5B5666"/>
<path fill-rule="evenodd" clip-rule="evenodd" d="M49.0438 48H16.3239V16.0646C16.3627 16.0256 16.4133 15.9997 16.4684 15.9908L16.5475 16.0646C18.8246 23.5815 22.9894 30.4249 28.6641 35.974C34.3387 41.5233 41.3438 45.6027 49.0438 47.8423C49.1195 47.8423 49.1194 47.8423 49.1194 47.9095C49.1194 47.929 49.1115 47.9478 49.0973 47.9616C49.0831 47.9755 49.0639 47.9833 49.0438 47.9833V48Z" fill="#5B5666"/>
</svg>
