<svg width="123" height="48" viewBox="0 0 123 48" fill="none" xmlns="http://www.w3.org/2000/svg">
<path d="M39.8344 27.6973V20.1742C42.4369 19.6758 44.4213 17.3932 44.4213 14.6765C44.4213 11.574 41.8839 9.06632 38.7446 9.06632C37.1831 9.06632 35.768 9.69325 34.7433 10.6899L27.5865 6.28534C27.619 6.06029 27.619 5.85131 27.619 5.61019C27.619 2.50771 25.0816 0 21.9423 0C18.8031 0 16.2657 2.49163 16.2657 5.59411C16.2657 8.6966 18.8031 11.2043 21.9423 11.2043C24.0569 11.2043 25.8949 10.063 26.8708 8.3751L33.5071 12.4582C33.2144 13.1333 33.0517 13.8728 33.0517 14.6444C33.0517 17.3771 35.0198 19.6437 37.6386 20.142V27.6651C35.0361 28.1635 33.0517 30.4461 33.0517 33.1628C33.0517 36.2653 35.5891 38.773 38.7284 38.773C41.8676 38.773 44.405 36.2653 44.405 33.1628C44.405 30.4622 42.4369 28.1956 39.8344 27.6973Z" fill="#5B5666"/>
<path d="M27.6189 23.9196C27.6189 20.8171 25.0815 18.3094 21.9422 18.3094C18.803 18.3094 16.2655 20.8171 16.2655 23.9196C16.2655 26.6523 18.2337 28.9189 20.8524 29.4172V36.8761C19.4536 37.1493 18.2337 37.9209 17.4204 39.014L11.0443 35.0917C11.2558 34.497 11.3696 33.87 11.3696 33.1949C11.3696 30.4621 9.40148 28.1955 6.78273 27.6972V20.1741C9.38522 19.6758 11.3696 17.3931 11.3696 14.6764C11.3696 11.574 8.83219 9.06625 5.69294 9.06625C2.53742 9.05018 0 11.5579 0 14.6604C0 17.3931 1.96813 19.6597 4.58688 20.158V27.6811C1.96813 28.1955 0 30.4621 0 33.1949C0 36.2974 2.53742 38.8051 5.67667 38.8051C7.35202 38.8051 8.86472 38.0817 9.88945 36.9404L16.4445 40.9752C16.3306 41.4253 16.2655 41.8915 16.2655 42.3898C16.2655 45.4923 18.803 48 21.9422 48C25.0815 48 27.6189 45.4923 27.6189 42.3898C27.6189 39.657 25.6508 37.3905 23.032 36.8921V29.4333C25.6508 28.9189 27.6189 26.6523 27.6189 23.9196Z" fill="#5B5666"/>
<path d="M57.6127 9.42002C58.1007 9.42002 58.5398 9.53254 58.9465 9.74152C59.3531 9.95049 59.6622 10.2559 59.8899 10.6256L59.2555 11.0918C58.8651 10.497 58.3284 10.1916 57.6452 10.1916C57.0922 10.1916 56.6368 10.3684 56.2789 10.7382C55.9211 11.1079 55.7259 11.558 55.7259 12.1206C55.7259 12.6833 55.9048 13.1334 56.2789 13.5031C56.6368 13.8728 57.0922 14.0496 57.6452 14.0496C58.3284 14.0496 58.8651 13.7442 59.2555 13.1494L59.8899 13.6156C59.6622 13.9853 59.3531 14.2747 58.9465 14.4997C58.5398 14.7087 58.1007 14.8212 57.6127 14.8212C56.832 14.8212 56.1813 14.564 55.6446 14.0496C55.1078 13.5352 54.8476 12.8922 54.8476 12.1206C54.8476 11.3651 55.1241 10.7221 55.6608 10.1916C56.1976 9.66114 56.8482 9.40394 57.629 9.40394L57.6127 9.42002Z" fill="#5B5666"/>
<path d="M68.0061 9.40394V14.7248H67.1603V11.124L63.8584 14.8052H63.5656V9.48432H64.4115V13.0851L67.7133 9.40394H68.0061Z" fill="#5B5666"/>
<path d="M75.2931 10.2398H73.2762V11.6383H74.0081C74.5286 11.6383 74.9515 11.783 75.2606 12.0724C75.5696 12.3617 75.7323 12.7314 75.7323 13.1976C75.7323 13.6477 75.5859 14.0174 75.2606 14.3068C74.9515 14.5961 74.5286 14.7408 74.0081 14.7408H72.4304V9.48428H75.2931V10.2398ZM73.2599 12.3456V13.9692H73.9268C74.2196 13.9692 74.4635 13.9049 74.6099 13.7602C74.7726 13.6156 74.8539 13.4227 74.8539 13.1815C74.8539 12.9404 74.7726 12.7314 74.6099 12.5868C74.4473 12.4421 74.2196 12.3617 73.9268 12.3617L73.2599 12.3456Z" fill="#5B5666"/>
<path d="M84.044 9.40394V14.7248H83.1819V11.124L79.8963 14.8052H79.5872V9.48432H80.4493V13.0691L83.7512 9.40394H84.044Z" fill="#5B5666"/>
<path d="M89.3954 9.43599C89.9322 9.43599 90.3714 9.58066 90.6967 9.88609C91.022 10.1754 91.2009 10.5612 91.2009 11.0435C91.2009 11.5257 91.0383 11.9115 90.6967 12.2009C90.3714 12.5063 89.9322 12.651 89.3954 12.651H88.7774V14.6764H87.9315V9.45206L89.3954 9.43599ZM88.7611 10.1915V11.9115H89.3629C89.6557 11.9115 89.8997 11.8312 90.0461 11.6704C90.2087 11.5097 90.29 11.3007 90.29 11.0435C90.29 10.7863 90.2087 10.5773 90.0461 10.4166C89.8834 10.2558 89.6557 10.1754 89.3629 10.1754L88.7611 10.1915Z" fill="#5B5666"/>
<path d="M96.8939 9.42002C97.3819 9.42002 97.821 9.53254 98.2277 9.74152C98.6343 9.95049 98.9434 10.2559 99.1711 10.6256L98.5367 11.0918C98.1463 10.497 97.6096 10.1916 96.9264 10.1916C96.3734 10.1916 95.918 10.3684 95.5601 10.7382C95.2023 11.1079 95.0071 11.558 95.0071 12.1206C95.0071 12.6833 95.186 13.1334 95.5601 13.5031C95.918 13.8728 96.3734 14.0496 96.9264 14.0496C97.6096 14.0496 98.1463 13.7442 98.5367 13.1494L99.1711 13.6156C98.9434 13.9853 98.6343 14.2747 98.2277 14.4997C97.821 14.7087 97.3819 14.8212 96.8939 14.8212C96.1132 14.8212 95.4625 14.564 94.9258 14.0496C94.389 13.5352 94.1288 12.8922 94.1288 12.1206C94.1288 11.3651 94.4053 10.7221 94.942 10.1916C95.4788 9.66114 96.1294 9.40394 96.9102 9.40394L96.8939 9.42002Z" fill="#5B5666"/>
<path d="M115.013 9.40394V14.7248H114.168V11.124L110.866 14.8052H110.573V9.48432H111.419V13.0851L114.721 9.40394H115.013Z" fill="#5B5666"/>
<path d="M123 14.7247H122.154V11.1239L118.852 14.8051H118.56V9.48425H119.405V13.069L122.707 9.3878H123V14.7247ZM120.69 8.88947C120.316 8.88947 120.007 8.77695 119.763 8.51975C119.519 8.27862 119.405 7.95712 119.405 7.5874H120.088C120.088 7.7803 120.137 7.94105 120.251 8.06965C120.365 8.18217 120.511 8.24647 120.707 8.24647C120.885 8.24647 121.048 8.19825 121.162 8.06965C121.276 7.95712 121.325 7.79637 121.325 7.5874H122.008C122.008 7.95712 121.894 8.26255 121.65 8.51975C121.39 8.77695 121.081 8.88947 120.69 8.88947Z" fill="#5B5666"/>
<path d="M60.7032 23.9679C60.7032 24.643 60.4754 25.1735 60.0037 25.5754C59.532 25.9773 58.9302 26.1702 58.1983 26.1702V26.8775H57.3524V26.1702C56.6205 26.1702 56.0187 25.9612 55.547 25.5593C55.0753 25.1574 54.8476 24.627 54.8476 23.9679C54.8476 23.3088 55.0753 22.7783 55.547 22.3925C56.0187 22.0067 56.6205 21.8138 57.3524 21.7977V21.1387H58.1983V21.7977C58.9465 21.7977 59.5483 22.0067 60.0037 22.3925C60.4754 22.7783 60.7032 23.2927 60.7032 23.9679ZM55.6934 24C55.6934 24.4501 55.8398 24.8038 56.1488 25.061C56.4416 25.3182 56.8482 25.4468 57.3524 25.4468V22.5533C56.8482 22.5533 56.4416 22.6819 56.1488 22.9391C55.8398 23.1641 55.6934 23.5178 55.6934 24ZM58.182 25.4146C58.6862 25.4146 59.0929 25.286 59.3856 25.0288C59.6784 24.7716 59.8411 24.418 59.8411 23.9679C59.8411 23.5017 59.6947 23.1481 59.4019 22.8908C59.1091 22.6336 58.7025 22.505 58.1983 22.505L58.182 25.4146Z" fill="#5B5666"/>
<path d="M83.3772 21.3315C83.914 21.3315 84.3531 21.4762 84.6784 21.7817C85.0038 22.071 85.1664 22.4568 85.1664 22.9391C85.1664 23.4213 85.0038 23.8071 84.6784 24.0965C84.3531 24.4019 83.914 24.5466 83.3772 24.5466H82.8079V26.572H81.9621V21.3476L83.3772 21.3315ZM82.8079 22.071V23.791H83.3609C83.6537 23.791 83.8977 23.7107 84.0441 23.5499C84.2067 23.3892 84.2881 23.1802 84.2881 22.923C84.2881 22.6658 84.2067 22.4568 84.0441 22.296C83.8814 22.1353 83.6537 22.0549 83.3609 22.0549L82.8079 22.071Z" fill="#5B5666"/>
<path d="M89.7371 25.736H87.3461L86.972 26.6041H86.0611L88.3871 21.2833H88.6799L91.0058 26.6041H90.1112L89.7371 25.736ZM88.5497 22.8586L87.6714 25.0287H89.4281L88.5497 22.8586Z" fill="#5B5666"/>
<path d="M99.7077 23.4053H100.228C100.781 23.4053 101.237 23.55 101.562 23.8715C101.904 24.1769 102.066 24.5788 102.066 25.061C102.066 25.5593 101.904 25.9451 101.562 26.2506C101.22 26.556 100.781 26.7007 100.228 26.7007H98.8619V21.4763H99.7077V23.4053ZM99.7077 24.1608V25.9612H100.228C100.537 25.9612 100.781 25.8808 100.944 25.704C101.107 25.5433 101.204 25.3182 101.204 25.0449C101.204 24.7717 101.123 24.5466 100.944 24.3859C100.781 24.2251 100.537 24.1287 100.228 24.1287L99.7077 24.1608Z" fill="#5B5666"/>
<path d="M112.07 23.3248H112.639C113.192 23.3248 113.647 23.4695 113.973 23.791C114.314 24.0964 114.477 24.4983 114.477 24.9805C114.477 25.4788 114.314 25.8646 113.973 26.1701C113.631 26.4755 113.192 26.6202 112.639 26.6202H111.207V21.3958H112.053L112.07 23.3248ZM112.07 24.0803V25.8807H112.639C112.948 25.8807 113.192 25.8003 113.354 25.6235C113.517 25.4628 113.615 25.2377 113.615 24.9644C113.615 24.6912 113.533 24.4661 113.354 24.3054C113.192 24.1446 112.948 24.0482 112.639 24.0482L112.07 24.0803ZM115.99 26.6202H115.144V21.3958H115.99V26.6202Z" fill="#5B5666"/>
<path d="M123 21.2994V26.6203H122.154V23.0195L118.852 26.7007H118.56V21.3798H119.405V24.9645L122.707 21.2834L123 21.2994ZM120.69 20.785C120.316 20.785 120.007 20.6725 119.763 20.4153C119.519 20.1742 119.405 19.8527 119.405 19.483H120.088C120.088 19.6759 120.137 19.8366 120.251 19.9652C120.365 20.0777 120.511 20.142 120.707 20.142C120.885 20.142 121.048 20.0938 121.162 19.9652C121.276 19.8527 121.325 19.6919 121.325 19.483H122.008C122.008 19.8527 121.894 20.1581 121.65 20.4153C121.39 20.6725 121.081 20.785 120.69 20.785Z" fill="#5B5666"/>
<path d="M59.6457 33.2753L57.8077 37.4869C57.4824 38.2264 56.9293 38.5961 56.1323 38.5961C55.9209 38.5961 55.6932 38.58 55.4654 38.5157V37.7923C55.7908 37.8245 55.9534 37.8245 55.9697 37.8245C56.4576 37.8245 56.7992 37.6316 56.9781 37.2297L55.1076 33.2753H56.0835L57.4336 36.2974L58.6698 33.2753H59.6457Z" fill="#5B5666"/>
<path d="M66.6073 38.5157H65.7615V36.1205H63.094V38.5157H62.2482V33.2753H63.094V35.365H65.7615V33.2753H66.6073V38.5157Z" fill="#5B5666"/>
<path d="M74.3011 33.1949V38.5158H73.4553V34.9149L70.1534 38.5961H69.8606V33.2753H70.7227V36.8761L74.0246 33.1949H74.3011Z" fill="#5B5666"/>
<path d="M79.8476 35.6062C80.1566 35.7027 80.4006 35.8795 80.5795 36.1046C80.7584 36.3296 80.8398 36.619 80.8398 36.9405C80.8398 37.3906 80.6771 37.7442 80.3681 38.0336C80.059 38.3229 79.6361 38.4676 79.1319 38.4676H77.5216V33.2432H78.7252C79.1969 33.2432 79.5873 33.3718 79.8638 33.629C80.1566 33.8862 80.303 34.2238 80.303 34.6417C80.303 35.0275 80.1403 35.3651 79.8476 35.6062ZM78.3511 33.9666V35.3812H78.6276C78.8879 35.3812 79.0994 35.3169 79.2295 35.1883C79.3759 35.0597 79.4409 34.8829 79.4409 34.6739C79.4409 34.4649 79.3759 34.2881 79.2295 34.1595C79.0831 34.0309 78.8879 33.9666 78.6276 33.9666H78.3511ZM79.0506 37.7281C79.3433 37.7281 79.5873 37.6638 79.7337 37.5192C79.8964 37.3745 79.9777 37.1816 79.9777 36.9405C79.9777 36.6993 79.8964 36.4904 79.7337 36.3457C79.5711 36.201 79.3433 36.1206 79.0506 36.1206H78.3511V37.7442L79.0506 37.7281Z" fill="#5B5666"/>
<path d="M91.0056 33.1468C91.5423 33.1468 91.9815 33.2914 92.3068 33.5969C92.6321 33.8862 92.7948 34.272 92.7948 34.7543C92.7948 35.2365 92.6321 35.6223 92.3068 35.9117C91.9815 36.2171 91.5423 36.3618 91.0056 36.3618H90.42V38.3872H89.5742V33.1628L91.0056 33.1468ZM90.42 33.9023V35.6223H90.9893C91.2821 35.6223 91.5261 35.542 91.6725 35.3812C91.8351 35.2205 91.9164 35.0115 91.9164 34.7543C91.9164 34.4971 91.8351 34.2881 91.6725 34.1273C91.5098 33.9666 91.2821 33.8862 90.9893 33.8862L90.42 33.9023Z" fill="#5B5666"/>
<path d="M97.3654 33.1628C97.8534 33.1628 98.2926 33.2754 98.6992 33.4843C99.1058 33.6933 99.4149 33.9987 99.6426 34.3685L99.0082 34.8347C98.6179 34.2399 98.0811 33.9344 97.398 33.9344C96.8449 33.9344 96.3895 34.1113 96.0317 34.481C95.6738 34.8507 95.4786 35.3008 95.4786 35.8634C95.4786 36.4261 95.6575 36.8762 96.0317 37.2459C96.3895 37.6156 96.8449 37.7925 97.398 37.7925C98.0811 37.7925 98.6179 37.487 99.0082 36.8923L99.6426 37.3584C99.4149 37.7282 99.1058 38.0175 98.6992 38.2426C98.2926 38.4515 97.8534 38.5641 97.3654 38.5641C96.5847 38.5641 95.9341 38.3069 95.3973 37.7925C94.8605 37.2781 94.6003 36.6351 94.6003 35.8634C94.6003 35.1079 94.8768 34.4649 95.4136 33.9344C95.9503 33.404 96.601 33.1468 97.3817 33.1468L97.3654 33.1628Z" fill="#5B5666"/>
<path d="M106.474 33.1949V38.5158H105.629V34.9149L102.327 38.5961H102.034V33.2753H102.896V36.8761L106.198 33.1949H106.474Z" fill="#5B5666"/>
<path d="M112.021 34.0308H110.866V38.5157H110.02V34.0308H108.881V33.2753H112.021V34.0308Z" fill="#5B5666"/>
<path d="M123 34.0308H121.845V38.5157H120.999V34.0308H119.844V33.2753H123V34.0308Z" fill="#5B5666"/>
<path d="M66.1356 25.7843H64.2326V24.1286H66.1356V23.4052H64.2326V22.0549H66.1356V21.3154H63.3867V26.5398H66.1356V25.7843Z" fill="#5B5666"/>
<path d="M79.1805 25.8648H77.1311V24.2091H79.1155V23.4696H77.1311V22.1354H79.1805V21.3798H76.2853V26.6203H79.1805V25.8648Z" fill="#5B5666"/>
<path d="M86.4352 37.712H84.4183V36.0563H86.3864V35.3329H84.4183V33.9826H86.4352V33.2271H83.5562V38.4676H86.4352V37.712Z" fill="#5B5666"/>
<path d="M117.535 37.7602H115.567V36.1045H117.535V35.365H115.567V34.0308H117.535V33.2753H114.721V38.5157H117.535V37.7602Z" fill="#5B5666"/>
<path d="M102.587 9.48428H103.433V14.7087H102.587V9.48428ZM107.157 14.7247H106.1L103.644 11.9438L105.872 9.50036H106.913L104.718 11.9438L107.157 14.7247Z" fill="#5B5666"/>
<path d="M104.099 11.6061H102.879V12.2973H104.099V11.6061Z" fill="#5B5666"/>
<path d="M108.654 26.6846H107.808V24.2894H105.157V26.6846H104.295V21.4602H105.157V23.5499H107.808V21.4602H108.654V26.6846Z" fill="#5B5666"/>
<path d="M73.6503 25.7843V27.6651H72.8045V26.5398H69.226V27.6651H68.3802V25.7843H68.7869C69.1447 25.4789 69.4212 25.0288 69.6164 24.4501C69.8116 23.8714 69.9092 23.0676 69.9092 22.0549V21.3154H72.9996V25.8004L73.6503 25.7843ZM69.7303 25.7843H72.1376V22.0549H70.7062C70.6899 23.8232 70.3646 25.077 69.7303 25.7843Z" fill="#5B5666"/>
<path d="M96.4223 21.4441V26.6524H95.5764V22.1996H94.015C94.015 23.0194 93.9499 23.7107 93.8523 24.2894C93.7547 24.8681 93.5921 25.3182 93.3969 25.6557C93.2017 25.9933 92.974 26.2344 92.73 26.3952C92.486 26.556 92.1932 26.6524 91.8516 26.7006V25.9129C92.3071 25.8165 92.6487 25.4789 92.8601 24.9163C93.0716 24.3537 93.1854 23.4856 93.1854 22.2961V21.4441H96.4223Z" fill="#5B5666"/>
</svg>
