<svg width="34" height="29" viewBox="0 0 34 29" fill="none" xmlns="http://www.w3.org/2000/svg">
<path fill-rule="evenodd" clip-rule="evenodd" d="M33.2199 5.92624C33.4562 5.1521 33.2199 4.58325 32.095 4.58325H28.3754C27.4297 4.58325 26.9936 5.07465 26.7572 5.61651C26.7572 5.61651 24.8655 10.1452 22.1859 13.0868C21.319 13.9384 20.9249 14.2094 20.452 14.2094C20.2156 14.2094 19.8608 13.9384 19.8608 13.1643V5.92624C19.8608 4.99727 19.5989 4.58325 18.8107 4.58325H12.9655C12.3745 4.58325 12.0191 5.0144 12.0191 5.42302C12.0191 6.30367 13.3588 6.50676 13.4969 8.984V14.3642C13.4969 15.5437 13.28 15.7576 12.8071 15.7576C11.5462 15.7576 8.47886 11.2088 6.65966 6.00362C6.30314 4.99192 5.94556 4.58325 4.99493 4.58325H1.27531C0.212563 4.58325 0 5.07465 0 5.61651C0 6.58421 1.26103 11.3838 5.87158 17.7316C8.94525 22.0666 13.2759 24.4166 17.2165 24.4166C19.5809 24.4166 19.8734 23.8947 19.8734 22.9957V19.7192C19.8734 18.6754 20.0974 18.467 20.8461 18.467C21.3978 18.467 22.3435 18.738 24.5503 20.8282C27.0724 23.3054 27.4882 24.4166 28.9067 24.4166H32.6264C33.6891 24.4166 34.2205 23.8947 33.9139 22.8646C33.5784 21.8381 32.3744 20.3488 30.7767 18.5832C29.9097 17.5768 28.6092 16.493 28.2151 15.951C27.6634 15.2544 27.8211 14.9448 28.2151 14.3255C28.2151 14.3255 32.747 8.05504 33.2199 5.92624Z" fill="#8E8E8E"/>
</svg>
