<svg width="60" height="16" viewBox="0 0 60 16" fill="none" xmlns="http://www.w3.org/2000/svg">
<path d="M3.392 9.088H15.088V12H0.48V0.799999H3.392V9.088ZM25.1461 2.272C27.8341 2.272 30.0261 4.448 30.0261 7.136C30.0261 9.824 27.8341 12 25.1461 12H20.2821C17.5941 12 15.4181 9.824 15.4181 7.136C15.4181 4.448 17.5941 2.272 20.2821 2.272H25.1461ZM25.1461 9.088C26.2181 9.088 27.0981 8.208 27.0981 7.136C27.0981 6.064 26.2181 5.184 25.1461 5.184H20.2821C19.2101 5.184 18.3301 6.064 18.3301 7.136C18.3301 8.208 19.2101 9.088 20.2821 9.088H25.1461ZM41.5544 2.272H44.4824V15.424H30.3544V12.496H41.5544V10.048C40.6744 11.232 39.2664 12 37.6664 12H34.2584C31.5704 12 29.3944 9.824 29.3944 7.136C29.3944 4.448 31.5704 2.272 34.2584 2.272H37.6664C39.2664 2.272 40.6744 3.04 41.5544 4.224V2.272ZM37.6664 9.088C38.7384 9.088 39.6184 8.208 39.6184 7.136C39.6184 6.064 38.7384 5.184 37.6664 5.184H34.2584C33.1864 5.184 32.3064 6.064 32.3064 7.136C32.3064 8.208 33.1864 9.088 34.2584 9.088H37.6664ZM54.5517 2.272C57.2397 2.272 59.4317 4.448 59.4317 7.136C59.4317 9.824 57.2397 12 54.5517 12H49.6877C46.9997 12 44.8237 9.824 44.8237 7.136C44.8237 4.448 46.9997 2.272 49.6877 2.272H54.5517ZM54.5517 9.088C55.6237 9.088 56.5037 8.208 56.5037 7.136C56.5037 6.064 55.6237 5.184 54.5517 5.184H49.6877C48.6157 5.184 47.7357 6.064 47.7357 7.136C47.7357 8.208 48.6157 9.088 49.6877 9.088H54.5517Z" fill="white"/>
</svg>
