<?xml version="1.0" encoding="UTF-8"?>
<svg id="Layer_2" data-name="Layer 2" xmlns="http://www.w3.org/2000/svg" viewBox="0 0 613.17 153.75">
  <defs>
    <style>
      .cls-1 {
        fill: #fff;
      }
    </style>
  </defs>
  <g id="Layer_1-2" data-name="Layer 1">
    <g>
      <path class="cls-1" d="m19,47.5h57v14.25H19C6.33,61.75,0,55.42,0,42.75v-23.75C0,6.33,6.33,0,19,0h57v14.25H19c-3.17,0-4.75,1.58-4.75,4.75v23.75c0,3.17,1.58,4.75,4.75,4.75Z"/>
      <path class="cls-1" d="m85.51,0h14.25v44.51L144.41,0h17.1v61.75h-14.25V17.24l-44.65,44.51h-17.1V0Z"/>
      <path class="cls-1" d="m171.01,0h14.25v44.51L229.92,0h17.1v61.75h-14.25V17.24l-44.65,44.51h-17.1V0Z"/>
      <path class="cls-1" d="m0,92h14.25v44.51l44.65-44.51h17.1v61.75h-14.25v-44.51l-44.65,44.51H0v-61.75Z"/>
      <path class="cls-1" d="m99.76,130v23.75h-14.25v-61.75h14.25v23.75h19l23.75-23.75h20.14l-30.88,30.88,30.88,30.88h-20.14l-23.75-23.75h-19Z"/>
      <path class="cls-1" d="m171.01,92h14.25v44.51l44.65-44.51h17.1v61.75h-14.25v-44.51l-44.65,44.51h-17.1v-61.75Z"/>
      <path class="cls-1" d="m332.52,92v14.25h-30.88v47.5h-14.25v-47.5h-30.88v-14.25h76Z"/>
      <path class="cls-1" d="m385.15,139.5h57v14.25h-57c-12.67,0-19-6.33-19-19v-23.75c0-12.67,6.33-19,19-19h57v14.25h-57c-3.17,0-4.75,1.58-4.75,4.75v23.75c0,3.17,1.58,4.75,4.75,4.75Z"/>
      <path class="cls-1" d="m482.54,149h-11.88c-12.67,0-19-6.33-19-19v-14.25c0-12.67,6.33-19,19-19h11.88v-4.75h14.25v4.75h11.88c12.67,0,19,6.33,19,19v14.25c0,12.67-6.33,19-19,19h-11.88v4.75h-14.25v-4.75Zm0-14.25v-23.75h-11.88c-3.17,0-4.75,1.58-4.75,4.75v14.25c0,3.17,1.58,4.75,4.75,4.75h11.88Zm14.25-23.75v23.75h11.88c3.17,0,4.75-1.58,4.75-4.75v-14.25c0-3.17-1.58-4.75-4.75-4.75h-11.88Z"/>
      <path class="cls-1" d="m537.16,115.75v-23.75h14.25v23.75c0,3.17,1.58,4.75,4.75,4.75h38c3.17,0,4.75-1.58,4.75-4.75v-23.75h14.25v42.75c0,12.67-6.33,19-19,19h-14.25v-14.25h14.25c3.17,0,4.75-1.58,4.75-4.75v-.33c-1.46.22-3.04.33-4.75.33h-38c-12.67,0-19-6.33-19-19Z"/>
    </g>
  </g>
</svg>